<?xml version="1.0" encoding="UTF-8" standalone="no"?>
<svg
   width="72"
   height="72"
   viewBox="0 0 134.08469 108.98632"
   fill="none"
   version="1.1"
   id="svg36"
   sodipodi:docname="DebConf 2023 Logo.svg"
   inkscape:version="1.2.1 (9c6d41e410, 2022-07-14)"
   xmlns:inkscape="http://www.inkscape.org/namespaces/inkscape"
   xmlns:sodipodi="http://sodipodi.sourceforge.net/DTD/sodipodi-0.dtd"
   xmlns="http://www.w3.org/2000/svg"
   xmlns:svg="http://www.w3.org/2000/svg"
   xmlns:rdf="http://www.w3.org/1999/02/22-rdf-syntax-ns#"
   xmlns:cc="http://creativecommons.org/ns#"
   xmlns:dc="http://purl.org/dc/elements/1.1/">
  <title
     id="title346">DebConf 2023 Logo</title>
  <defs
     id="defs40">
    <rect
       x="59.766224"
       y="67.189415"
       width="41.30341"
       height="37.686981"
       id="rect319" />
    <rect
       x="63.953667"
       y="57.291828"
       width="50.629986"
       height="32.928524"
       id="rect313" />
    <rect
       x="65.095695"
       y="67.66526"
       width="45.300514"
       height="35.212585"
       id="rect307" />
    <rect
       x="73.660919"
       y="30.644464"
       width="19.795183"
       height="16.559431"
       id="rect301" />
    <rect
       x="56.340134"
       y="9.5169144"
       width="64.715019"
       height="29.121759"
       id="rect187" />
    <rect
       x="38.067657"
       y="45.300514"
       width="87.174942"
       height="27.218376"
       id="rect131" />
    <rect
       x="56.340134"
       y="9.5169144"
       width="137.23392"
       height="30.834805"
       id="rect187-2" />
    <rect
       x="56.340134"
       y="9.5169144"
       width="102.02133"
       height="43.587467"
       id="rect1406" />
    <rect
       x="56.340134"
       y="9.5169144"
       width="102.02133"
       height="43.587467"
       id="rect1480" />
    <rect
       x="56.340134"
       y="9.5169144"
       width="64.715019"
       height="29.121759"
       id="rect1691" />
    <rect
       x="56.340134"
       y="9.5169144"
       width="137.23392"
       height="30.834805"
       id="rect2141" />
  </defs>
  <sodipodi:namedview
     id="namedview38"
     pagecolor="#ffffff"
     bordercolor="#000000"
     borderopacity="0.25"
     inkscape:showpageshadow="2"
     inkscape:pageopacity="0.0"
     inkscape:pagecheckerboard="0"
     inkscape:deskcolor="#d1d1d1"
     showgrid="false"
     inkscape:zoom="2.1890449"
     inkscape:cx="122.19941"
     inkscape:cy="134.76197"
     inkscape:window-width="1920"
     inkscape:window-height="1019"
     inkscape:window-x="0"
     inkscape:window-y="0"
     inkscape:window-maximized="1"
     inkscape:current-layer="svg36" />
  <path
     fill-rule="evenodd"
     clip-rule="evenodd"
     d="M 123.62998,15.771263 C 116.41078,-2.6556254 87.28893,4.8908306 86.04287,33.054925 81.60114,1.5214516 120.76756,-11.418362 130.52346,11.962539 c 4.3576,10.443392 0.0659,19.981688 -9.08857,23.288507 -9.86428,3.563218 -19.24285,-0.487156 -20.53918,-7.95906 -1.58851,-9.156063 9.5454,-12.772305 12.76023,-6.182191 -11.24594,-7.221424 -13.3928,9.422354 -3.30091,10.974458 10.70965,1.647109 16.49337,-7.805234 13.27495,-16.31299 z"
     fill="#cc0033"
     id="path32"
     sodipodi:nodetypes="ccssscsc"
     inkscape:label="debian smooth" />
  <path
     fill-rule="evenodd"
     clip-rule="evenodd"
     d="m 87.39934,34.704233 c -2.58863,11.731981 3.66149,18.416635 11.99666,15.938684 41.37539,-12.300437 46.39382,37.47572 11.517,43.9954 5.117,0.661 7.926,0.352 9.979,0 -3.177,1.929 -10.343,4.983 -21.985,3.262 -3.68502,0.79064 -7.31301,0.85197 -10.419,0.939 4.908,4.206003 16.372,6.092003 31.95,1.969003 -4.13,4.49 -13.99,7.871 -26.139,7.199 -7.07901,-0.58492 -13.61516,-3.87937 -18.707,-8.359003 -4.27345,1.112423 -12.436,-4.567 -15.5175,-6.474 -3.198826,4.14473 3.139031,9.550943 2.7918,15.812003 -9.847847,-8.81574 -20.816497,6.53305 -30.6491,-6.857 -7.0725,-3.290003 -14.6658,-4.695003 -25.6246,-1.321 L 0,43.984817 c 45.9978,-19.5154 57.6666,-13.5332 69.417,0 5.24246,5.108111 9.13007,14.27496 15.114,17.3585 3.51094,1.73022 5.86062,5.27259 5.669,8.365 4.979,1.883 10.3991,3.60659 16.841,2.481 11.71231,-2.04649 10.18695,-8.98157 6.899,-11.062 -7.95072,-5.030761 -13.83613,3.41326 -25.29627,-3.47942 -5.34087,-3.212262 -9.18899,-13.297533 -4.92373,-25.15798 0.72946,2.120165 1.22956,2.797681 3.67934,2.214316 z M 16.6122,44.618017 c -19.247698,-5.88817 -9.837465,21.53222 -6.679005,43.82526 2.260625,15.955953 13.525295,6.34594 15.541805,-5.61696 -9.686699,21.140153 -15.567307,6.08631 -11.7872,-6.956 -3.359783,-10.13418 -11.905185,-34.191234 2.9244,-31.2523 z m 43.1395,25.3943 c 1.9914,2.023 4.1264,3.242 7.853,2.462 -0.937,-5.053 -2.1737,-7.396 -7.853,-2.462 z"
     fill="#cc0033"
     id="path34"
     sodipodi:nodetypes="cscccccccccccccccssscccscccccc"
     inkscape:label="elephant" />
  <metadata
     id="metadata344">
    <rdf:RDF>
      <cc:Work
         rdf:about="">
        <dc:title>DebConf 2023 Logo</dc:title>
        <cc:license
           rdf:resource="http://creativecommons.org/licenses/by-sa/4.0/" />
        <dc:contributor>
          <cc:Agent>
            <dc:title>Manuel Jesús de la Fuente Pereira</dc:title>
          </cc:Agent>
        </dc:contributor>
      </cc:Work>
      <cc:License
         rdf:about="http://creativecommons.org/licenses/by-sa/4.0/">
        <cc:permits
           rdf:resource="http://creativecommons.org/ns#Reproduction" />
        <cc:permits
           rdf:resource="http://creativecommons.org/ns#Distribution" />
        <cc:requires
           rdf:resource="http://creativecommons.org/ns#Notice" />
        <cc:requires
           rdf:resource="http://creativecommons.org/ns#Attribution" />
        <cc:permits
           rdf:resource="http://creativecommons.org/ns#DerivativeWorks" />
        <cc:requires
           rdf:resource="http://creativecommons.org/ns#ShareAlike" />
      </cc:License>
    </rdf:RDF>
  </metadata>
  <text
     xml:space="preserve"
     id="text185"
     style="font-size:14px;line-height:12px;letter-spacing:-0.01px;word-spacing:-2.6px;white-space:pre;shape-inside:url(#rect187);display:none;fill:#000000"
     transform="translate(-49.596844,-4.0038014)"
     inkscape:label="debconf text original"
     sodipodi:insensitive="true" />
  <g
     aria-label="Deb Conf 23"
     transform="translate(-49.596844,-4.0038014)"
     id="text1689"
     style="font-size:14px;line-height:12px;letter-spacing:-0.01px;word-spacing:-2.6px;white-space:pre;shape-inside:url(#rect1691);display:none;fill:#000000"
     inkscape:label="debconf path original"
     sodipodi:insensitive="true">
    <path
       d="m 57.193844,9.7871182 h 3.822 q 1.596,0 2.73,0.6579998 1.134,0.644 1.708,1.778 0.574,1.12 0.574,2.52 0,1.484 -0.63,2.618 -0.616,1.134 -1.75,1.75 -1.134,0.616 -2.632,0.616 h -3.822 z m 2.73,2.3799998 v 5.18 h 1.092 q 1.05,0 1.638,-0.728 0.602,-0.728 0.602,-1.876 0,-1.162 -0.602,-1.862 -0.602,-0.714 -1.638,-0.714 z"
       style="font-weight:900;font-family:Raleway;-inkscape-font-specification:'Raleway, Heavy';font-variant-numeric:lining-nums;letter-spacing:0px;baseline-shift:baseline;shape-inside:url(#rect187);display:inline"
       id="path1695" />
    <path
       d="m 70.661838,19.867118 q -1.246,0 -2.17,-0.504 -0.91,-0.518 -1.386,-1.358 -0.476,-0.854 -0.476,-1.862 0,-1.092 0.462,-1.974 0.476,-0.896 1.386,-1.414 0.91,-0.532 2.184,-0.532 1.274,0 2.184,0.518 0.91,0.518 1.372,1.4 0.476,0.868 0.476,1.904 0,0.434 -0.07,0.812 h -5.166 q 0.042,0.546 0.406,0.826 0.378,0.28 0.882,0.28 0.448,0 0.826,-0.196 0.378,-0.21 0.504,-0.546 l 2.254,0.644 q -0.476,0.91 -1.428,1.456 -0.938,0.546 -2.24,0.546 z m 1.176,-4.606 q -0.056,-0.532 -0.392,-0.84 -0.322,-0.308 -0.826,-0.308 -0.504,0 -0.84,0.308 -0.322,0.308 -0.378,0.84 z"
       style="font-weight:900;font-family:Raleway;-inkscape-font-specification:'Raleway, Heavy';font-variant-numeric:lining-nums;letter-spacing:0px;baseline-shift:baseline;shape-inside:url(#rect187);display:inline"
       id="path1697" />
    <path
       d="m 77.871828,19.727118 h -2.31 V 9.5071182 h 2.66 v 3.9479998 q 0.308,-0.602 0.896,-0.91 0.602,-0.322 1.4,-0.322 0.896,0 1.61,0.504 0.714,0.49 1.12,1.372 0.42,0.882 0.42,1.974 0,1.078 -0.448,1.946 -0.434,0.868 -1.218,1.358 -0.784,0.49 -1.75,0.49 -0.826,0 -1.428,-0.322 -0.602,-0.336 -0.952,-0.966 z m 3.066,-3.64 q 0,-0.672 -0.392,-1.148 -0.378,-0.476 -0.952,-0.476 -0.42,0 -0.798,0.308 -0.378,0.294 -0.574,0.784 v 1.316 q 0.532,0.756 1.26,0.756 0.658,0 1.05,-0.42 0.406,-0.434 0.406,-1.12 z"
       style="font-weight:900;font-family:Raleway;-inkscape-font-specification:'Raleway, Heavy';font-variant-numeric:lining-nums;letter-spacing:0px;baseline-shift:baseline;shape-inside:url(#rect187);display:inline"
       id="path1699" />
    <path
       d="m 89.887824,9.7311182 q 1.4,0 2.464,0.5879998 1.078,0.588 1.61,1.582 l -2.086,1.484 q -0.266,-0.658 -0.826,-0.938 -0.56,-0.294 -1.218,-0.294 -0.742,0 -1.26,0.378 -0.504,0.378 -0.756,0.98 -0.238,0.588 -0.238,1.246 0,0.7 0.28,1.302 0.28,0.602 0.798,0.966 0.518,0.364 1.204,0.364 0.63,0 1.176,-0.294 0.56,-0.308 0.798,-0.924 l 2.226,1.33 q -0.28,0.7 -0.966,1.232 -0.672,0.518 -1.554,0.798 -0.868,0.28 -1.736,0.28 -1.414,0 -2.562,-0.742 -1.148,-0.742 -1.792,-1.918 -0.644,-1.19 -0.644,-2.478 0,-1.246 0.616,-2.38 0.63,-1.134 1.778,-1.848 1.162,-0.7139998 2.688,-0.7139998 z"
       style="font-weight:900;font-family:Raleway;-inkscape-font-specification:'Raleway, Heavy';font-variant-numeric:lining-nums;letter-spacing:0px;baseline-shift:baseline;shape-inside:url(#rect187);display:inline"
       id="path1701" />
    <path
       d="m 94.367837,16.045118 q 0,-1.036 0.462,-1.904 0.476,-0.882 1.386,-1.4 0.91,-0.518 2.184,-0.518 1.274,0 2.184003,0.518 0.91,0.518 1.372,1.4 0.476,0.868 0.476,1.904 0,1.036 -0.476,1.904 -0.462,0.868 -1.372,1.4 -0.910003,0.518 -2.184003,0.518 -1.274,0 -2.184,-0.518 -0.91,-0.532 -1.386,-1.4 -0.462,-0.868 -0.462,-1.904 z m 4.032,1.582 q 0.574,0 0.938,-0.42 0.364,-0.434 0.364,-1.162 0,-0.728 -0.364,-1.148 -0.364,-0.434 -0.938,-0.434 -0.574,0 -0.938,0.434 -0.364,0.42 -0.364,1.148 0,0.728 0.364,1.162 0.364,0.42 0.938,0.42 z"
       style="font-weight:900;font-family:Raleway;-inkscape-font-specification:'Raleway, Heavy';font-variant-numeric:lining-nums;letter-spacing:0px;baseline-shift:baseline;shape-inside:url(#rect187);display:inline"
       id="path1703" />
    <path
       d="m 108.11584,19.727118 v -4.144 q 0,-0.518 -0.238,-0.77 -0.224,-0.266 -0.574,-0.266 -0.35,0 -0.728,0.308 -0.378,0.294 -0.546,0.742 v 4.13 h -2.66 v -7.364 h 2.394 v 1.092 q 0.392,-0.602 1.106,-0.91 0.714,-0.322 1.666,-0.322 1.33,0 1.778,0.798 0.462,0.798 0.462,1.862 v 4.844 z"
       style="font-weight:900;font-family:Raleway;-inkscape-font-specification:'Raleway, Heavy';font-variant-numeric:lining-nums;letter-spacing:0px;baseline-shift:baseline;shape-inside:url(#rect187);display:inline"
       id="path1705" />
    <path
       d="m 112.58185,15.219118 h -0.91 v -2.002 h 0.91 v -0.798 q 0,-0.91 0.336,-1.596 0.336,-0.7 0.938,-1.0779998 0.616,-0.378 1.428,-0.378 0.938,0 2.044,0.42 l -0.448,2.0159998 q -0.546,-0.196 -0.994,-0.196 -0.644,0 -0.644,0.714 v 0.896 h 1.61 v 2.002 h -1.61 v 4.508 h -2.66 z"
       style="font-weight:900;font-family:Raleway;-inkscape-font-specification:'Raleway, Heavy';font-variant-numeric:lining-nums;letter-spacing:0px;baseline-shift:baseline;shape-inside:url(#rect187);display:inline"
       id="path1707" />
    <path
       d="m 56.843844,31.948405 q 0,-1.274 0.126,-2.002 0.14,-0.742 0.532,-1.288 0.406,-0.546 1.246,-1.064 l 0.658,-0.378 q 0.686,-0.392 1.078,-0.658 0.406,-0.266 0.686,-0.63 0.28,-0.364 0.28,-0.826 0,-0.448 -0.266,-0.644 -0.252,-0.21 -0.644,-0.21 -0.518,0 -1.078,0.294 -0.546,0.28 -0.98,0.714 l -1.638,-1.778 q 0.602,-0.672 1.68,-1.12 1.092,-0.462 2.394,-0.462 1.694,0 2.632,0.812 0.938,0.798 0.938,2.212 0,1.022 -0.504,1.778 -0.504,0.742 -1.47,1.358 -1.736,1.092 -2.296,1.512 h 4.284 v 2.38 z"
       style="font-weight:900;font-family:Raleway;-inkscape-font-specification:'Raleway, Heavy';font-variant-numeric:lining-nums;letter-spacing:0px;baseline-shift:baseline;shape-inside:url(#rect187);display:inline"
       id="path1709" />
    <path
       d="m 68.827851,32.018405 q -1.064,0 -1.904,-0.266 -0.84,-0.28 -1.498,-0.854 l 1.358,-1.932 q 0.406,0.322 0.854,0.476 0.462,0.14 1.05,0.14 0.714,0 1.036,-0.21 0.336,-0.224 0.336,-0.7 0,-0.518 -0.42,-0.756 -0.42,-0.238 -1.372,-0.238 h -0.434 v -1.848 h 0.49 q 0.672,0 1.078,-0.266 0.406,-0.266 0.406,-0.7 0,-0.336 -0.238,-0.518 -0.238,-0.196 -0.672,-0.196 -0.49,0 -0.924,0.252 -0.42,0.252 -0.742,0.728 l -1.68,-1.974 q 0.49,-0.56 1.498,-0.91 1.022,-0.35 2.156,-0.35 1.022,0 1.806,0.308 0.784,0.308 1.218,0.868 0.434,0.56 0.434,1.288 0,0.826 -0.518,1.484 -0.518,0.658 -1.288,0.798 0.868,0.154 1.414,0.854 0.546,0.7 0.546,1.666 0,0.882 -0.49,1.526 -0.476,0.644 -1.386,0.994 -0.896,0.336 -2.114,0.336 z"
       style="font-weight:900;font-family:Raleway;-inkscape-font-specification:'Raleway, Heavy';font-variant-numeric:lining-nums;letter-spacing:0px;baseline-shift:baseline;shape-inside:url(#rect187);display:inline"
       id="path1711" />
  </g>
  <text
     xml:space="preserve"
     id="text1404"
     style="font-size:18px;line-height:15.4286px;letter-spacing:-0.15px;word-spacing:-3px;white-space:pre;shape-inside:url(#rect1406);display:none;fill:#000000"
     transform="translate(-53.40361,-8.3815824)"
     inkscape:label="debconf text bigger"
     sodipodi:insensitive="true" />
  <g
     aria-label="Deb Conf 23"
     transform="translate(-53.540844,-8.4608274)"
     id="text1478"
     style="font-size:18px;line-height:15.4286px;letter-spacing:-0.15px;word-spacing:-3px;white-space:pre;shape-inside:url(#rect1480);display:inline;fill:#000000"
     inkscape:label="debconf path bigger">
    <path
       d="m 57.437844,9.8641442 h 4.914 q 2.052,0 3.51,0.8459998 1.458,0.828 2.196,2.286 0.738,1.44 0.738,3.24 0,1.908 -0.81,3.366 -0.792,1.458 -2.25,2.25 -1.458,0.792 -3.384,0.792 h -4.914 z m 3.51,3.0599998 v 6.66 h 1.404 q 1.35,0 2.106,-0.936 0.774,-0.936 0.774,-2.412 0,-1.494 -0.774,-2.394 -0.774,-0.918 -2.106,-0.918 z"
       style="font-weight:900;font-family:Raleway;-inkscape-font-specification:'Raleway, Heavy';font-variant-numeric:lining-nums;baseline-shift:baseline;shape-inside:url(#rect187);display:inline;fill:#cc0033;fill-opacity:1"
       id="path1488" />
    <path
       d="m 74.603837,22.824144 q -1.602,0 -2.79,-0.648 -1.17,-0.666 -1.782,-1.746 -0.612,-1.098 -0.612,-2.394 0,-1.404 0.594,-2.538 0.612,-1.152 1.782,-1.818 1.17,-0.684 2.808,-0.684 1.638,0 2.808,0.666 1.17,0.666 1.764,1.8 0.612,1.116 0.612,2.448 0,0.558 -0.09,1.044 h -6.642 q 0.054,0.702 0.522,1.062 0.486,0.36 1.134,0.36 0.576,0 1.062,-0.252 0.486,-0.27 0.648,-0.702 l 2.898,0.828 q -0.612,1.17 -1.836,1.872 -1.206,0.702 -2.88,0.702 z m 1.512,-5.922 q -0.072,-0.684 -0.504,-1.08 -0.414,-0.396 -1.062,-0.396 -0.648,0 -1.08,0.396 -0.414,0.396 -0.486,1.08 z"
       style="font-weight:900;font-family:Raleway;-inkscape-font-specification:'Raleway, Heavy';font-variant-numeric:lining-nums;baseline-shift:baseline;shape-inside:url(#rect187);display:inline;fill:#cc0033;fill-opacity:1"
       id="path1490" />
    <path
       d="m 83.723824,22.644144 h -2.97 V 9.5041442 h 3.42 v 5.0759998 q 0.396,-0.774 1.152,-1.17 0.774,-0.414 1.8,-0.414 1.152,0 2.07,0.648 0.918,0.63 1.44,1.764 0.54,1.134 0.54,2.538 0,1.386 -0.576,2.502 -0.558,1.116 -1.566,1.746 -1.008,0.63 -2.25,0.63 -1.062,0 -1.836,-0.414 -0.774,-0.432 -1.224,-1.242 z m 3.942,-4.68 q 0,-0.864 -0.504,-1.476 -0.486,-0.612 -1.224,-0.612 -0.54,0 -1.026,0.396 -0.486,0.378 -0.738,1.008 v 1.692 q 0.684,0.972 1.62,0.972 0.846,0 1.35,-0.54 0.522,-0.558 0.522,-1.44 z"
       style="font-weight:900;font-family:Raleway;-inkscape-font-specification:'Raleway, Heavy';font-variant-numeric:lining-nums;baseline-shift:baseline;shape-inside:url(#rect187);display:inline;fill:#cc0033;fill-opacity:1"
       id="path1492" />
    <path
       d="m 99.21582,9.7921442 q 1.8,0 3.168,0.7559998 1.386,0.756 2.07,2.034 l -2.682,1.908 q -0.342,-0.846 -1.062,-1.206 -0.72,-0.378 -1.566,-0.378 -0.954,0 -1.62,0.486 -0.648,0.486 -0.972,1.26 -0.306,0.756 -0.306,1.602 0,0.9 0.36,1.674 0.36,0.774 1.026,1.242 0.666,0.468 1.548,0.468 0.81,0 1.512,-0.378 0.72,-0.396 1.026,-1.188 l 2.862,1.71 q -0.36,0.9 -1.242,1.584 -0.864,0.666 -1.998,1.026 -1.116,0.36 -2.232,0.36 -1.818,0 -3.294,-0.954 -1.476,-0.954 -2.304,-2.466 -0.828,-1.53 -0.828,-3.186 0,-1.602 0.792,-3.06 0.81,-1.458 2.286,-2.376 1.494,-0.9179998 3.456,-0.9179998 z"
       style="font-weight:900;font-family:Raleway;-inkscape-font-specification:'Raleway, Heavy';font-variant-numeric:lining-nums;baseline-shift:baseline;shape-inside:url(#rect187);display:inline;fill:#cc0033;fill-opacity:1"
       id="path1494" />
    <path
       d="m 104.82583,17.910144 q 0,-1.332 0.594,-2.448 0.612,-1.134 1.782,-1.8 1.17,-0.666 2.808,-0.666 1.638,0 2.808,0.666 1.17,0.666 1.764,1.8 0.612,1.116 0.612,2.448 0,1.332 -0.612,2.448 -0.594,1.116 -1.764,1.8 -1.17,0.666 -2.808,0.666 -1.638,0 -2.808,-0.666 -1.17,-0.684 -1.782,-1.8 -0.594,-1.116 -0.594,-2.448 z m 5.184,2.034 q 0.738,0 1.206,-0.54 0.468,-0.558 0.468,-1.494 0,-0.936 -0.468,-1.476 -0.468,-0.558 -1.206,-0.558 -0.738,0 -1.206,0.558 -0.468,0.54 -0.468,1.476 0,0.936 0.468,1.494 0.468,0.54 1.206,0.54 z"
       style="font-weight:900;font-family:Raleway;-inkscape-font-specification:'Raleway, Heavy';font-variant-numeric:lining-nums;baseline-shift:baseline;shape-inside:url(#rect187);display:inline;fill:#cc0033;fill-opacity:1"
       id="path1496" />
    <path
       d="m 122.35184,22.644144 v -5.328 q 0,-0.666 -0.306,-0.99 -0.288,-0.342 -0.738,-0.342 -0.45,0 -0.936,0.396 -0.486,0.378 -0.702,0.954 v 5.31 h -3.42 v -9.468 h 3.078 v 1.404 q 0.504,-0.774 1.422,-1.17 0.918,-0.414 2.142,-0.414 1.71,0 2.286,1.026 0.594,1.026 0.594,2.394 v 6.228 z"
       style="font-weight:900;font-family:Raleway;-inkscape-font-specification:'Raleway, Heavy';font-variant-numeric:lining-nums;baseline-shift:baseline;shape-inside:url(#rect187);display:inline;fill:#cc0033;fill-opacity:1"
       id="path1498" />
    <path
       d="m 127.94384,16.848144 h -1.17 v -2.574 h 1.17 v -1.026 q 0,-1.17 0.432,-2.052 0.432,-0.9 1.206,-1.3859998 0.792,-0.486 1.836,-0.486 1.206,0 2.628,0.54 l -0.576,2.5919998 q -0.702,-0.252 -1.278,-0.252 -0.828,0 -0.828,0.918 v 1.152 h 2.07 v 2.574 h -2.07 v 5.796 h -3.42 z"
       style="font-weight:900;font-family:Raleway;-inkscape-font-specification:'Raleway, Heavy';font-variant-numeric:lining-nums;baseline-shift:baseline;shape-inside:url(#rect187);display:inline;fill:#cc0033;fill-opacity:1"
       id="path1500" />
    <path
       d="m 56.987844,38.357256 q 0,-1.638 0.162,-2.574 0.18,-0.954 0.684,-1.656 0.522,-0.702 1.602,-1.368 l 0.846,-0.486 q 0.882,-0.504 1.386,-0.846 0.522,-0.342 0.882,-0.81 0.36,-0.468 0.36,-1.062 0,-0.576 -0.342,-0.828 -0.324,-0.27 -0.828,-0.27 -0.666,0 -1.386,0.378 -0.702,0.36 -1.26,0.918 l -2.106,-2.286 q 0.774,-0.864 2.16,-1.44 1.404,-0.594 3.078,-0.594 2.178,0 3.384,1.044 1.206,1.026 1.206,2.844 0,1.314 -0.648,2.286 -0.648,0.954 -1.89,1.746 -2.232,1.404 -2.952,1.944 h 5.508 v 3.06 z"
       style="font-weight:900;font-family:Raleway;-inkscape-font-specification:'Raleway, Heavy';font-variant-numeric:lining-nums;baseline-shift:baseline;shape-inside:url(#rect187);display:inline;fill:#cc0033;fill-opacity:1"
       id="path1502" />
    <path
       d="m 72.245853,38.447256 q -1.368,0 -2.448,-0.342 -1.08,-0.36 -1.926,-1.098 l 1.746,-2.484 q 0.522,0.414 1.098,0.612 0.594,0.18 1.35,0.18 0.918,0 1.332,-0.27 0.432,-0.288 0.432,-0.9 0,-0.666 -0.54,-0.972 -0.54,-0.306 -1.764,-0.306 h -0.558 v -2.376 h 0.63 q 0.864,0 1.386,-0.342 0.522,-0.342 0.522,-0.9 0,-0.432 -0.306,-0.666 -0.306,-0.252 -0.864,-0.252 -0.63,0 -1.188,0.324 -0.54,0.324 -0.954,0.936 l -2.16,-2.538 q 0.63,-0.72 1.926,-1.17 1.314,-0.45 2.772,-0.45 1.314,0 2.322,0.396 1.008,0.396 1.566,1.116 0.558,0.72 0.558,1.656 0,1.062 -0.666,1.908 -0.666,0.846 -1.656,1.026 1.116,0.198 1.818,1.098 0.702,0.9 0.702,2.142 0,1.134 -0.63,1.962 -0.612,0.828 -1.782,1.278 -1.152,0.432 -2.718,0.432 z"
       style="font-weight:900;font-family:Raleway;-inkscape-font-specification:'Raleway, Heavy';font-variant-numeric:lining-nums;baseline-shift:baseline;shape-inside:url(#rect187);display:inline;fill:#cc0033;fill-opacity:1"
       id="path1504" />
  </g>
  <text
     xml:space="preserve"
     id="text185-3"
     style="font-size:8px;line-height:8px;letter-spacing:0.1px;word-spacing:0px;white-space:pre;shape-inside:url(#rect187-2);display:none;fill:#cc0033;fill-opacity:1"
     transform="translate(-14.14484,106.6508)"
     inkscape:label="(extras) kochi - india text"
     sodipodi:insensitive="true" />
</svg>
