<?xml version="1.0" encoding="UTF-8" standalone="no"?>
<!-- Generator: Adobe Illustrator 28.2.0, SVG Export Plug-In . SVG Version: 6.00 Build 0)  -->

<svg
   version="1.1"
   id="레이어_1"
   x="0px"
   y="0px"
   viewBox="0 0 5669.3435 4067.758"
   xml:space="preserve"
   sodipodi:docname="DebConf24logo_CMYK.svg"
   width="5669.3433"
   height="4067.7581"
   inkscape:version="1.2.2 (b0a8486541, 2022-12-01)"
   xmlns:inkscape="http://www.inkscape.org/namespaces/inkscape"
   xmlns:sodipodi="http://sodipodi.sourceforge.net/DTD/sodipodi-0.dtd"
   xmlns="http://www.w3.org/2000/svg"
   xmlns:svg="http://www.w3.org/2000/svg"><defs
   id="defs21" /><sodipodi:namedview
   id="namedview19"
   pagecolor="#ffffff"
   bordercolor="#000000"
   borderopacity="0.25"
   inkscape:showpageshadow="2"
   inkscape:pageopacity="0.0"
   inkscape:pagecheckerboard="0"
   inkscape:deskcolor="#d1d1d1"
   showgrid="false"
   inkscape:zoom="0.13320915"
   inkscape:cx="1906.7759"
   inkscape:cy="1523.9193"
   inkscape:window-width="1920"
   inkscape:window-height="1131"
   inkscape:window-x="0"
   inkscape:window-y="0"
   inkscape:window-maximized="1"
   inkscape:current-layer="레이어_1" />
<style
   type="text/css"
   id="style2">
	.st0{fill-rule:evenodd;clip-rule:evenodd;fill:#E60012;}
	.st1{fill-rule:evenodd;clip-rule:evenodd;fill:#3071B9;}
	.st2{fill-rule:evenodd;clip-rule:evenodd;fill:#231815;}
	.st3{fill-rule:evenodd;clip-rule:evenodd;fill:#FFFFFF;}
</style>






<g
   id="g269"
   transform="translate(0.02279758,-1559.0037)"><path
     class="st0"
     d="m 2140.3,4592.2 c 0,0 -902.4,-274.2 -956.5,-1255.7 -55.4,-1006 622.4,-1705.6 1620.1,-1774.3 936.7,-64.5 1419.6,861.7 1277,1466 -142.6,604.2 -654.8,1044.1 -1281,978.3 -251.7,-26.5 -441.9,-121.7 -575.4,-257.9 -200.2,-204.3 -273.2,-501.5 -233.2,-800.8 49.5,-371 446.2,-631.3 817.6,-560.5 387.2,73.8 576.5,448.8 396.2,718.8 -51.5,77.1 -145.1,136.9 -225.3,159.8 -117.5,33.6 -230.4,24.6 -230.4,24.6 -10.3,-0.8 -18.2,-9.6 -17.9,-19.9 l 2.6,-99.7 c 0.3,-10.1 8.2,-18.3 18.2,-18.9 0,0 77.8,-5 159.2,-36.3 52.8,-20.3 107.4,-51.6 142,-100.7 32.9,-46.9 29.5,-111 -1.9,-171 -49.9,-95.6 -170.4,-180.2 -340,-178.7 -142,1.2 -251.1,52.4 -320.6,138.7 -70,86.8 -99.8,208.4 -84.7,348.4 30.3,280.9 340.2,530.6 621.9,507.3 453.5,-37.6 848.1,-286.2 815.4,-904.1 -16.4,-309.1 -139.2,-534.7 -332.7,-670.2 -194.1,-136 -458.6,-181.2 -755.7,-131 -298.6,50.4 -587.6,246.2 -798.5,496 -210.5,249.3 -308.7,519.4 -294.3,820.9 21.2,443.5 176.3,847.5 632.6,1220.1 0,0 10,7.7 6.1,21.5 -1.8,6.3 -10.9,37.6 -10.9,37.6 -0.8,2.8 -2.2,5.3 -4.1,7.5 l -25.6,28.7 c -5,5.5 -12.9,7.8 -20.2,5.5 z"
     id="path4" /><g
     id="g258"><path
       class="st1"
       d="m 921.8,5346.3 c 0,0 68,-280.8 589.7,-354 521.8,-73.3 797,291 1761.3,275.5 964.2,-15.5 1649.3,-274.6 1980.6,-270.8 331.4,3.9 227.2,126 188.5,194.5 -38.7,68.5 9.3,140.3 -250.9,155.8 -260.2,15.4 -953.5,273 -1952.6,279.4 -999.1,6.4 -1438.3,-487.4 -1849.5,-461.3 -411.2,26.1 -467.1,180.9 -467.1,180.9 z"
       id="path6" /><path
       class="st1"
       d="m 0,4744.1 c -0.6,17.9 10.7,38.5 27.2,41.1 16.5,2.6 142.8,-175.4 376,-188.7 572,-32.5 813.6,165.6 1216.1,175.8 402.5,10.3 579.4,-94.4 617.3,-129.6 37.9,-35.2 66.3,-142.5 40.1,-165.7 -26.2,-23.1 -340.3,114.5 -796.8,114.5 C 1023.4,4591.5 861,4467 500.4,4467 139.8,4467 0.7,4726.2 0,4744.1 Z"
       id="path8" /><path
       class="st1"
       d="m 3703.3,4562.2 c 4.4,-21.1 166,-156.3 515.7,-156.3 349.7,0 398.5,150 817.7,119 419.2,-30.9 483.8,-130.4 576.4,-114.4 92.5,16 45.5,69.2 34.7,93.9 -10.9,24.7 -36.3,69.4 -63.6,88.3 -27.3,18.9 -259.2,148.5 -571.8,148.5 -312.6,0 -735.6,-198.4 -991.7,-198.4 -256.1,0 -259.2,63 -289.9,53.7 -30.8,-9.2 -31.9,-13.1 -27.5,-34.3 z"
       id="path10" /></g><g
     id="g253"><path
       class="st2"
       d="m 2544.1,4497.1 c 0,0 42.2,-23.6 79.6,-52.4 21.2,-16.3 41.8,-33.3 47.6,-48.8 21.4,-57.2 90.5,-107.1 147.9,-111.2 43.3,-3.1 80.7,13.6 129,49.6 9.1,-28.1 25.7,-58.3 51.1,-90.7 56.9,-72.5 160.1,-158.4 322.9,-259.3 271.2,-167.9 643,-167.6 643,-167.6 8.6,0 16.7,3.8 22.1,10.4 l 17.1,20.8 c 6,7.3 8,17 5.4,26 -2.5,9 -9.4,16.3 -18.3,19.3 0,0 -354.3,120.4 -495.7,240.8 -132.1,112.5 -97,268.7 -64,355 34.5,90.1 162.3,216.7 394.2,308 7.9,3.1 13.9,9.5 16.7,17.5 2.7,8 1.8,16.7 -2.6,24 -39.3,65.2 -87.8,126.6 -131.3,181.8 -5.9,7.5 -15.3,11.6 -24.8,10.8 -9.6,-0.8 -18.1,-6.3 -22.8,-14.6 -19,-34.2 -65.1,-73 -120,-112.4 -87.8,-63 -198.4,-125.3 -271.3,-167.1 -115.7,-66.3 -198.6,-98.7 -335.2,-82.8 -131.2,45 -245.7,-45.4 -271.7,-75.2 -2.4,-2.8 -6.8,-4.6 -11.8,-6.7 -8.3,-3.6 -18.2,-6.7 -28.3,-9.3 -32.8,-8.5 -67.9,-12.4 -67.9,-12.4 -12.4,-1.4 -22.5,-10.6 -25,-22.8 -2.5,-12.2 3.3,-24.6 14.1,-30.7 z"
       id="path12" /><path
       class="st3"
       d="m 3528.8,3950.2 c -60.3,21.2 -120.5,48.2 -176.4,82.8 -154.9,96 -253.9,176.9 -308,245.9 -31.9,40.7 -47.6,76.1 -47.6,107.7 0,11.1 -6.5,21.2 -16.5,25.9 -10.1,4.7 -21.9,3.2 -30.5,-3.9 -52.8,-43.8 -84.8,-69.8 -126.5,-66.8 -38.2,2.7 -84.1,36.1 -98.3,74.2 -6.6,17.6 -23.9,38.4 -46.1,57.7 -13.5,11.7 -28.7,23.1 -43.4,33.4 7,1.8 13.9,3.7 20.5,5.9 22.3,7.3 40.9,17.5 50.3,28.4 20.2,23.2 109.8,94.5 212.2,57.8 2,-0.7 4.1,-1.2 6.2,-1.5 152.8,-18.5 245,15.9 373.7,89.6 36.3,20.8 81.9,46.7 129.5,75.2 l 72.2,-92.5 c -64,-57.2 -103.9,-113.8 -121.8,-160.4 -39.1,-102.1 -75.9,-286.1 80.3,-419.1 27.2,-23.2 62,-46.4 100.6,-68.8 z"
       id="path14" /><path
       class="st2"
       d="m 2826,4456.4 c -4.8,15.1 -20.9,23.5 -35.9,18.7 -15.1,-4.7 -23.5,-20.8 -18.7,-35.9 l 6.6,-20.9 c 4.8,-15.1 20.9,-23.5 36,-18.7 15.1,4.8 23.5,20.8 18.7,35.9 z"
       id="path16" /></g></g>
</svg>
