<?xml version="1.0" encoding="UTF-8" standalone="no"?>
<!-- Created with Inkscape (http://www.inkscape.org/) -->
<svg
   xmlns:dc="http://purl.org/dc/elements/1.1/"
   xmlns:cc="http://web.resource.org/cc/"
   xmlns:rdf="http://www.w3.org/1999/02/22-rdf-syntax-ns#"
   xmlns:svg="http://www.w3.org/2000/svg"
   xmlns="http://www.w3.org/2000/svg"
   xmlns:sodipodi="http://sodipodi.sourceforge.net/DTD/sodipodi-0.dtd"
   xmlns:inkscape="http://www.inkscape.org/namespaces/inkscape"
   width="744.09448819"
   height="1052.3622047"
   id="svg2005"
   sodipodi:version="0.32"
   inkscape:version="0.44.1"
   sodipodi:docbase="/home/moray/projects/debian/debconf-data/media.debconf.org/dc7"
   sodipodi:docname="logo.svg">
  <defs
     id="defs2007" />
  <sodipodi:namedview
     id="base"
     pagecolor="#ffffff"
     bordercolor="#666666"
     borderopacity="1.0"
     gridtolerance="10000"
     guidetolerance="10"
     objecttolerance="10"
     inkscape:pageopacity="0.0"
     inkscape:pageshadow="2"
     inkscape:zoom="0.35"
     inkscape:cx="375"
     inkscape:cy="520"
     inkscape:document-units="px"
     inkscape:current-layer="layer1"
     inkscape:window-width="859"
     inkscape:window-height="608"
     inkscape:window-x="23"
     inkscape:window-y="88" />
  <metadata
     id="metadata2010">
    <rdf:RDF>
      <cc:Work
         rdf:about="">
        <dc:format>image/svg+xml</dc:format>
        <dc:type
           rdf:resource="http://purl.org/dc/dcmitype/StillImage" />
      </cc:Work>
    </rdf:RDF>
  </metadata>
  <g
     inkscape:label="Layer 1"
     inkscape:groupmode="layer"
     id="layer1">
    <g
       id="g3159"
       transform="translate(160.1844,57.23617)">
      <g
         inkscape:export-ydpi="90"
         inkscape:export-xdpi="90"
         inkscape:export-filename="/var/www/morayallan/temp/dc7logo-valessio.png"
         id="g2093">
        <path
           style="fill:black"
           d="M 255.90325,92.227451 C 255.00667,92.227451 254.83018,93.15939 254.964,97.667306 C 255.05294,100.66296 255.25133,103.36516 255.39448,103.65506 C 255.53765,103.94496 255.97001,104.20298 256.33375,104.20297 C 256.69746,104.20295 256.99905,101.50077 256.99905,98.215194 C 256.99905,93.302399 256.79413,92.22748 255.90325,92.227451 z M 284.74622,103.45938 C 283.88726,103.45938 283.68952,104.64549 283.68953,109.79936 C 283.68956,114.95315 283.8872,116.13933 284.74622,116.13932 C 285.6052,116.13933 285.76375,114.95314 285.76374,109.79936 C 285.76372,104.64552 285.60514,103.45938 284.74622,103.45938 z M 227.64733,103.57679 C 226.88843,103.63252 226.7472,104.71853 226.7472,109.408 C 226.7472,115.00455 226.86324,115.43486 228.19523,115.43489 C 229.53919,115.43487 229.6389,115.06952 229.44756,109.64281 C 229.27625,104.78336 229.03175,103.81318 227.99956,103.61593 C 227.8628,103.5898 227.75575,103.56883 227.64733,103.57679 z M 255.9424,105.61183 C 255.13293,105.61183 253.22549,106.84431 251.71574,108.39048 L 248.93711,111.20824 L 255.9424,111.20824 L 262.90853,111.20824 L 260.1299,108.39048 C 258.62015,106.8443 256.75183,105.61186 255.9424,105.61183 z M 245.02354,112.61711 L 245.02354,116.02191 C 245.02354,118.53443 245.39527,119.74042 246.43243,120.67906 C 247.70911,121.83439 247.84135,122.83853 247.84132,131.67617 L 247.84132,141.42094 L 256.25548,141.42094 L 264.70877,141.42094 L 264.70877,131.5979 C 264.70876,122.50279 264.81506,121.72838 266.11765,121.03127 C 267.25999,120.41991 267.52655,119.57374 267.52653,116.45241 L 267.52653,112.61711 L 264.70877,112.61711 C 262.17871,112.61712 261.93014,112.79694 261.93014,114.37822 C 261.93015,115.47146 261.49031,116.13933 260.83435,116.13932 C 260.24867,116.13933 259.77765,115.51131 259.77768,114.73045 C 259.77767,113.51482 259.33186,113.32157 256.33375,113.32157 C 253.48438,113.32154 252.74772,113.5751 252.38104,114.73045 C 251.73621,116.76215 249.95465,116.50206 249.95464,114.37822 C 249.95465,112.83878 249.64437,112.61711 247.48909,112.61711 L 245.02354,112.61711 z M 284.43312,116.84377 C 283.34721,116.84379 277.34958,122.30871 277.34958,123.30115 C 277.34958,123.60722 280.7229,123.8882 284.86361,123.88818 L 292.4168,123.88818 L 288.97286,120.36598 C 287.06922,118.43333 285.01283,116.84374 284.43312,116.84377 z M 228.19523,116.92204 C 226.88632,116.87297 225.56464,117.7545 223.81205,119.46585 C 222.34622,120.89719 221.15081,122.28861 221.15082,122.59671 C 221.15082,122.90476 224.29071,123.14462 228.1561,123.14461 C 232.02147,123.14461 235.1614,123.03877 235.16138,122.90978 C 235.16138,122.78084 233.94779,121.38938 232.46102,119.77894 C 230.7616,117.93815 229.50412,116.97111 228.19523,116.92204 z M 219.31144,124.55348 C 217.33807,124.55348 216.91303,124.84574 216.84591,126.15805 C 216.68571,129.2881 217.06388,130.53143 218.76355,132.10665 C 220.27672,133.50907 220.46314,134.12072 220.05502,136.84207 C 219.79877,138.55096 219.83087,140.29049 220.09417,140.7165 C 220.41036,141.22809 223.32465,141.39487 228.74314,141.26439 L 236.96161,141.06872 L 237.15729,137.11601 C 237.30727,134.26517 237.73478,132.80505 238.72272,131.91098 C 239.68341,131.04155 240.09245,129.74291 240.09246,127.60606 L 240.09246,124.55348 L 237.3921,124.55348 C 235.25396,124.55348 234.54926,124.86118 234.26126,125.96237 C 234.05911,126.73543 233.5461,127.37124 233.08719,127.37124 C 232.62827,127.37124 232.11531,126.73544 231.91311,125.96237 C 231.6104,124.80476 230.91505,124.55352 228.1561,124.55348 C 225.39712,124.55348 224.74093,124.80476 224.43822,125.96237 C 224.23603,126.73543 223.72307,127.37124 223.26415,127.37124 C 222.80523,127.37124 222.25311,126.73544 222.05094,125.96237 C 221.77474,124.90614 221.0982,124.55352 219.31144,124.55348 z M 256.33375,124.94484 C 257.25542,124.6631 257.65469,126.90092 257.66436,132.10665 C 257.67286,136.69141 257.44759,137.89875 256.64682,137.89872 C 256.08983,137.89871 255.4636,137.63765 255.23794,137.27255 C 254.42717,135.9607 254.74179,126.64038 255.6293,125.571 C 255.9002,125.2446 256.12107,125.00987 256.33375,124.94484 z M 275.94069,125.29707 C 274.39456,125.29707 273.12746,125.5159 273.08379,125.80582 C 272.56959,129.21924 272.83359,131.18153 274.02304,132.69369 C 275.51589,134.59155 275.81974,135.67538 275.90156,139.15108 L 275.94069,141.42094 L 284.39399,141.42094 L 292.84728,141.42094 L 292.84728,137.8596 C 292.84727,135.16532 293.17494,134.00305 294.21703,133.12419 C 295.72673,131.8509 296.45727,128.98719 295.86072,126.70593 C 295.57218,125.60259 294.89265,125.29708 293.08211,125.29707 C 291.43702,125.29707 290.69481,125.58524 290.69482,126.31459 C 290.69482,126.90025 290.06682,127.37124 289.28594,127.37124 C 288.50505,127.37124 287.91621,126.90025 287.91619,126.31459 C 287.91621,125.52116 287.06041,125.29708 284.47226,125.29707 C 282.06389,125.29707 280.8811,125.57628 280.59784,126.31459 C 280.37534,126.8944 279.90069,127.37124 279.50205,127.37124 C 279.10335,127.37124 278.75849,126.8944 278.75846,126.31459 C 278.75846,125.55323 277.97099,125.29708 275.94069,125.29707 z M 262.86939,142.82983 C 261.34873,142.88977 261.18658,143.2515 261.18656,144.94315 C 261.18655,146.34873 260.83268,147.05646 260.1299,147.05647 C 259.42229,147.05649 259.07321,146.34919 259.07324,144.90401 C 259.07323,142.89844 258.93112,142.78124 256.80338,142.98635 C 254.90016,143.16988 254.48398,143.52843 254.29869,145.13882 C 254.17639,146.2018 253.65306,147.05646 253.12463,147.05647 C 252.59617,147.05649 252.03375,146.20181 251.91142,145.13882 C 251.72612,143.52841 251.34907,143.16989 249.44587,142.98635 C 247.3181,142.78121 247.13686,142.89845 247.13688,144.90401 C 247.13688,147.66758 245.22055,147.87147 244.90615,145.13882 C 244.71866,143.50935 244.33564,143.18205 242.55802,143.18205 L 240.44469,143.18205 L 240.249,158.36665 C 240.08852,171.25428 240.24324,173.69956 241.14912,174.45139 C 242.01655,175.17132 242.24495,177.30554 242.24492,185.80072 L 242.24492,191.00577 C 243.83537,190.77414 245.46982,190.57444 247.13688,190.41875 L 247.13688,183.64826 L 247.13688,171.04659 L 251.40266,165.72416 C 253.75324,162.8022 255.89439,160.40173 256.17721,160.40172 C 256.99805,160.40172 260.1001,163.92492 263.22162,168.42452 L 266.11765,172.61203 L 266.11765,184.43099 L 266.11765,190.37961 C 267.55952,190.50797 268.95799,190.62476 270.3443,190.81009 L 270.50084,186.03555 C 270.7877,177.58531 271.02014,175.66788 271.98799,174.96016 C 273.02838,174.19941 273.13527,172.42871 272.96639,158.67974 L 272.80985,143.18205 L 270.69653,143.18205 C 268.90793,143.18202 268.54043,143.50307 268.34838,145.17796 C 268.06713,147.63065 266.57929,147.28566 266.27419,144.70833 C 266.08145,143.0801 265.70456,142.82983 263.61298,142.82983 C 263.33639,142.82983 263.08663,142.82125 262.86939,142.82983 z M 220.09417,143.18205 L 220.05502,157.27086 C 220.0379,165.00158 220.27251,171.87817 220.60292,172.57289 C 221.13498,173.69143 221.96703,173.80846 227.68647,173.51216 C 231.23857,173.32815 234.87102,173.10917 235.74841,173.08165 L 237.31385,173.04253 L 237.15729,158.13184 L 236.96161,143.18205 L 228.50831,143.18205 L 220.09417,143.18205 z M 276.29291,143.18205 L 276.09723,158.48407 L 275.94069,173.74695 L 284.39399,173.74695 L 292.84728,173.74695 L 292.65161,158.48407 L 292.45593,143.18205 L 284.39399,143.18205 L 276.29291,143.18205 z M 228.66487,151.43966 C 228.88169,151.4119 229.09197,151.75874 229.48671,152.49631 C 229.92158,153.30884 230.26944,156.38147 230.26942,159.30592 C 230.26941,164.50904 230.22759,164.62834 228.50831,164.62837 C 226.79346,164.62835 226.76206,164.51377 226.78635,159.54073 C 226.80049,156.64379 227.22949,153.69724 227.76474,152.73114 C 228.23475,151.88275 228.44803,151.46745 228.66487,151.43966 z M 284.12004,152.73114 C 285.15705,152.37244 286.00117,156.81729 285.41152,161.53664 C 285.09364,164.08111 284.61422,165.33279 283.96349,165.33281 C 283.22187,165.33281 282.98509,164.10065 282.98511,160.12776 C 282.98511,157.26035 283.18095,154.39924 283.4156,153.78779 C 283.66498,153.13791 283.88072,152.81391 284.12004,152.73114 z M 225.10353,175.66462 C 221.76179,175.71093 219.41068,175.90604 219.11577,176.2125 C 218.39879,176.95761 218.11817,181.94234 218.25479,190.81009 L 218.33306,198.95335 L 223.57722,196.24995 C 227.96395,194.1702 233.41348,192.48991 239.62283,191.39713 C 239.67363,189.74872 239.72522,188.93655 239.77937,186.54431 C 240.02633,175.63389 240.21617,175.85853 228.704,175.66462 C 227.40022,175.64262 226.21745,175.64916 225.10353,175.66462 z M 279.14982,175.9777 C 273.13063,176.1218 273.16209,177.82477 273.16206,187.01395 C 273.16206,188.58229 273.19607,189.98371 273.24033,191.27973 C 279.76554,192.36809 281.83016,192.66306 288.38095,194.9314 C 293.7161,196.77879 294.79274,197.68812 294.79274,197.68812 L 294.92147,187.20962 C 294.92146,179.75532 294.75568,177.96273 293.82567,177.1909 C 293.06585,176.5603 289.9587,176.21335 284.35485,176.05597 C 282.24734,175.99677 280.53887,175.94444 279.14982,175.9777 z "
           id="path2022"
           sodipodi:nodetypes="cssssccsssccssssccccccccccscccccscccsssssscccscccccsssssccsssscccscccsssssssccssssccsscccccssssssssssccsssssssssscccsccccccsccccccscccssscccssccccccccccccccccsssssccssssccsccccssccscsccssc"
           inkscape:export-filename="/var/www/morayallan/temp/dc7logo-valessio-flipped.png"
           inkscape:export-xdpi="90"
           inkscape:export-ydpi="90" />
        <path
           style="fill:#c40039;fill-opacity:1;stroke:none;stroke-miterlimit:10"
           d="M 153.61848,61.967969 C 151.14714,62.175237 148.65346,62.281033 146.22184,62.594126 L 147.31765,62.75068 C 149.10496,62.096545 151.72232,62.398671 153.61848,61.967969 z "
           id="path2077"
           inkscape:export-filename="/var/www/morayallan/temp/dc7logo-valessio-flipped.png"
           inkscape:export-xdpi="90"
           inkscape:export-ydpi="90" />
        <path
           style="fill:#c40039;fill-opacity:1;stroke:none;stroke-miterlimit:10"
           d="M 142.77791,63.102893 C 138.75902,63.346892 133.19053,65.437 134.91164,63.533391 C 128.35671,66.455685 116.71082,70.522865 110.17794,76.643829 L 109.98227,75.313202 C 106.98871,78.904356 96.929968,86.04252 96.128251,90.693503 L 95.306405,90.850057 C 93.748572,93.485737 92.785057,96.473848 91.549376,99.185932 C 90.021342,101.78779 89.089126,101.27268 88.849016,101.06445 C 88.855322,101.07589 88.840656,101.08788 88.849016,101.10358 C 84.841914,109.22223 82.858957,116.01595 81.139312,121.61066 C 82.364682,123.44076 81.14556,132.6516 81.608945,140.0044 C 80.244644,164.62448 92.481286,188.70251 109.86485,204.22597 C 111.65798,206.69359 113.48169,208.9774 115.42211,210.48765 C 138.42475,231.50746 182.94729,235.85241 212.51758,214.67516 C 212.87291,214.47955 213.25079,214.25641 213.6134,214.04899 C 213.6168,214.05901 213.60999,214.07809 213.6134,214.08814 C 213.71789,214.01022 213.82192,213.93074 213.92647,213.85332 C 214.20967,213.68875 214.46778,213.51612 214.74833,213.34457 C 214.73724,213.31089 214.75928,213.30003 214.74833,213.26628 C 219.57049,209.76467 224.34148,206.93225 227.66308,207.43509 L 230.91132,204.93039 C 232.18789,204.80409 233.37682,204.54869 234.66835,204.57818 L 234.23787,203.7172 C 248.33964,200.02042 237.00875,207.6026 252.31853,204.81299 C 251.62758,204.25081 250.85624,203.67448 248.79631,203.52152 C 249.78761,202.72104 254.06091,202.33426 257.79751,202.69968 L 258.228,201.32992 C 260.88284,201.16955 261.91817,201.87287 263.08081,202.19091 C 258.31385,199.53755 272.73634,201.3498 274.39102,201.29078 L 273.68656,202.62139 C 275.22303,201.52508 278.06114,201.40632 282.37468,201.91695 L 283.50962,203.95201 C 285.57919,203.75429 290.24707,204.86021 291.49328,206.53496 L 292.23685,204.3825 C 296.42626,207.91597 295.49693,205.33172 300.84669,209.54842 L 298.2246,209.70496 C 302.37348,210.95656 304.99089,210.48105 309.29998,213.22716 C 314.61206,217.45024 314.29116,218.6497 319.39698,223.20673 C 316.28101,218.57892 312.86999,212.98127 309.18258,210.0963 C 296.27358,198.23999 276.5677,191.67906 256.50603,191.93737 C 240.90256,192.13832 225.08666,196.48084 212.12624,205.71312 C 212.03921,205.76073 211.93962,205.78211 211.85229,205.83051 C 211.82871,205.79653 211.7976,205.78681 211.77402,205.75225 C 211.48329,205.97443 211.16552,206.15956 210.87389,206.37842 C 209.80366,206.99749 208.76294,207.68927 207.70391,208.37434 C 207.79686,208.41483 207.88603,208.44964 207.97786,208.49173 C 203.83372,211.34227 199.86317,213.42123 196.98074,212.99234 L 193.7325,215.49702 C 192.45628,215.62656 191.26709,215.87547 189.97547,215.84924 L 190.40596,216.67108 C 176.3136,220.40353 187.62796,212.82521 172.3253,215.65356 C 173.01765,216.21399 173.78721,216.75815 175.84751,216.90589 C 174.85823,217.70888 170.58384,218.16198 166.84631,217.80602 L 166.45496,219.17577 C 163.80053,219.34284 162.68732,218.62988 161.52388,218.31479 C 166.29758,220.95612 151.90731,219.15168 150.25282,219.2149 L 150.95726,217.92343 C 149.42357,219.02361 146.54484,219.08846 142.23001,218.58873 L 141.13422,216.59283 C 139.97367,216.70662 137.98212,216.42148 136.24226,215.84924 C 134.34253,214.25721 133.17179,212.52849 130.99808,210.64421 L 132.28956,212.91407 C 125.86701,210.64441 128.55263,210.10632 123.3275,208.45261 L 124.7364,206.65237 C 122.65488,206.49361 119.17839,203.18503 118.23987,201.32992 L 115.97001,201.36907 C 113.23388,197.99548 111.794,195.58297 111.8999,193.69848 L 111.15632,195.0291 C 110.32224,193.59885 101.08331,182.3591 105.87302,184.97123 C 104.98303,184.15836 103.82923,183.62241 102.54649,181.29249 L 103.48574,180.23582 C 101.18063,177.27232 99.268532,173.43953 99.415648,172.17387 C 100.64543,173.83347 101.46731,174.16005 102.31168,174.44375 C 96.490776,160.01155 96.192917,173.62441 91.784199,159.72875 L 92.684315,159.6505 C 91.969387,158.57447 91.57667,157.43141 91.001489,156.28482 L 91.353702,152.25386 C 87.165651,147.41913 90.240333,131.65564 90.844935,123.01956 C 91.264189,119.50779 94.295119,115.77136 96.637018,109.9091 L 95.267271,109.67429 C 97.994561,104.92041 110.80385,90.542615 116.75272,91.28054 C 119.63448,87.662951 116.18121,91.291813 115.61779,90.380425 C 121.94769,83.834658 123.94757,85.765794 128.21945,84.588356 C 132.82676,81.855663 124.27387,85.639636 126.45836,83.531687 C 134.42257,81.498702 132.114,78.928082 142.50396,77.896158 C 143.59988,78.519431 139.93441,78.848778 139.02089,79.657268 C 145.65677,76.413011 160.02315,77.150499 169.351,81.457499 C 180.17784,86.512735 192.35281,101.44521 192.83238,115.5055 L 193.34115,115.66205 C 193.06605,121.25086 194.24684,127.72721 192.28448,133.66443 L 193.61508,130.84666 C 193.7725,135.11839 192.34224,137.15719 191.07127,140.82625 L 188.80141,142.00032 C 186.93317,145.6282 188.96744,144.28067 187.62733,147.16622 C 184.70878,149.75927 178.80329,155.30953 176.90418,155.8152 C 175.51407,155.78432 177.81287,154.17446 178.11739,153.54532 C 174.21033,156.22653 174.97416,157.55215 168.99878,159.18087 L 168.84223,158.82864 C 154.1039,165.75661 133.62492,152.00639 133.89412,133.27308 C 133.73672,134.46227 133.43798,134.16216 133.11142,134.64281 C 132.35091,125.00422 137.58306,115.30988 146.37838,111.35712 C 154.98252,107.10158 165.02673,108.86662 171.19036,114.60537 C 167.8055,110.17488 161.09451,105.47775 153.10972,105.91727 C 145.2882,106.04074 137.97975,111.01376 135.53781,116.40561 C 131.53073,118.92664 131.06138,126.12477 129.31526,127.44188 C 126.96452,144.69493 133.71462,152.13444 145.16519,160.90283 C 146.16117,161.57445 146.21825,161.93171 146.10444,162.27257 C 146.1113,162.23178 146.11066,162.22122 146.14357,162.1943 C 159.64921,167.2363 173.59327,165.99928 185.2792,156.63704 C 188.25365,154.3233 191.50248,150.39061 192.44102,150.33621 C 191.20405,152.1948 192.35681,151.57222 191.93225,152.64521 C 194.11355,148.77211 190.53617,150.96799 194.67175,144.97462 L 196.2763,147.16622 C 195.67907,143.20172 201.22142,138.40611 200.6595,132.13814 C 201.92752,130.22131 202.04316,134.18561 200.69862,138.59552 C 202.56393,133.70345 201.23806,132.92643 201.71616,128.8899 C 202.23397,130.24668 202.89381,131.68479 203.24246,133.11653 C 202.0259,128.38911 204.47134,125.17989 205.08182,122.43251 C 204.48018,122.16643 203.21916,124.49472 202.92937,118.9103 C 202.97057,116.48486 203.58675,117.66773 203.82948,117.07093 C 203.35287,116.79752 202.12447,114.92328 201.36393,111.35712 C 201.91413,110.51925 202.80678,113.54267 203.55554,113.66613 C 203.07449,110.83054 202.26023,108.64074 202.22492,106.46517 C 200.03308,101.88765 201.42045,107.08378 199.64197,104.5084 C 197.31038,97.236445 201.62351,102.84264 201.91185,99.538146 C 205.44969,104.65809 207.44247,112.57087 208.36921,115.85773 C 207.66166,111.8506 206.51698,107.99022 205.12096,104.23445 C 206.19774,104.68572 203.40241,95.970411 206.52984,101.72977 C 203.18912,89.452564 192.22497,77.995896 182.14834,72.612856 C 183.37963,73.740309 184.97721,75.130388 184.41821,75.352337 C 179.40786,72.371246 180.24412,72.189787 179.52625,70.930016 C 175.4456,69.270406 175.18561,71.060849 172.48184,70.930016 C 164.7883,66.85232 163.32067,67.223132 156.24056,64.668315 L 156.59279,66.233736 C 151.49565,64.537424 150.59449,66.871705 145.08692,66.233736 C 144.7515,65.9721 146.87917,65.271897 148.60911,65.020543 C 143.68111,65.670265 143.92124,64.027564 139.09915,65.177082 C 140.28779,64.343585 141.50988,63.811413 142.77791,63.102893 z "
           id="path2075"
           inkscape:export-filename="/var/www/morayallan/temp/dc7logo-valessio-flipped.png"
           inkscape:export-xdpi="90"
           inkscape:export-ydpi="90" />
        <path
           style="fill:#c40039;fill-opacity:1;stroke:none;stroke-miterlimit:10"
           d="M 148.60911,65.020543 L 149.54838,64.903138 L 149.58751,64.824869 L 148.60911,65.020543 z "
           id="path2073"
           inkscape:export-filename="/var/www/morayallan/temp/dc7logo-valessio-flipped.png"
           inkscape:export-xdpi="90"
           inkscape:export-ydpi="90" />
        <path
           style="fill:#c40039;fill-opacity:1;stroke:none;stroke-miterlimit:10"
           d="M 149.58751,64.824869 C 151.13063,64.486768 151.48295,64.175918 146.76973,64.042158 C 148.18048,64.294998 149.81993,64.488225 149.58751,64.824869 z "
           id="path2071"
           inkscape:export-filename="/var/www/morayallan/temp/dc7logo-valessio-flipped.png"
           inkscape:export-xdpi="90"
           inkscape:export-ydpi="90" />
        <path
           style="fill:#c40039;fill-opacity:1;stroke:none;stroke-miterlimit:10"
           d="M 146.10444,162.27257 C 146.01251,162.54792 145.79966,162.83781 145.90875,163.25096 C 142.10466,161.47083 138.63675,158.75277 135.77265,155.46297 C 137.2922,157.68409 138.93617,159.83266 141.05595,161.529 C 137.46956,160.3148 132.67099,152.87122 131.27204,152.56694 C 137.45482,163.62997 156.35917,171.96633 166.25929,167.82983 C 161.67849,167.9989 155.86813,167.93026 150.72245,166.02959 C 148.69517,164.98912 146.00134,162.88459 146.10444,162.27257 z "
           id="path2069"
           inkscape:export-filename="/var/www/morayallan/temp/dc7logo-valessio-flipped.png"
           inkscape:export-xdpi="90"
           inkscape:export-ydpi="90" />
        <path
           style="fill:#c40039;fill-opacity:1;stroke:none;stroke-miterlimit:10"
           d="M 84.583249,96.329033 C 84.839933,99.96455 81.767363,101.3327 85.287675,98.872839 C 87.094299,94.80611 84.847507,97.30232 84.583249,96.329033 z "
           id="path2065"
           inkscape:export-filename="/var/www/morayallan/temp/dc7logo-valessio-flipped.png"
           inkscape:export-xdpi="90"
           inkscape:export-ydpi="90" />
        <path
           style="fill:#c40039;fill-opacity:1;stroke:none;stroke-miterlimit:10"
           d="M 274.59265,90.313574 L 272.28366,92.73999 L 269.9355,95.127257 L 271.4618,97.240581 C 272.28216,98.39272 272.90982,99.51166 272.90982,99.74526 C 272.90982,99.97889 271.2604,99.99298 269.23107,99.78441 C 267.20174,99.57587 263.96279,99.68928 262.03011,100.01921 C 257.84895,100.73305 257.38502,100.59758 257.76434,98.571194 C 257.92349,97.721006 258.08785,95.840306 258.11655,94.422816 C 258.16752,91.906741 258.25263,91.839292 261.71703,91.096299 C 263.66875,90.677759 267.36625,90.313574 269.9355,90.313574 L 274.59265,90.313574 z "
           id="path2087"
           inkscape:export-filename="/var/www/morayallan/temp/dc7logo-valessio-flipped.png"
           inkscape:export-xdpi="90"
           inkscape:export-ydpi="90" />
        <path
           style="fill:#c40039;fill-opacity:1;stroke:none;stroke-miterlimit:10"
           d="M 245.18822,101.1049 C 247.62797,101.21122 247.35743,101.98196 244.79688,103.80528 C 242.23073,105.63256 242.20358,106.59419 244.4838,108.73637 C 245.44861,109.6428 246.08444,110.54053 245.89268,110.73229 C 245.70089,110.92407 243.53396,111.05364 241.11813,111.00624 C 238.70229,110.95882 235.30438,111.19383 233.56495,111.515 C 231.82553,111.83617 230.33508,112.13192 230.23843,112.1803 C 230.14177,112.22872 230.04275,110.22461 230.04275,107.75798 L 230.04275,103.29651 L 233.40841,102.43553 C 235.24446,101.96951 239.05928,101.39863 241.86171,101.18319 C 243.28298,101.07393 244.37499,101.06947 245.18822,101.1049 z "
           id="path2085"
           inkscape:export-filename="/var/www/morayallan/temp/dc7logo-valessio-flipped.png"
           inkscape:export-xdpi="90"
           inkscape:export-ydpi="90" />
        <path
           style="fill:#c40039;fill-opacity:1;stroke:none;stroke-miterlimit:10"
           d="M 302.79454,100.7487 C 305.33878,100.83735 305.00791,101.68489 302.09008,103.48819 C 299.15727,105.3008 299.07245,105.96403 301.42478,108.41928 L 303.22502,110.2978 L 297.39382,110.68915 C 288.48356,111.33981 287.17995,111.73712 286.74893,113.89826 C 286.60075,109.33803 286.74163,107.66215 287.21855,103.99696 C 287.49085,105.03892 287.54082,105.04651 287.60991,104.07523 C 287.71009,102.66649 291.92811,101.52604 299.27232,100.90524 C 300.76541,100.77907 301.94645,100.71913 302.79454,100.7487 z "
           id="path2067"
           inkscape:export-filename="/var/www/morayallan/temp/dc7logo-valessio-flipped.png"
           inkscape:export-xdpi="90"
           inkscape:export-ydpi="90" />
        <path
           style="fill:#c40039;fill-opacity:1;stroke:none;stroke-miterlimit:10"
           d="M 81.648065,108.22628 C 79.359137,111.15004 80.597848,111.71638 80.356601,113.70527 C 81.184797,111.16515 81.331782,109.69624 81.648065,108.22628 z "
           id="path2059"
           inkscape:export-filename="/var/www/morayallan/temp/dc7logo-valessio-flipped.png"
           inkscape:export-xdpi="90"
           inkscape:export-ydpi="90" />
        <path
           style="fill:#c40039;fill-opacity:1;stroke:none;stroke-miterlimit:10"
           d="M 175.84751,125.87644 C 175.52039,125.8847 175.08022,126.6907 174.86912,127.5984 C 175.36194,127.8542 175.76225,130.9618 176.23886,129.04643 C 176.39921,126.66801 176.17463,125.86818 175.84751,125.87644 z "
           id="path2057"
           inkscape:export-filename="/var/www/morayallan/temp/dc7logo-valessio-flipped.png"
           inkscape:export-xdpi="90"
           inkscape:export-ydpi="90" />
        <path
           style="fill:#c40039;fill-opacity:1;stroke:none;stroke-miterlimit:10"
           d="M 204.72961,133.86012 L 204.33825,134.8385 C 203.92939,137.74048 203.2877,140.61451 202.34233,143.40922 C 203.46629,140.30306 204.30489,137.1141 204.72961,133.86012 z "
           id="path2055"
           inkscape:export-filename="/var/www/morayallan/temp/dc7logo-valessio-flipped.png"
           inkscape:export-xdpi="90"
           inkscape:export-ydpi="90" />
        <path
           style="fill:#c40039;fill-opacity:1;stroke:none;stroke-miterlimit:10"
           d="M 174.12555,135.62121 C 173.7725,137.37342 172.83274,138.91678 171.93395,140.51317 C 166.9942,143.62218 171.47204,138.6783 171.93395,136.79527 C 166.6235,143.47923 171.18592,140.79876 170.99469,142.66563 C 172.57019,140.49448 173.72249,138.079 174.12555,135.62121 z "
           id="path2053"
           inkscape:export-filename="/var/www/morayallan/temp/dc7logo-valessio-flipped.png"
           inkscape:export-xdpi="90"
           inkscape:export-ydpi="90" />
        <path
           style="fill:#c40039;fill-opacity:1;stroke:none;stroke-miterlimit:10"
           d="M 163.36326,145.83562 C 161.21407,146.36039 159.03122,146.38921 156.8276,146.18783 C 154.18414,146.22459 157.29011,147.57481 160.74116,148.10548 C 161.69587,147.3602 162.59244,146.56767 163.36326,145.83562 z "
           id="path2051"
           inkscape:export-filename="/var/www/morayallan/temp/dc7logo-valessio-flipped.png"
           inkscape:export-xdpi="90"
           inkscape:export-ydpi="90" />
        <path
           style="fill:#c40039;fill-opacity:1;stroke:none;stroke-miterlimit:10"
           d="M 129.98056,146.18783 C 130.56311,148.3296 131.76598,150.18691 132.8766,152.05817 L 132.05475,149.6709 C 131.13534,148.65369 130.58958,147.40497 129.98056,146.18783 z "
           id="path2049"
           inkscape:export-filename="/var/www/morayallan/temp/dc7logo-valessio-flipped.png"
           inkscape:export-xdpi="90"
           inkscape:export-ydpi="90" />
        <path
           style="fill:#c40039;fill-opacity:1;stroke:none;stroke-miterlimit:10"
           d="M 127.94551,149.82744 L 127.59328,151.66682 C 129.33061,154.0232 130.6974,156.59393 132.91573,158.43727 C 131.31967,155.32532 130.12707,154.03597 127.94551,149.82744 z "
           id="path2047"
           inkscape:export-filename="/var/www/morayallan/temp/dc7logo-valessio-flipped.png"
           inkscape:export-xdpi="90"
           inkscape:export-ydpi="90" />
        <path
           style="fill:#c40039;fill-opacity:1;stroke:none;stroke-miterlimit:10"
           d="M 256.27121,163.25096 C 255.11448,163.40419 253.90682,165.30198 251.4184,169.12131 L 248.56149,173.5045 L 248.56149,184.89296 L 248.56149,190.29368 C 251.25381,190.0805 254.01786,189.94145 256.85824,189.94145 C 259.55147,189.94148 262.1633,190.06241 264.72451,190.25455 L 264.72451,184.81469 L 264.68538,173.38709 L 260.77181,167.9081 C 258.50926,164.71798 257.42798,163.09777 256.27121,163.25096 z "
           id="path2020"
           inkscape:export-filename="/var/www/morayallan/temp/dc7logo-valessio-flipped.png"
           inkscape:export-xdpi="90"
           inkscape:export-ydpi="90" />
      </g>
      <g
         inkscape:export-ydpi="90"
         inkscape:export-xdpi="90"
         inkscape:export-filename="/var/www/morayallan/temp/dc7logo-valessio.png"
         transform="translate(-4.643478,0)"
         id="g2034">
        <text
           xml:space="preserve"
           style="font-size:16px;font-style:normal;font-variant:normal;font-weight:normal;font-stretch:normal;text-align:start;line-height:100%;writing-mode:lr-tb;text-anchor:start;fill:black;fill-opacity:1;stroke:none;stroke-width:1px;stroke-linecap:butt;stroke-linejoin:miter;stroke-opacity:1;font-family:Bitstream Vera Sans"
           x="167.54218"
           y="298.76328"
           id="text2220"
           sodipodi:linespacing="100%"
           inkscape:export-filename="/var/www/morayallan/temp/dc7logo-valessio.png"
           inkscape:export-xdpi="90"
           inkscape:export-ydpi="90"><tspan
             sodipodi:role="line"
             x="167.54218"
             y="298.76328"
             id="tspan2224">Edinburgh, Scotland</tspan></text>
        <text
           xml:space="preserve"
           style="font-size:16px;font-style:normal;font-variant:normal;font-weight:normal;font-stretch:normal;text-align:start;line-height:100%;writing-mode:lr-tb;text-anchor:start;fill:black;fill-opacity:1;stroke:none;stroke-width:1px;stroke-linecap:butt;stroke-linejoin:miter;stroke-opacity:1;font-family:Bitstream Vera Sans"
           x="192.3078"
           y="319.36667"
           id="text2228"
           sodipodi:linespacing="100%"
           inkscape:export-filename="/var/www/morayallan/temp/dc7logo-valessio.png"
           inkscape:export-xdpi="90"
           inkscape:export-ydpi="90"><tspan
             sodipodi:role="line"
             id="tspan2238"
             x="192.3078"
             y="319.36667">17‒23 June 2007</tspan></text>
        <text
           xml:space="preserve"
           style="font-size:48px;font-style:normal;font-variant:normal;font-weight:bold;font-stretch:normal;text-align:start;line-height:125%;writing-mode:lr-tb;text-anchor:start;fill:black;fill-opacity:1;stroke:none;stroke-width:1px;stroke-linecap:butt;stroke-linejoin:miter;stroke-opacity:1;font-family:Bitstream Vera Sans"
           x="76.829117"
           y="273.85315"
           id="text1918"
           sodipodi:linespacing="125%"
           inkscape:export-xdpi="90"
           inkscape:export-ydpi="90"
           inkscape:export-filename="/var/www/morayallan/temp/dc7logo-valessio.png"><tspan
             sodipodi:role="line"
             id="tspan1920"
             x="76.829117"
             y="273.85315"
             dx="0 -2.2201734 -2.2201734 0 -2.2201734 -2.2201734">DebConf7</tspan><tspan
             sodipodi:role="line"
             x="76.829117"
             y="333.85315"
             id="tspan1922" /></text>
      </g>
    </g>
  </g>
</svg>
