<?xml version="1.0" encoding="UTF-8" standalone="no"?>
<!-- Created with Inkscape (http://www.inkscape.org/) -->

<svg
   width="200"
   height="90"
   viewBox="0 0 52.916771 23.812548"
   version="1.1"
   id="svg1"
   xml:space="preserve"
   inkscape:version="1.2.2 (b0a8486541, 2022-12-01)"
   sodipodi:docname="logo.svg"
   xmlns:inkscape="http://www.inkscape.org/namespaces/inkscape"
   xmlns:sodipodi="http://sodipodi.sourceforge.net/DTD/sodipodi-0.dtd"
   xmlns="http://www.w3.org/2000/svg"
   xmlns:svg="http://www.w3.org/2000/svg"><sodipodi:namedview
     id="namedview1"
     pagecolor="#ffffff"
     bordercolor="#000000"
     borderopacity="0.25"
     inkscape:showpageshadow="2"
     inkscape:pageopacity="0.0"
     inkscape:pagecheckerboard="0"
     inkscape:deskcolor="#d1d1d1"
     inkscape:document-units="mm"
     showguides="true"
     inkscape:zoom="5.9123032"
     inkscape:cx="100.04561"
     inkscape:cy="44.990927"
     inkscape:window-width="1920"
     inkscape:window-height="1011"
     inkscape:window-x="0"
     inkscape:window-y="32"
     inkscape:window-maximized="1"
     inkscape:current-layer="layer1"
     showgrid="false"><sodipodi:guide
       position="48.028583,-31.662674"
       orientation="1,0"
       id="guide1"
       inkscape:locked="false" /><sodipodi:guide
       position="37.824881,-25.649782"
       orientation="0,-1"
       id="guide2"
       inkscape:locked="false" /><sodipodi:guide
       position="89.306796,-1.0442129"
       orientation="1,0"
       id="guide7"
       inkscape:locked="false" /><sodipodi:guide
       position="137.67539,-9.7975999"
       orientation="0,-1"
       id="guide8"
       inkscape:locked="false" /><sodipodi:guide
       position="137.7665,-28.474018"
       orientation="0,-1"
       id="guide9"
       inkscape:locked="false" /></sodipodi:namedview><defs
     id="defs1"><rect
       x="258.93707"
       y="609.81055"
       width="124.64789"
       height="105.02101"
       id="rect1" /><style
       id="style1">.cls-1{fill:none;}.cls-1,.cls-2{stroke:#000;}.cls-1,.cls-2,.cls-3{stroke-miterlimit:10;}.cls-2{fill:#231f20;}.cls-3{fill:#fff;stroke:#fff;}</style><rect
       x="258.93707"
       y="609.81055"
       width="124.64789"
       height="105.02101"
       id="rect1-1" /><rect
       x="258.93707"
       y="609.81055"
       width="124.64789"
       height="105.02101"
       id="rect1-4" /><rect
       x="258.93707"
       y="609.81055"
       width="124.64789"
       height="105.02101"
       id="rect1-4-8" /><style
       id="style1-6">.cls-1{fill:none;}.cls-1,.cls-2{stroke:#000;}.cls-1,.cls-2,.cls-3{stroke-miterlimit:10;}.cls-2{fill:#231f20;}.cls-3{fill:#fff;stroke:#fff;}</style><style
       id="style1-0">.cls-1{fill:#2d3795;}.cls-2{fill:#a81d33;}</style><style
       id="style1-9">.cls-1{fill:none;}.cls-1,.cls-2{stroke:#000;}.cls-1,.cls-2,.cls-3{stroke-miterlimit:10;}.cls-2{fill:#231f20;}.cls-3{fill:#fff;stroke:#fff;}.cls-4{fill:#2d3795;}.cls-5{fill:#a81d33;}</style><style
       id="style1-06">.cls-1{fill:none;stroke:#000;}.cls-1,.cls-2,.cls-3{stroke-miterlimit:10;}.cls-2{fill:#fff;stroke:#fff;}.cls-4{fill:#2d3795;}.cls-3{fill:#231f20;stroke:#231f20;}.cls-5{fill:#a81d33;}</style><rect
       x="258.93707"
       y="609.81055"
       width="124.64789"
       height="105.02101"
       id="rect1-8" /><rect
       x="258.93707"
       y="609.81055"
       width="124.64789"
       height="105.02101"
       id="rect1-4-9" /><rect
       x="258.93707"
       y="609.81055"
       width="124.64789"
       height="105.02101"
       id="rect1-4-8-3" /><rect
       x="258.93707"
       y="609.81055"
       width="124.64789"
       height="105.02101"
       id="rect1-1-4" /><style
       id="style1-1">.cls-1{fill:none;stroke:#000;}.cls-1,.cls-2,.cls-3{stroke-miterlimit:10;}.cls-2{fill:#fff;stroke:#fff;}.cls-4{fill:#2d3795;}.cls-3{fill:#231f20;stroke:#231f20;}.cls-5{fill:#a81d33;}</style><style
       id="style1-01">.cls-1{fill:none;stroke:#000;}.cls-1,.cls-2,.cls-3{stroke-miterlimit:10;}.cls-2{fill:#fff;stroke:#fff;}.cls-4{fill:#2d3795;}.cls-3{fill:#231f20;stroke:#231f20;}.cls-5{fill:#a81d33;}</style><style
       id="style1-3">.cls-1{fill:none;stroke:#000;}.cls-1,.cls-2,.cls-3{stroke-miterlimit:10;}.cls-2{fill:#fff;stroke:#fff;}.cls-4{fill:#2d3795;}.cls-3{fill:#231f20;stroke:#231f20;}.cls-5{fill:#a81d33;}</style><style
       id="style1-37">.cls-1{fill:none;stroke:#000;}.cls-1,.cls-2,.cls-3{stroke-miterlimit:10;}.cls-2{fill:#fff;stroke:#fff;}.cls-4{fill:#2d3795;}.cls-3{fill:#231f20;stroke:#231f20;}.cls-5{fill:#a81d33;}</style><style
       id="style1-07">.cls-1{fill:none;stroke:#000;}.cls-1,.cls-2,.cls-3{stroke-miterlimit:10;}.cls-2{fill:#fff;stroke:#fff;}.cls-4{fill:#2d3795;}.cls-3{fill:#231f20;stroke:#231f20;}.cls-5{fill:#a81d33;}</style><style
       id="style1-19">.cls-1{fill:none;stroke:#000;}.cls-1,.cls-2,.cls-3{stroke-miterlimit:10;}.cls-2{fill:#fff;stroke:#fff;}.cls-4{fill:#2d3795;}.cls-3{fill:#231f20;stroke:#231f20;}.cls-5{fill:#a81d33;}</style><style
       id="style1-94">
      .cls-1 {
        fill: #fff;
        stroke: #fff;
      }

      .cls-1, .cls-2, .cls-3 {
        stroke-miterlimit: 12;
        stroke-width: 1.2px;
      }

      .cls-4 {
        fill: #2d3795;
      }

      .cls-2 {
        fill: #231f20;
        stroke: #231f20;
      }

      .cls-5 {
        fill: #a81d33;
      }

      .cls-3 {
        fill: none;
        stroke: #000;
      }
    </style></defs><g
     inkscape:label="Layer 1"
     inkscape:groupmode="layer"
     id="layer1"
     transform="translate(-11.189304,-36.895128)"><rect
       style="display:none;fill:#eb6864;fill-opacity:1;stroke:#1e2668;stroke-width:0.264583"
       id="rect2"
       width="266.75336"
       height="185.85275"
       x="1.0932515"
       y="0.72883439" /><g
       id="g1001"
       transform="matrix(0.21758493,0,0,0.21758493,8.9663684,29.304762)"><path
         style="font-size:24px;font-family:'Kaushan Script';-inkscape-font-specification:'Kaushan Script';white-space:pre;fill:#2d3795"
         d="m 277.8975,618.42355 q 0,1.488 -0.816,2.664 -0.816,1.152 -2.232,1.92 0.912,0.624 1.44,1.536 0.552,0.888 0.552,1.968 0,1.296 -0.792,2.568 -0.768,1.248 -2.064,2.232 -1.296,0.96 -2.952,1.56 -1.656,0.6 -3.384,0.6 -1.872,0 -3.288,-0.72 -1.392,-0.696 -2.184,-1.992 0.24,-0.72 0.624,-1.776 0.408,-1.08 0.888,-2.256 0.48,-1.2 0.96,-2.376 0.504,-1.176 0.936,-2.112 0.912,-2.04 1.632,-3.384 0.72,-1.344 1.32,-2.136 -1.32,0.408 -2.4,0.936 -1.08,0.504 -1.584,0.984 -0.216,-0.144 -0.456,-0.432 -0.216,-0.288 -0.432,-0.624 -0.192,-0.36 -0.336,-0.72 -0.12,-0.36 -0.144,-0.648 0.624,-0.432 1.608,-0.816 1.008,-0.408 2.184,-0.696 1.176,-0.288 2.4,-0.456 1.248,-0.168 2.376,-0.168 2.88,0 4.512,1.152 1.632,1.152 1.632,3.192 z m -9.144,5.736 q -0.456,-0.216 -0.84,-0.648 -0.552,1.224 -1.056,2.4 -0.48,1.176 -0.864,2.184 -0.384,1.008 -0.624,1.752 -0.24,0.744 -0.264,1.08 0.336,0.192 0.792,0.288 0.48,0.096 1.176,0.096 1.632,0 3.12,-0.456 1.488,-0.456 2.616,-1.224 1.128,-0.792 1.8,-1.8 0.672,-1.008 0.672,-2.112 0,-1.584 -1.368,-2.28 -1.872,0.768 -4.224,0.768 -0.336,0 -0.528,0 -0.168,0 -0.408,-0.048 z m 4.656,-8.328 q -0.504,0 -1.08,0.072 -0.552,0.048 -1.176,0.168 0.096,0.096 0.144,0.216 0.072,0.096 0.12,0.216 -0.216,0.288 -0.528,0.84 -0.312,0.552 -0.696,1.296 -0.384,0.72 -0.816,1.608 -0.408,0.888 -0.84,1.824 0.408,-0.096 0.984,-0.144 0.6,-0.072 1.176,-0.072 0.312,0 0.6,0.024 0.312,0.024 0.6,0.072 1.152,-0.192 2.064,-0.552 0.936,-0.384 1.608,-0.864 0.672,-0.504 1.032,-1.104 0.36,-0.6 0.36,-1.272 0,-1.152 -0.912,-1.728 -0.912,-0.6 -2.64,-0.6 z m 4.34401,15.336 q 0.12,-0.696 0.408,-1.824 0.312,-1.152 0.72,-2.424 0.408,-1.296 0.864,-2.592 0.456,-1.296 0.888,-2.328 0.312,-0.744 0.552,-1.152 0.24,-0.432 0.528,-0.72 0.336,0.048 0.696,0.168 0.36,0.12 0.696,0.288 0.336,0.168 0.6,0.36 0.264,0.168 0.408,0.336 -0.648,0.768 -1.152,1.752 -0.48,0.984 -0.984,2.52 1.296,-1.152 2.28,-2.208 1.008,-1.056 1.872,-2.352 0.144,-0.12 0.504,-0.12 0.336,0 0.648,0.12 0.312,0.096 0.432,0.288 -0.432,1.152 -0.432,2.28 0,1.056 0.312,1.584 -0.024,0.144 -0.336,0.552 -0.288,0.408 -0.648,0.768 -0.648,-0.336 -1.152,-0.912 -0.504,-0.6 -0.744,-1.296 -1.128,0.792 -1.92,1.56 -0.792,0.744 -1.368,1.68 -0.552,0.912 -0.96,2.112 -0.384,1.2 -0.744,2.856 -0.216,-0.024 -0.528,-0.168 -0.288,-0.12 -0.6,-0.312 -0.288,-0.192 -0.528,-0.408 -0.24,-0.216 -0.312,-0.408 z m 18.84,-9.456 q -0.096,1.488 -0.528,2.568 -0.432,1.056 -1.248,1.872 -0.792,0.792 -1.944,1.44 -1.152,0.648 -2.688,1.248 0,0.144 -0.024,0.312 0,0.144 0,0.312 0,0.312 0.048,0.648 0.048,0.336 0.168,0.624 0.12,0.288 0.336,0.48 0.216,0.168 0.552,0.168 0.648,0 1.272,-0.288 0.624,-0.288 1.176,-0.696 0.576,-0.432 1.056,-0.912 0.504,-0.504 0.888,-0.912 0.24,0.216 0.408,0.408 -1.08,1.44 -2.376,2.4 -1.272,0.936 -2.424,1.2 -1.656,-0.192 -2.592,-1.2 -0.912,-1.032 -0.912,-2.472 0,-0.984 0.264,-1.992 0.288,-1.032 0.768,-1.968 0.504,-0.96 1.152,-1.8 0.672,-0.84 1.416,-1.464 0.768,-0.624 1.56,-0.984 0.816,-0.36 1.608,-0.36 1.104,0.144 2.064,1.368 z m -1.656,0.792 q -0.648,0.096 -1.344,0.528 -0.696,0.432 -1.32,1.152 -0.6,0.72 -1.104,1.68 -0.504,0.96 -0.792,2.064 1.92,-0.96 3.192,-2.352 1.272,-1.416 1.368,-3.072 z m 11.03998,-0.408 q -0.024,0.456 -0.168,0.96 -0.12,0.48 -0.312,0.888 -0.192,0.384 -0.408,0.648 -0.216,0.264 -0.408,0.264 -0.264,-0.024 -0.312,-0.36 0,-0.072 0.048,-0.216 0.072,-0.168 0.144,-0.36 0.072,-0.192 0.12,-0.384 0.072,-0.192 0.072,-0.336 0,-0.336 -0.168,-0.552 -0.144,-0.24 -0.408,-0.24 -0.96,0 -1.464,1.2 -0.504,1.2 -0.504,3.528 0,0.24 0.024,0.288 0.504,-0.024 0.888,-0.024 0.408,-0.024 0.792,-0.024 0.024,0.048 0.024,0.192 0,0.216 -0.096,0.312 -0.552,0.12 -0.888,0.216 -0.312,0.072 -0.48,0.144 -0.168,0.072 -0.216,0.168 -0.024,0.072 -0.024,0.216 0,0.192 0,0.384 0.024,0.192 0.024,0.48 0,2.016 -1.104,3.24 -1.08,1.224 -3.024,1.416 -0.336,-0.024 -0.696,-0.192 -0.36,-0.168 -0.696,-0.432 -0.312,-0.264 -0.552,-0.6 -0.24,-0.312 -0.336,-0.648 0,-0.912 0.384,-1.728 0.384,-0.84 1.032,-1.464 0.672,-0.648 1.56,-1.032 0.912,-0.408 1.968,-0.48 0,-0.6 -0.12,-1.176 -0.12,-0.576 -0.264,-1.104 -0.12,-0.552 -0.24,-1.056 -0.12,-0.528 -0.12,-1.032 0,-0.648 0.264,-1.272 0.264,-0.648 0.696,-1.176 0.432,-0.552 1.008,-0.936 0.576,-0.384 1.2,-0.528 0.264,0.072 0.696,0.432 0.456,0.336 0.888,0.768 0.432,0.432 0.768,0.888 0.336,0.432 0.408,0.72 z m -7.92,10.944 q 0.576,-0.24 1.08,-0.696 0.528,-0.456 0.912,-1.032 0.384,-0.576 0.6,-1.224 0.24,-0.648 0.24,-1.272 -0.48,0.072 -1.056,0.456 -0.576,0.36 -1.08,0.888 -0.504,0.504 -0.84,1.056 -0.336,0.552 -0.336,0.96 0,0.528 0.48,0.864 z m 9.36002,-10.584 q -0.12,-0.144 -0.216,-0.6 -0.096,-0.48 -0.096,-0.816 0.624,0.048 1.2,0.096 0.576,0.024 1.056,0.048 0.36,-0.72 0.768,-1.416 0.432,-0.72 0.816,-1.296 0.408,-0.6 0.744,-1.008 0.36,-0.408 0.552,-0.528 0.24,0 0.6,0.096 0.384,0.072 0.768,0.216 0.384,0.12 0.696,0.264 0.312,0.144 0.432,0.288 -0.72,0.912 -1.248,1.704 -0.504,0.768 -1.104,1.776 0.48,0 0.96,-0.024 0.504,-0.024 1.008,-0.072 0.12,0.12 0.192,0.312 0.072,0.168 0.072,0.36 -1.176,0.432 -2.856,0.48 -0.6,1.152 -1.08,2.304 -0.456,1.128 -0.792,2.184 -0.312,1.056 -0.504,1.992 -0.168,0.936 -0.168,1.68 0,1.056 0.792,1.176 0.72,-0.096 1.368,-0.36 0.648,-0.264 1.152,-0.672 0.144,0.216 0.168,0.36 -0.144,0.216 -0.504,0.504 -0.336,0.288 -0.744,0.552 -0.408,0.288 -0.792,0.48 -0.384,0.192 -0.576,0.216 -0.6,-0.024 -1.2,-0.264 -0.6,-0.24 -1.104,-0.6 -0.48,-0.36 -0.792,-0.792 -0.312,-0.456 -0.312,-0.888 0,-0.576 0.144,-1.44 0.168,-0.888 0.456,-1.92 0.288,-1.032 0.672,-2.16 0.384,-1.128 0.84,-2.232 z"
         id="text1-2-0"
         transform="matrix(0.96572506,0,0,0.87761155,-171.78777,-428.30647)"
         aria-label="Brest" /><path
         style="font-weight:500;font-stretch:condensed;font-size:24px;font-family:'Poppl-Laudatio Condensed';-inkscape-font-specification:'Poppl-Laudatio Condensed,  Medium Condensed';white-space:pre;fill:#231f20"
         d="m 260.5935,626.48755 c -0.024,4.056 -0.024,4.272 -0.768,5.16 0.744,-0.024 1.992,-0.024 3,-0.024 0.768,0 1.488,0.024 2.112,0.024 5.376,0 7.632,-2.904 7.632,-8.952 0,-3.408 -0.816,-6 -2.904,-7.224 -1.104,-0.648 -2.52,-0.792 -3.792,-0.792 -0.576,0 -1.128,0.024 -1.704,0.024 -0.576,0 -1.152,0.024 -1.728,0.024 -0.768,0 -1.8,0 -2.544,-0.048 0.408,0.456 0.624,0.744 0.672,2.304 0.048,1.608 0.048,2.616 0.024,3.984 z m 2.64,-5.256 c 0,-3.168 0.024,-3.48 0.072,-4.656 0.552,-0.048 1.2,-0.096 1.8,-0.096 3.84,0 4.704,2.448 4.704,6.72 0,4.944 -1.632,6.624 -4.968,6.624 -1.2,0 -1.464,-0.264 -1.536,-0.936 -0.072,-0.48 -0.072,-3.336 -0.072,-4.344 z m 19.992,2.808 c 0,-2.808 -0.552,-5.568 -4.104,-5.568 -4.896,0 -4.896,5.424 -4.896,6.576 0,4.872 2.184,6.792 5.856,6.792 1.632,0 2.424,-0.24 2.856,-0.36 -0.024,-0.864 0.096,-1.416 0.24,-2.16 -0.504,0.312 -1.152,0.72 -2.592,0.72 -3.744,0 -3.792,-3.408 -3.792,-4.584 h 6.384 z m -6.48,-0.24 c 0.024,-1.992 0.432,-3.768 2.136,-3.768 1.872,0 2.016,2.064 1.968,3.768 z m 8.40001,3.888 c 0,1.776 0,2.784 -0.288,3.552 0.984,0.384 2.208,0.6 3.672,0.6 0.936,0 3.648,0 5.112,-3 0.696,-1.392 0.936,-3.264 0.936,-4.68 0,-0.864 -0.096,-2.76 -0.792,-3.96 -0.672,-1.128 -1.752,-1.704 -2.904,-1.704 -2.304,0 -2.976,1.92 -3.336,2.904 0,-1.224 0.024,-5.496 0.216,-7.68 -1.56,0.72 -2.52,0.84 -3.552,0.936 0.936,0.384 0.936,1.968 0.936,7.128 z m 6.888,-2.616 c 0,2.232 -0.408,5.232 -3.192,5.232 -0.384,0 -0.864,-0.072 -1.176,-0.144 -0.048,-0.864 -0.048,-2.352 -0.048,-4.08 0,-2.064 0.216,-3.144 0.384,-3.672 0.504,-1.704 1.632,-1.728 1.848,-1.728 1.824,0 2.184,2.52 2.184,4.392 z m 4.224,-2.16 c 0,6.864 3.432,8.928 7.368,8.928 1.152,0 1.92,-0.168 2.76,-0.336 -0.024,-0.936 0.144,-1.752 0.288,-2.328 -0.672,0.384 -1.176,0.696 -2.4,0.696 -5.04,0 -5.256,-5.472 -5.256,-7.176 0,-3.072 0.96,-6.288 4.656,-6.288 1.728,0 2.16,0.624 2.4,0.936 0.144,-1.512 0.384,-2.016 0.672,-2.544 -0.864,-0.192 -1.656,-0.36 -2.976,-0.36 -5.832,0 -7.512,3.888 -7.512,8.472 z m 21.312,2.088 c 0,-3.12 -0.576,-6.504 -4.824,-6.504 -4.416,0 -4.968,3.912 -4.968,6.768 0,2.736 0.456,6.6 4.896,6.6 4.272,0 4.872,-3.84 4.896,-6.864 z m -2.592,-0.024 c -0.024,3.96 -0.768,5.304 -2.28,5.304 -2.136,0 -2.304,-2.736 -2.304,-4.824 0,-3.216 0.432,-5.472 2.352,-5.472 1.488,0 2.256,1.32 2.232,4.992 z m 13.56001,-2.88 c -0.024,-1.44 -0.048,-3.624 -3.048,-3.624 -2.4,0 -3,1.656 -3.288,2.4 v -2.544 c -0.6,0.312 -1.224,0.624 -3.168,0.72 0.264,0.24 0.504,0.456 0.624,1.392 0.216,1.536 0.12,8.016 0.072,9.336 -0.048,1.344 -0.144,1.536 -0.312,1.92 0.48,-0.072 0.864,-0.096 1.44,-0.096 0.72,0 1.224,0.048 1.632,0.096 -0.24,-0.84 -0.24,-1.128 -0.264,-4.2 0,-3.552 0,-4.464 0.192,-5.304 0.168,-0.816 0.624,-1.824 1.992,-1.824 1.392,0 1.512,1.104 1.56,1.512 0.072,0.576 0.072,2.208 0.072,3.336 v 2.592 c 0,0.648 -0.048,2.496 -0.12,3.048 -0.048,0.408 -0.096,0.528 -0.192,0.84 0.456,-0.072 0.768,-0.12 1.344,-0.12 0.984,0 1.296,0.072 1.824,0.12 -0.336,-0.696 -0.336,-1.56 -0.36,-2.376 z m 5.664,-1.08 c 0.6,-0.048 1.32,0 1.896,0.072 -0.024,-0.24 -0.048,-0.48 -0.072,-1.008 0,-0.288 0.048,-0.552 0.072,-0.792 -0.6,0.12 -1.368,0.096 -1.944,0.096 -0.024,-1.464 -0.048,-3.408 1.752,-3.408 0.288,0 0.456,0.072 0.6,0.12 0.096,-0.912 0.168,-1.32 0.36,-2.064 -1.992,-0.024 -3.744,0.6 -4.56,1.872 -0.624,0.984 -0.6,2.184 -0.576,3.48 -0.456,0.024 -0.984,0 -1.464,-0.072 0.024,0.312 0.048,0.504 0.048,0.84 0,0.36 -0.024,0.624 -0.048,0.96 0.456,-0.072 1.008,-0.096 1.512,-0.072 l -0.024,5.928 c -0.024,1.752 -0.024,3.024 -0.096,3.744 -0.048,0.48 -0.12,0.672 -0.24,0.984 0.48,-0.072 0.84,-0.12 1.56,-0.12 0.72,0 1.104,0.048 1.584,0.12 -0.168,-0.456 -0.384,-1.056 -0.384,-3.768 z"
         id="text1-7-6"
         transform="matrix(1.4476039,0,0,1.2466367,-295.61287,-678.947)"
         aria-label="DebConf" /><path
         style="font-size:24px;font-family:'Kaushan Script';-inkscape-font-specification:'Kaushan Script';white-space:pre;fill:#8a1829;fill-opacity:1"
         d="m 274.4175,618.25555 q 0,1.152 -0.528,2.232 -0.504,1.08 -1.416,2.16 -0.912,1.08 -2.184,2.232 -1.248,1.128 -2.712,2.4 -0.672,0.576 -1.152,1.032 -0.456,0.456 -0.792,0.888 -0.336,0.408 -0.6,0.816 -0.24,0.384 -0.456,0.84 1.92,-0.12 3.816,-0.864 1.92,-0.744 3.288,-1.944 0.096,0.12 0.24,0.384 0.144,0.24 0.24,0.576 0.12,0.312 0.192,0.696 0.096,0.36 0.096,0.72 0,0.6 -0.264,1.032 -0.24,0.264 -0.696,0.408 -0.432,0.144 -1.032,0.216 -0.6,0.072 -1.296,0.096 -0.696,0.024 -1.44,0.024 -0.72,0 -1.44,0.024 -0.72,0.048 -1.392,0.12 -0.648,0.096 -1.224,0.264 -0.552,0.168 -0.936,0.456 -0.576,-0.264 -1.056,-0.792 -0.456,-0.504 -0.648,-1.104 0.144,-0.696 0.504,-1.296 0.36,-0.6 0.96,-1.248 0.624,-0.648 1.536,-1.392 0.912,-0.768 2.16,-1.8 1.392,-1.152 2.52,-2.16 1.128,-1.008 1.896,-1.92 0.792,-0.936 1.2,-1.824 0.432,-0.912 0.432,-1.848 0,-1.176 -0.6,-1.848 -0.6,-0.672 -1.584,-0.672 -0.696,0 -1.344,0.336 -0.648,0.312 -1.152,0.888 -0.504,0.552 -0.816,1.296 -0.312,0.72 -0.312,1.536 0,0.6 0.168,1.08 0.192,0.456 0.576,0.936 -0.336,0.072 -0.624,0.072 -0.576,0 -1.056,-0.192 -0.48,-0.192 -0.84,-0.528 -0.336,-0.336 -0.528,-0.792 -0.192,-0.456 -0.192,-1.008 0,-0.912 0.528,-1.728 0.528,-0.84 1.392,-1.464 0.864,-0.624 1.944,-0.984 1.104,-0.384 2.232,-0.384 0.984,0 1.8,0.288 0.816,0.288 1.392,0.84 0.576,0.528 0.888,1.272 0.312,0.744 0.312,1.632 z m 2.25598,4.248 q 0.312,-0.864 0.84,-1.992 0.552,-1.128 1.128,-2.232 0.6,-1.128 1.176,-2.112 0.576,-0.984 0.984,-1.536 0.48,0.192 1.056,0.528 0.576,0.312 1.056,0.768 0.336,-0.024 0.936,-0.12 0.624,-0.12 1.272,-0.24 0.648,-0.144 1.224,-0.264 0.6,-0.144 0.888,-0.24 0.816,0.384 1.272,1.152 0.456,0.768 0.84,1.872 -1.464,-0.384 -3.12,-0.6 -1.632,-0.216 -3.192,-0.216 -0.504,0.432 -0.984,1.032 -0.456,0.6 -0.864,1.248 -0.408,0.624 -0.744,1.2 -0.312,0.576 -0.528,0.984 0.84,-0.336 1.728,-0.336 0.816,0 1.488,0.312 0.672,0.312 1.152,0.864 0.48,0.552 0.744,1.296 0.264,0.72 0.264,1.584 0,1.32 -0.816,2.592 -0.816,1.248 -2.112,2.232 -1.296,0.984 -2.904,1.584 -1.584,0.624 -3.168,0.648 -0.576,-0.12 -1.176,-0.672 -0.6,-0.552 -0.864,-1.512 0.888,-0.024 1.92,-0.216 1.032,-0.216 2.064,-0.6 1.056,-0.384 2.016,-0.912 0.96,-0.552 1.704,-1.2 0.744,-0.648 1.176,-1.392 0.456,-0.768 0.456,-1.608 0,-1.464 -1.656,-1.464 -0.768,0 -1.584,0.24 -0.816,0.24 -1.536,0.72 -0.528,-0.192 -1.176,-0.552 -0.624,-0.36 -0.96,-0.84 z"
         id="text1-2-6-6"
         transform="matrix(1.1938426,0,0,1.0849155,-117.36868,-578.28427)"
         aria-label="25" /><g
         id="svg1-8"
         transform="matrix(0.35100533,0,0,0.35100533,-1.1222078,2.0051976)"><sodipodi:namedview
           id="namedview1-8"
           bordercolor="#000000"
           borderopacity="0.25"
           inkscape:current-layer="layer1"
           inkscape:cx="504.10087"
           inkscape:cy="368.43438"
           inkscape:deskcolor="#d1d1d1"
           inkscape:document-units="mm"
           inkscape:pagecheckerboard="0"
           inkscape:pageopacity="0.0"
           inkscape:showpageshadow="2"
           inkscape:window-height="1017"
           inkscape:window-maximized="1"
           inkscape:window-width="1920"
           inkscape:window-x="1912"
           inkscape:window-y="-8"
           inkscape:zoom="0.72604517"
           pagecolor="#ffffff"
           showguides="true"><sodipodi:guide
             id="guide1-2"
             inkscape:locked="false"
             orientation="1,0"
             position="59.21779,91.77976" /><sodipodi:guide
             id="guide2-4"
             inkscape:locked="false"
             orientation="0,-1"
             position="49.014109,97.79264" /><sodipodi:guide
             id="guide7-5"
             inkscape:locked="false"
             orientation="1,0"
             position="100.49592,122.39816" /><sodipodi:guide
             id="guide8-5"
             inkscape:locked="false"
             orientation="0,-1"
             position="148.86441,113.64479" /><sodipodi:guide
             id="guide9-1"
             inkscape:locked="false"
             orientation="0,-1"
             position="148.95552,94.96841" /></sodipodi:namedview><g
           id="layer1-7"
           inkscape:groupmode="layer"
           inkscape:label="Layer 1"><g
             id="g12"><path
               id="path1-8"
               class="cls-5"
               d="m 162.1,239.2 c -4.4,0 0.8,2.3 6.6,3.1 1.6,-1.2 3,-2.5 4.3,-3.7 -3.6,0.9 -7.2,0.9 -10.9,0.6" /><path
               id="path2-9"
               class="cls-5"
               d="m 185.7,233.3 c 2.6,-3.6 4.5,-7.5 5.2,-11.6 -0.6,2.9 -2.2,5.4 -3.7,8.1 -8.2,5.2 -0.8,-3.1 0,-6.2 -8.8,11.1 -1.2,6.6 -1.5,9.7" /><path
               id="path3-7"
               class="cls-5"
               d="m 194.4,210.7 c 0.5,-7.9 -1.6,-5.4 -2.3,-2.4 0.8,0.4 1.5,5.6 2.3,2.4" /><path
               id="path4-2"
               class="cls-5"
               d="m 145.5,102.8 c 2.3,0.4 5.1,0.7 4.7,1.3 2.6,-0.6 3.1,-1.1 -4.7,-1.3" /><path
               id="path5-2"
               class="cls-5"
               d="m 150.2,104.1 -1.7,0.3 h 1.5 c 0,-0.1 0.1,-0.3 0.1,-0.3" /><path
               id="path6-8"
               class="cls-5"
               d="m 223.1,213.7 c 0.3,7.1 -2.1,10.5 -4.2,16.6 l -3.8,1.9 c -3.1,6 0.3,3.8 -1.9,8.6 -4.8,4.3 -14.7,13.5 -17.8,14.3 -2.3,0 1.6,-2.7 2.1,-3.8 -6.5,4.5 -5.2,6.7 -15.1,9.4 l -0.3,-0.6 c -24.4,11.5 -58.4,-11.3 -57.9,-42.4 -0.3,2 -0.7,1.5 -1.3,2.3 -1.3,-16 7.4,-32.1 22,-38.6 14.3,-7.1 31,-4.2 41.2,5.4 -5.6,-7.4 -16.8,-15.2 -30,-14.4 -13,0.2 -25.1,8.4 -29.2,17.4 -6.6,4.2 -7.4,16.1 -10.3,18.3 -3.9,28.6 7.3,41 26.3,55.6 3,2 0.8,2.3 1.2,3.9 -6.3,-3 -12.1,-7.4 -16.8,-12.9 2.5,3.7 5.2,7.3 8.8,10.1 -3,-1 -6.4,-4.6 -9.5,-8 -0.4,-0.4 -1.5,-2 -3.4,-3.9 -1.3,-1.3 -2.5,-2.4 -3.4,-3 2.7,4.3 11.2,15.3 26.7,22.1 11.2,4.9 23.1,6.6 31.3,3.2 -7.6,0.3 -17.2,0.2 -25.8,-3 -3.6,-1.8 -8.5,-5.7 -7.6,-6.4 22.4,8.4 45.5,6.3 64.9,-9.2 4.9,-3.8 10.3,-10.4 11.9,-10.5 -2.3,3.5 0.4,1.7 -1.4,4.8 4.9,-7.9 -2.1,-3.2 5.1,-13.7 l 2.7,3.7 c -1,-6.6 8.2,-14.6 7.2,-25 2.1,-3.2 2.3,3.4 0.1,10.7 3.1,-8.1 0.8,-9.4 1.6,-16.1 0.9,2.3 2,4.6 2.6,7 -2,-7.8 2.1,-13.2 3.1,-17.8 -1,-0.4 -3.1,3.5 -3.6,-5.8 0,-4 1.1,-2.1 1.5,-3.1 -0.8,-0.5 -2.9,-3.5 -4.1,-9.5 0.9,-1.4 2.4,3.6 3.7,3.8 -0.8,-4.7 -2.2,-8.3 -2.2,-11.9 -3.6,-7.6 -1.3,1 -4.2,-3.3 -3.9,-12.1 3.2,-2.8 3.7,-8.3 5.9,8.5 9.2,21.7 10.7,27.1 -1.2,-6.6 -3.1,-13.1 -5.4,-19.3 1.8,0.8 -2.9,-13.7 2.3,-4.1 -5.5,-20.4 -23.7,-39.4 -40.4,-48.4 2,1.9 4.6,4.2 3.7,4.6 -8.3,-4.9 -6.9,-5.3 -8,-7.4 -6.8,-2.8 -7.2,0.2 -11.7,0 -12.8,-6.8 -15.2,-6 -27,-10.3 l 0.5,2.5 c -8.5,-2.8 -9.8,1.1 -19,0 -0.6,-0.4 2.9,-1.6 5.8,-2 -8.2,1.1 -7.8,-1.6 -15.8,0.3 2,-1.4 4.1,-2.3 6.2,-3.5 -6.7,0.4 -15.9,3.9 -13.1,0.7 -10.9,4.9 -30.2,11.7 -41,21.8 l -0.3,-2.3 c -5,6 -21.7,17.8 -23,25.5 l -1.3,0.3 c -2.6,4.4 -4.3,9.3 -6.3,13.8 -3.4,5.8 -5,2.2 -4.5,3.1 -6.6,13.5 -9.9,24.8 -12.8,34.1 2,3 0,18.3 0.8,30.5 -3.3,60.3 42.3,118.8 92.2,132.3 7.3,2.6 18.2,2.5 27.4,2.8 -10.9,-3.1 -12.3,-1.7 -22.9,-5.4 -7.7,-3.6 -9.4,-7.7 -14.8,-12.4 l 2.1,3.8 c -10.6,-3.8 -6.2,-4.7 -14.9,-7.4 l 2.3,-3 c -3.4,-0.3 -9.1,-5.8 -10.7,-8.9 h -3.8 c -4.5,-5.4 -7,-9.5 -6.8,-12.6 l -1.2,2.2 c -1.4,-2.4 -16.7,-21 -8.8,-16.7 -1.5,-1.4 -3.4,-2.2 -5.6,-6.1 l 1.6,-1.8 c -3.8,-4.9 -7,-11.2 -6.8,-13.3 2,2.8 3.4,3.3 4.9,3.7 -9.7,-24 -10.2,-1.3 -17.5,-24.4 h 1.5 c -1.2,-1.9 -1.9,-3.8 -2.9,-5.7 l 0.7,-6.7 c -6.9,-8 -1.9,-34.2 -0.9,-48.5 0.7,-5.8 5.8,-12 9.7,-21.8 l -2.4,-0.4 c 4.5,-7.9 25.8,-31.7 35.7,-30.5 4.8,-6 -0.9,0 -1.9,-1.5 10.5,-10.9 13.8,-7.7 20.9,-9.6 7.6,-4.5 -6.6,1.8 -2.9,-1.7 13.2,-3.4 9.4,-7.7 26.6,-9.4 1.8,1 -4.2,1.6 -5.7,2.9 11,-5.4 34.8,-4.2 50.3,3 18,8.4 38.1,33.2 38.9,56.5 l 0.9,0.2 c -0.5,9.3 1.4,20 -1.8,29.9 l 2.2,-4.7"
               style="fill:#8a1829;fill-opacity:1" /><path
               id="path7-2"
               class="cls-5"
               d="m 114.3,245.2 -0.6,3.1 c 2.9,3.9 5.2,8.2 8.9,11.2 -2.6,-5.2 -4.6,-7.3 -8.2,-14.3" /><path
               id="path8-8"
               class="cls-5"
               d="m 121.1,244.9 c -1.5,-1.7 -2.4,-3.7 -3.4,-5.7 1,3.6 2.9,6.6 4.8,9.7 l -1.4,-4" /><path
               id="path9-9"
               class="cls-5"
               d="m 241.6,218.7 -0.6,1.6 c -1.2,8.4 -3.7,16.7 -7.6,24.4 4.3,-8.1 7.1,-17 8.3,-26" /><path
               id="path10-0"
               class="cls-5"
               d="m 146.4,100.7 c 3,-1.1 7.3,-0.6 10.4,-1.3 -4.1,0.3 -8.2,0.6 -12.2,1.1 l 1.8,0.2" /><path
               id="path11-7"
               class="cls-5"
               d="m 42.3,156 c 0.7,6.3 -4.8,8.8 1.2,4.6 3.2,-7.2 -1.2,-2 -1.2,-4.6" /><path
               id="path12-8"
               class="cls-5"
               d="m 35.3,185.3 c 1.4,-4.2 1.6,-6.7 2.1,-9.2 -3.8,4.9 -1.7,5.9 -2.1,9.2" /><path
               id="path13-1"
               class="cls-2"
               d="m 116.7,263.6 c -1.4,-0.1 -2.9,-0.2 -4.3,-0.3 4.5,-3.5 10.9,-9 17.5,-16.8 4,-4.8 6.9,-9 16.3,-24.3 4.1,-6.8 9.4,-15.5 15.5,-25.9 11.3,16.6 22.6,33.1 34,49.7 5.2,5.1 10.4,10.2 15.6,15.3 -1,0.2 -2,0.4 -3.1,0.6 V 279 c -2.2,3.2 -4.4,6.4 -6.6,9.6 0.3,27.4 0.6,54.9 0.9,82.3 -1.9,-0.6 -4.3,-1.4 -7.2,-2.2 0,0 -4.5,-1.3 -9,-2.5 -9.1,-2.3 -23.9,-4.7 -26,-5 0,0 -0.1,0 -0.2,0 -8.4,-1.3 -18.6,-3.3 -31.2,-6.3 -3.2,-1.2 -6.5,-2.4 -9.7,-3.7 0.1,-21.7 0.3,-43.5 0.4,-65.2 -1.1,-2.8 -2.1,-5.6 -3.2,-8.4 0,-4.7 0.2,-9.5 0.3,-14.2 v 0 z" /><path
               id="path14-5"
               class="cls-3"
               d="m 119.5,279.4 c 28.9,-0.3 57.8,-0.6 86.7,-0.9" /><rect
               id="rect14-8"
               class="cls-1"
               x="143"
               y="264.70001"
               width="7.3000002"
               height="9.1000004" /><rect
               id="rect15-6"
               class="cls-1"
               x="159.3"
               y="264.29999"
               width="8.6000004"
               height="9.1000004" /><rect
               id="rect16-1"
               class="cls-1"
               x="177.2"
               y="264.29999"
               width="7.5999999"
               height="8.6999998" /><rect
               id="rect17-2"
               class="cls-1"
               x="192.3"
               y="264.70001"
               width="5.5999999"
               height="8.3000002" /><rect
               id="rect18-4"
               class="cls-1"
               x="203.2"
               y="265.20001"
               width="2.0999999"
               height="7.8000002" /><rect
               id="rect19-2"
               class="cls-1"
               x="129"
               y="265.60001"
               width="5.5999999"
               height="8.6000004" /><rect
               id="rect20-5"
               class="cls-1"
               x="120.6"
               y="266.39999"
               width="2.5999999"
               height="8.5" /><path
               id="path20-8"
               class="cls-1"
               d="m 189.4,350 h -10 v -21.1 c 0.3,-1.7 0.9,-4 2.1,-6.5 0.9,-1.9 2,-3.4 2.9,-4.6 1,1.1 2.3,2.7 3.4,5 1.1,2.4 1.5,4.5 1.6,5.9 v 21.2 z" /><path
               id="path21-6"
               class="cls-1"
               d="m 199.7,315.4 h -2.9 v -11.2 c 0,-0.9 0.3,-2.1 0.6,-3.5 0.3,-1 0.6,-1.8 0.8,-2.4 0.3,0.6 0.7,1.4 1,2.7 0.3,1.3 0.4,2.4 0.5,3.2 v 11.3 z" /><path
               id="path22-2"
               class="cls-3"
               d="M 195.3,324 H 194 v -4.9 c 0,-0.4 0.1,-0.9 0.3,-1.5 0.1,-0.4 0.3,-0.8 0.4,-1.1 0.1,0.3 0.3,0.6 0.4,1.2 0.1,0.6 0.2,1.1 0.2,1.4 v 5 0 z" /><path
               id="path23-6"
               class="cls-1"
               d="M 195.3,324 H 194 v -4.9 c 0,-0.4 0.1,-0.9 0.3,-1.5 0.1,-0.4 0.3,-0.8 0.4,-1.1 0.1,0.3 0.3,0.6 0.4,1.2 0.1,0.6 0.2,1.1 0.2,1.4 v 5 0 z" /><path
               id="path24-5"
               class="cls-1"
               d="m 188.2,304.8 h -5.6 v -9.5 c 0.2,-0.8 0.5,-1.8 1.2,-2.9 0.5,-0.9 1.1,-1.5 1.6,-2 0.6,0.5 1.3,1.2 1.9,2.3 0.6,1.1 0.8,2 0.9,2.7 v 9.5 z" /><path
               id="path25-3"
               class="cls-1"
               d="M 123.5,302.8 H 122 v -6.2 c 0,-0.5 0.1,-1.2 0.3,-1.9 0.1,-0.6 0.3,-1 0.4,-1.3 0.1,0.3 0.3,0.8 0.5,1.5 0.2,0.7 0.2,1.3 0.2,1.7 v 6.3 0 z" /><path
               id="path26-9"
               class="cls-1"
               d="M 123.5,320 H 122 v -6.2 c 0,-0.5 0.1,-1.2 0.3,-1.9 0.1,-0.6 0.3,-1 0.4,-1.3 0.1,0.3 0.3,0.8 0.5,1.5 0.2,0.7 0.2,1.3 0.2,1.7 v 6.3 0 z" /><path
               id="path27-2"
               class="cls-4"
               d="m 479.8,366 c -23.9,7 -54.8,13.3 -91.1,13.9 -17.7,0.3 -34,-0.8 -48.4,-2.6 v 0 c 0,0 7.7,2.8 7.5,4 -0.2,1.5 -13.7,-0.7 -33.2,-0.5 0,0 -29.1,0.2 -30,-2.4 -0.3,-0.7 0,-1.4 0,-1.4 0.8,-2.8 7.4,-3.1 8.7,-3.1 -11.8,-0.8 -21.6,-1.5 -28.8,-2.1 -19.3,-1.6 -28.9,-2.3 -39.8,-3.9 -12.8,-1.9 -12.8,-2.5 -19.7,-2.9 -7.5,-0.5 -14.8,-3 -22.3,-2.4 -0.3,0 -1.2,0.1 -1.4,-0.3 -0.3,-0.5 0.9,-1.6 2.1,-2.7 -7.8,1.2 -19.5,2.2 -33.3,-0.2 -12.3,-2.1 -22,-6.2 -28.6,-9.6 l -8.6,3.6 c 4.9,2.6 10.2,5.2 15.8,7.6 22.6,9.7 44,14.3 62,16.4 -1.1,-0.3 -3.3,-0.9 -3.4,-2 0.2,-0.6 0.6,-1.3 1.4,-1.7 2.6,-1.4 7,2.4 8.5,3.6 4.6,3.6 9,3.7 23.3,6.2 27.5,4.8 32.4,8.1 58.6,11.5 31.7,4 55.2,3.1 55.3,1.9 0,-0.5 -4.6,-1.2 -4.6,-2.4 0,-0.9 2.4,-1.6 3.8,-1.9 4.8,-0.9 8.7,1.3 11.9,2.6 10,4.3 20,3.4 26.2,2.9 3.7,-0.3 6.6,-0.9 8.3,-1.3 -3.8,-0.7 -8.4,-1.8 -8.4,-3.2 0,-1 2.4,-1.7 2.9,-1.9 7.7,-2.4 13.7,5.1 25.6,7.4 5.5,1.1 9.8,0.5 12.6,0.2 14.2,-1.7 23.3,-9.7 24.6,-8.1 0.4,0.5 0,1.7 -3,5.3 20.9,-3.6 38.3,-7.1 51.4,-10 15.8,-3.4 24.4,-5.7 33.6,-8.5 7.6,-2.4 13.7,-4.7 25.8,-9.2 30.6,-11.4 36.1,-15.1 54.9,-20.6 10.3,-3 19.9,-5.3 23,-6 8.5,-2 12.7,-2.9 17.6,-3.6 7.2,-0.9 17.2,-2.2 28.1,0.4 10.4,2.4 17.2,7.3 25.7,13.3 7.3,5.2 18,14 28,28 -2.5,-7.4 -8,-20.4 -19.9,-32.6 -12.9,-13.4 -26.6,-18.9 -29.7,-20.1 -22.4,-8.6 -43.5,-3.5 -65.9,1.7 -9.7,2.3 -18.8,5.5 -18.8,5.5 -8.2,2.9 -10,4.3 -18.5,7.7 -14.6,5.9 -26.3,8.7 -29.8,9.6 -5.9,1.4 -14.1,3 -23.9,4 6.3,1.9 7.6,3.1 7.5,3.8 -0.2,1.9 -9,1.4 -21.7,3.9 -7.7,1.6 -15.5,5.8 -24.1,7.1 -0.9,0.1 -2.7,0.4 -2.9,-0.2 -0.4,-0.9 2.7,-3.1 5.4,-4.8 z" /><path
               id="path28-4"
               class="cls-4"
               d="m 667.1,314.4 c 4,2.5 10.3,5.7 18.4,7.3 10,2 21.4,1.3 21.7,-0.8 0.2,-1.1 -2.3,-3 -14.2,-6.8 -3.6,0 -7.2,0 -10.9,0 -5.1,0 -10.1,0.1 -15.1,0.2 v 0 z" /><path
               id="path29-6"
               class="cls-4"
               d="m 643.7,293.8 c 1.5,1.6 9.2,9.2 21.4,9.6 10.9,0.3 18.3,-5.3 20.3,-6.8 -2,-1.4 -4.7,-2.9 -8.2,-3.8 -8.9,-2.5 -16.5,0.3 -19.3,1.5 -1.8,0.2 -3.7,0.3 -5.5,0.5" /><path
               id="path30-1"
               class="cls-5"
               d="m 133.01239,363.01686 c 6.3,2 16.4,4.1 29.7,3 -11.8,-3.4 -13.3,-1.8 -24.8,-5.8 -8.3,-3.9 -10.1,-8.4 -16,-13.5 l 2.3,4.1 c -11.5,-4.1 -6.7,-5 -16.1,-8 l 2.5,-3.2 c -3.7,-0.3 -9.9,-6.3 -11.599998,-9.6 l -4.1,0.2 c -4.9,-6.1 -7.5,-10.4 -7.3,-13.8 -0.4,0.8 -0.9,1.6 -1.3,2.3 -6,0 -12,0 -18,0 2.7,3.7 6.5,8.3 11.5,13.3 2.2,2.2 5.8,5.8 10.7,9.5 2.9,2.2 7.7,5.6 23.999998,13.3 10.2,4.8 15.2,7.2 18.6,8.3 v 0 z"
               style="fill:#8a1829;fill-opacity:1" /></g></g></g></g></g></svg>
