<?xml version="1.0" encoding="UTF-8"?>
<svg xmlns="http://www.w3.org/2000/svg" xmlns:xlink="http://www.w3.org/1999/xlink" id="svg4199" width="170" height="50" version="1.1" viewBox="0 0 170 50">
 <g id="layer1" transform="translate(-31.863 -965.36)">
  <g id="g2533" transform="matrix(2.5668 0 0 2.5668 -52.19 811.57)">
   <path id="path2362" d="m41.822 71.236c-0.6198 0-1.2073 0.04056-1.7436 0.11333 0.17781 0.16013 0.36862 0.30499 0.5677 0.43847a3.9565 1.0241 0 0 1 1.1749-0.04769 3.9565 1.0241 0 0 1 3.957 1.0241 3.9565 1.0241 0 0 1-3.957 1.0241 3.9565 1.0241 0 0 1-3.9565-1.0241 3.9565 1.0241 0 0 1 1.9282-0.87847c-0.15177-0.12988-0.2969-0.26711-0.43385-0.41282-0.21141 0.04512-0.41225 0.09544-0.59744 0.1518-0.40281 0.12259-0.74064 0.26987-0.99847 0.45539-0.25784 0.18551-0.45129 0.4321-0.45129 0.7195 0 0.0084 0.0017 0.01627 0.0021 0.02462h-0.0047c0.0018 0.01083 0.0053 0.02198 0.0071 0.03282 0.0054 0.05877 0.01817 0.11588 0.03846 0.17077 4e-3 0.01477 0.0054 0.02927 0.0097 0.0441 0.58172 1.9438 1.995 3.5975 4.4565 3.5975 2.4615 0 3.8849-1.6858 4.457-3.5975 0.0046-0.01542 0.0062-0.03078 0.01026-0.04615 0.01971-0.05418 0.03215-0.11076 0.03743-0.16872 0.0019-0.01098 0.0054-0.02185 0.0071-0.03282h-0.0047c3.25e-4 -0.0083 0.0021-0.0162 0.0021-0.02462 0-0.28739-0.19191-0.53398-0.44975-0.7195-0.25784-0.18552-0.59566-0.3328-0.99847-0.45539-0.80562-0.24517-1.8766-0.38872-3.06-0.38872z" color="#000000" color-rendering="auto" fill="#4b0080" image-rendering="auto" shape-rendering="auto" style="isolation:auto;mix-blend-mode:normal"/>
   <path id="path1498" d="m42.589 62.695c-0.92038-0.11726-1.8634 0.09758-2.6558 0.56603-1.2735 0.75279-2.0961 2.1207-2.311 3.5648-0.21827 1.4668 0.17244 3.0044 1.0646 4.189s2.2616 1.9845 3.7317 2.1798a0.29799 0.29799 0 1 0 0.07872-0.59039c-1.3061-0.17348-2.5416-0.89487-3.3343-1.9474-0.79268-1.0525-1.1442-2.4397-0.95025-3.7429 0.19017-1.278 0.92854-2.4936 2.0242-3.1413 0.68183-0.40305 1.4987-0.5865 2.2772-0.48731 0.77708 0.099 1.5228 0.48862 2.0261 1.0796 0.52719 0.61902 0.7871 1.4778 0.65787 2.2716-0.06484 0.39824-0.22408 0.78222-0.46107 1.1058-0.23685 0.32342-0.55464 0.5901-0.91464 0.76095-0.28011 0.13294-0.58722 0.20825-0.89027 0.21179-0.3024 0.0035-0.6054-0.06654-0.86591-0.20617-0.37356-0.20022-0.66864-0.56208-0.77782-0.96524-0.10871-0.40143-0.03331-0.86183 0.2043-1.1958 0.18204-0.25586 0.46435-0.44839 0.76845-0.52667 0.3041-0.07829 0.64292-0.04618 0.92589 0.08996a0.29799 0.29799 0 1 0 0.25865-0.53604c-0.4132-0.19882-0.89039-0.24552-1.3345-0.1312-0.44408 0.11432-0.8381 0.38544-1.1039 0.75908-0.34888 0.49033-0.44998 1.1231-0.29426 1.6981 0.15526 0.57329 0.55401 1.0568 1.0721 1.3345 0.35657 0.19111 0.75687 0.2802 1.1545 0.27552 0.39702-0.0046 0.78528-0.10265 1.1377-0.26989 0.45287-0.21493 0.84666-0.54399 1.1414-0.9465 0.29464-0.40233 0.48816-0.87275 0.5679-1.3626 0.15992-0.98232-0.15134-2.0023-0.79094-2.7533-0.60713-0.71289-1.4847-1.1664-2.4066-1.2839z" color="#000000" color-rendering="auto" fill="#a80030" fill-rule="evenodd" image-rendering="auto" shape-rendering="auto" style="isolation:auto;mix-blend-mode:normal;text-decoration-color:#000000;text-decoration-line:none;text-decoration-style:solid;text-indent:0;text-transform:none;white-space:normal"/>
   <path id="path2310" d="m35.178 62.644c-0.20784 0.0032-0.37393 0.19901-0.37056 0.43704l0.19507 13.381c0 0.1382 0.0905 0.2073 0.181 0.2073 0.0905 0 0.181-0.0691 0.181-0.2073l0.19507-13.381c0.0034-0.24298-0.16943-0.44098-0.38159-0.43704z" color="#000000" color-rendering="auto" fill="#a80030" fill-rule="evenodd" image-rendering="auto" shape-rendering="auto" style="isolation:auto;mix-blend-mode:normal;text-decoration-color:#000000;text-decoration-line:none;text-decoration-style:solid;text-indent:0;text-transform:none;white-space:normal"/>
   <use id="use2337" transform="translate(1.2531)" width="100%" height="100%" xlink:href="#path2310"/>
  </g>
  <g id="text2392" transform="matrix(9.5915 0 0 9.5915 -255.4 231.02)" fill="#4b0080" stroke-width=".074066px">
   <path id="path2544" d="m34.612 78.243 0.0089 1.3184-0.0089 0.57476c0.14813 0.0059 0.50069 0.01481 0.59253 0.01481 0.56883 0 0.88287-0.36441 0.88287-1.0251 0-0.57772-0.29627-0.89472-0.83251-0.89472zm0.61327 1.7776c-0.06518 0-0.32293-0.0089-0.45921-0.01778l-0.0059-0.45032 0.0089-1.1762c0.12147-0.0059 0.41477-0.01481 0.47699-0.01481 0.4444 0 0.68437 0.2696 0.68437 0.79103 0 0.56883-0.25479 0.86806-0.70511 0.86806z"/>
   <path id="path2546" d="m36.969 78.77c-0.36144 0-0.59549 0.2696-0.59549 0.70511 0 0.41477 0.21331 0.67845 0.57476 0.67845 0.14221 0 0.28145-0.04444 0.397-0.11851l0.01778-0.13332-0.0237-0.0089c-0.10962 0.08592-0.25182 0.13332-0.37922 0.13332-0.28738 0-0.44144-0.21627-0.44144-0.55994v-0.0474l0.86213-0.01481 0.03555-0.02963c3e-3 -0.02963 0.0059-0.08592 0.0059-0.11258 0-0.30515-0.16887-0.4918-0.45329-0.4918zm0.30812 0.5155-0.74659 0.02074c0.04444-0.26368 0.1985-0.4207 0.42662-0.4207 0.19554 0 0.32589 0.12443 0.32589 0.36144z"/>
   <path id="path2548" d="m38.398 78.773c-0.15406 0.02074-0.28145 0.08592-0.40588 0.20739h-0.01481l0.0059-0.92435-0.1511 0.01481 0.0089 1.4932-0.01185 0.57179 0.02963 0.01778 0.10962-0.05333c0.09777 0.03555 0.20146 0.05629 0.30219 0.05629 0.40292 0 0.63993-0.26664 0.63993-0.73178 0-0.40885-0.18072-0.65178-0.51254-0.65178zm-0.11554 1.2651c-0.09184 0-0.19257-0.02666-0.30219-0.08295l-0.0059-0.40588 3e-3 -0.41774c0.12739-0.15406 0.26368-0.22812 0.40885-0.22812 0.23998 0 0.37626 0.19554 0.37922 0.53328 3e-3 0.39403-0.18072 0.60142-0.48291 0.60142z"/>
   <path id="path2550" d="m40 78.228c-0.52143 0-0.81473 0.34959-0.81473 0.97175 0 0.61327 0.28145 0.95398 0.77918 0.95398 0.18961 0 0.3733-0.05925 0.5392-0.16887l0.01185-0.14517-0.0237-0.0089c-0.1511 0.11851-0.33478 0.18665-0.51846 0.18665-0.40292 0-0.63105-0.28738-0.63105-0.82658s0.23109-0.82954 0.65178-0.82954c0.17776 0 0.33774 0.06222 0.4681 0.16591l0.0237-3e-3 0.03259-0.13924c-0.14221-0.10073-0.32589-0.15702-0.51846-0.15702z"/>
   <path id="path2552" d="m41.268 78.767c-0.37033 0-0.58957 0.26368-0.58957 0.71104 0 0.42366 0.20739 0.67549 0.5629 0.67549 0.3733 0 0.59253-0.26368 0.59253-0.70808 0-0.42662-0.21035-0.67845-0.56587-0.67845zm-0.0059 0.11554c0.2696 0 0.42662 0.21331 0.42662 0.59253 0 0.36144-0.15998 0.5629-0.44144 0.5629-0.26664 0-0.42366-0.20739-0.42366-0.58957 0-0.35848 0.15998-0.56587 0.43847-0.56587z"/>
   <path id="path2554" d="m43.094 80.136h0.15406l-0.0059-0.58364 3e-3 -0.37922c3e-3 -0.25479-0.14517-0.40292-0.4207-0.40292-0.13332 0.01481-0.28442 0.09777-0.41773 0.22812h-0.01481v-0.21627l-0.14517 0.01778 0.0059 0.75844-0.0089 0.57772h0.15406l-0.0089-0.58661 3e-3 -0.39996c0.13623-0.15702 0.29325-0.2459 0.43546-0.2459 0.18072 0 0.27849 0.11258 0.27553 0.29923z"/>
   <path id="path2556" d="m44.22 78.05c-0.27256 0-0.42662 0.16295-0.42662 0.46217l3e-3 0.27849h-0.20146l-0.01185 0.0948 0.01185 0.01481h0.20146l3e-3 0.6666-0.0089 0.56883h0.1511l-0.0089-0.58364 0.0059-0.65178h0.35848l0.01185-0.09481-0.0089-0.01481h-0.36144l3e-3 -0.29626c0-0.21331 0.09481-0.32589 0.2696-0.32589 0.0711 0 0.13036 0.01185 0.20146 0.04148l0.01481-0.0089 0.01185-0.12443c-0.07999-0.01778-0.1511-0.02666-0.21924-0.02666z"/>
  </g>
  <g id="text2623" transform="matrix(2.8175 0 .3223 2.8175 46.045 748.25)" fill="#a80030">
   <path id="path2625" d="m38.169 83.402-0.127-0.10583-2.3389 0.66675-0.09525 0.81492 0.08467 0.05292 1.3547-0.35983-0.254 2.0955-0.43921 2.9342h1.0372l0.34396-3.0506z"/>
   <path id="path2627" d="m41.832 83.225c-1.1853 0-1.9897 0.73025-1.9897 1.778 0 0.74083 0.381 1.0795 0.84667 1.3441l-0.01058 0.05292c-0.762 0.33867-1.4076 0.762-1.4076 1.6298 0 0.93133 0.75142 1.5557 1.9368 1.5557 1.3123 0 2.1696-0.77258 2.1696-1.8415 0-0.8255-0.48683-1.1748-1.0372-1.4605l0.01058-0.05292c0.58208-0.29633 1.1748-0.75142 1.1748-1.5769 0-0.89958-0.66675-1.4288-1.6933-1.4288zm-0.02117 0.71967c0.5715 0 0.87842 0.29633 0.87842 0.80433 0 0.64558-0.508 0.96308-1.0583 1.2065-0.52917-0.22225-0.94192-0.45508-0.94192-1.0372 0-0.5715 0.45508-0.97367 1.1218-0.97367zm-0.43392 2.7517c0.66675 0.27517 1.143 0.508 1.143 1.1112 0 0.59267-0.51858 1.0689-1.2912 1.0689-0.6985 0-1.0795-0.381-1.0795-0.97367 0-0.70908 0.59267-0.97367 1.2277-1.2065z"/>
  </g>
 </g>
</svg>
