<?xml version="1.0" encoding="UTF-8" standalone="no"?>
<!-- Created with Inkscape (http://www.inkscape.org/) -->
<svg xmlns:dc="http://purl.org/dc/elements/1.1/" xmlns:cc="http://creativecommons.org/ns#" xmlns:rdf="http://www.w3.org/1999/02/22-rdf-syntax-ns#" xmlns:svg="http://www.w3.org/2000/svg" xmlns="http://www.w3.org/2000/svg" xmlns:sodipodi="http://sodipodi.sourceforge.net/DTD/sodipodi-0.dtd" xmlns:inkscape="http://www.inkscape.org/namespaces/inkscape" width="102.39432mm" height="60.380447mm" viewBox="0 0 362.81451 213.94647" id="svg3571" version="1.1">
  <defs id="defs3573"/>
  
  <metadata id="metadata3576">
    
  </metadata>
  <g id="layer1" transform="translate(-192.45413,-86.587955)">
    <path style="color:#000000;font-style:normal;font-variant:normal;font-weight:normal;font-stretch:normal;font-size:medium;line-height:normal;font-family:sans-serif;text-indent:0;text-align:start;text-decoration:none;text-decoration-line:none;text-decoration-style:solid;text-decoration-color:#000000;letter-spacing:normal;word-spacing:normal;text-transform:none;writing-mode:lr-tb;direction:ltr;baseline-shift:baseline;text-anchor:start;white-space:normal;clip-rule:nonzero;display:inline;overflow:visible;visibility:visible;opacity:1;isolation:auto;mix-blend-mode:normal;color-interpolation:sRGB;color-interpolation-filters:linearRGB;solid-color:#000000;solid-opacity:1;fill:#1b75bc;fill-opacity:1;fill-rule:nonzero;stroke:none;stroke-width:1;stroke-linecap:square;stroke-linejoin:miter;stroke-miterlimit:10;stroke-dasharray:none;stroke-dashoffset:0;stroke-opacity:1;color-rendering:auto;image-rendering:auto;shape-rendering:auto;text-rendering:auto;enable-background:accumulate" d="m 376.81021,90.059147 -0.79494,0.556453 c -4.32476,3.036549 -13.43865,6.522083 -21.37988,9.153081 -7.94125,2.630999 -14.75167,4.466769 -14.75167,4.466769 l -0.37853,0.10213 -0.20064,0.34069 C 293.0259,182.77351 200.50566,211.03639 200.50566,211.03639 l -0.92742,0.28012 0.56403,1.85484 0.92741,-0.28392 c 0,0 92.86727,-28.26024 139.68468,-106.89184 0.32382,-0.0876 6.68636,-1.80172 14.49047,-4.38726 7.9998,-2.650404 17.10273,-6.043664 21.88713,-9.402909 l 0.79114,-0.560253 -1.11289,-1.586079 z m 1.1621,4.073094 -0.79114,0.556454 c -4.32476,3.036529 -13.44243,6.518285 -21.38366,9.149285 -7.94126,2.63099 -14.74789,4.46676 -14.74789,4.46676 l -0.38232,0.10214 -0.20063,0.34068 C 294.18801,186.84281 201.66778,215.10569 201.66778,215.10569 l -0.92743,0.28012 0.56403,1.85483 0.92741,-0.28391 c 0,0 92.86677,-28.25852 139.68469,-106.88807 0.3238,-0.0876 6.68634,-1.80547 14.49047,-4.39104 5.42098,-1.79602 11.31817,-3.93746 16.06519,-6.173977 -5.86502,5.086347 -13.68388,13.454387 -22.58741,23.673817 -11.57315,13.28366 -24.84489,29.59642 -37.39966,45.44741 -25.06497,31.64575 -47.22725,61.38417 -47.30602,61.48989 -5.77418,2.54039 -11.04623,5.08315 -15.97435,7.62377 h 4.34185 c 4.06862,-2.03012 8.30115,-4.06021 12.94225,-6.0907 h 0.004 c 25.49254,-11.20126 58.50269,-21.04309 96.71673,-21.42909 34.70752,-0.35597 78.97231,6.87959 119.39497,27.51979 h 4.23964 c -41.66164,-22.16432 -87.69949,-29.82668 -123.65355,-29.45791 -17.88051,0.18063 -34.60987,2.42891 -49.98986,5.89764 1.99031,-8.98305 15.8619,-63.63234 65.22984,-93.25308 l 0.46939,-0.28014 V 95.846954 l 0.18548,-0.128692 -1.1129,-1.586079 z m -1.01069,4.266131 v 21.175468 c -51.81815,31.41256 -64.77311,89.81548 -65.85064,95.08143 -15.64226,3.66995 -29.82832,8.59333 -42.32445,13.90374 2.93804,-3.93293 21.98138,-29.39013 45.22027,-58.73032 12.54388,-15.83724 25.80015,-32.1349 37.33908,-45.37926 10.70572,-12.28802 19.96885,-21.90825 25.61574,-26.051058 z m -66.67208,58.132248 v 1.93811 h 6.00742 v -1.93811 z m -4.65224,5.42824 v 1.93812 h 6.0112 v -1.93812 z m -5.61752,5.62131 v 1.93811 h 5.81436 v -1.93811 z m -6.39731,5.42446 v 1.93812 h 5.81436 v -1.93812 z m -9.10765,5.62131 v 1.93812 h 8.5247 v -1.93812 z m -7.55942,5.6213 v 1.93812 h 11.82177 v -1.93812 z m -6.78342,5.42447 v 1.93812 h 13.56684 v -1.93812 z m -8.14237,5.6213 v 1.93812 h 15.89485 v -1.93812 z m -6.39353,5.42825 v 1.93812 h 16.28096 v -1.93812 z m -9.88365,5.6213 v 1.93812 h 19.96036 v -1.93812 z m -8.52849,5.42447 v 1.93812 h 25.58167 v -1.93812 z m 126.35254,1.35895 c -42.03245,0.38109 -77.7075,12.09956 -104.17771,24.61261 h 4.58409 c 25.8615,-11.74559 59.89558,-22.31503 99.61633,-22.67449 31.87333,-0.35024 71.88033,5.70272 109.43562,22.67449 h 4.70145 c -38.98204,-18.49649 -80.91771,-24.97737 -114.156,-24.61261 h -0.004 z m -138.37115,4.26235 v 1.93812 h 32.56193 v -1.93812 z m 137.79198,0 c -37.24407,0.38596 -69.30733,9.57737 -94.68395,20.35026 h 5.05349 c 24.48312,-9.90883 54.78518,-18.05086 89.6494,-18.41214 h 0.004 c 29.09575,-0.34433 64.983,4.7176 99.51791,18.41214 h 5.15949 C 431.53635,222.55978 393.5869,217.02633 362.99744,217.38833 Z m -147.48257,5.6213 v 1.93812 h 40.50745 v -1.93812 z" id="path6152"/>
    <path style="fill:#be1e2d" d="m 192.45413,237.73859 v 43.22158 h 25.77473 c 2.71337,0 5.03987,-0.38914 7.55942,-1.55201 2.51956,-1.16287 4.84606,-2.71412 6.59036,-4.65224 1.93812,-1.93812 3.29254,-4.26311 4.45541,-6.97648 1.16287,-2.51955 1.74507,-5.42825 1.74507,-8.33542 0,-3.87624 -0.77601,-7.55792 -2.71413,-10.85272 -1.93812,-3.2948 -4.45465,-6.00741 -7.55564,-7.94553 -3.10099,-1.93812 -6.39806,-2.90718 -10.08049,-2.90718 z m 2.13118,1.35517 h 23.64355 c 2.32574,0 4.65073,0.58295 6.97647,1.55201 2.13194,1.16287 4.07006,2.51804 5.81436,4.26235 1.5505,1.93812 2.90718,3.87775 3.87624,6.3973 0.96906,2.51956 1.55201,5.03912 1.55201,7.75248 0,2.71337 -0.58295,5.23293 -1.55201,7.75248 -0.96906,2.51956 -2.13193,4.653 -3.87624,6.39731 -1.55049,1.74431 -3.68242,3.29329 -5.81436,4.26235 -2.13193,0.96906 -4.45692,1.55201 -6.97647,1.55201 h -23.64355 z m 1.93812,2.52107 v 35.66215 h 21.70543 c 2.90718,0 5.62281,-0.5837 8.14237,-2.32801 2.51955,-1.7443 4.45692,-3.87321 6.00741,-6.58658 1.35669,-2.71337 2.13118,-5.62357 2.13118,-8.91837 0,-3.101 -0.58068,-6.20123 -2.13118,-8.9146 -1.55049,-2.90718 -3.48786,-5.03987 -6.00741,-6.59036 -2.51956,-1.5505 -5.23519,-2.32423 -8.14237,-2.32423 z m 46.51487,1.74506 v 37.60028 h 1.93812 v -37.60028 z m 4.0693,0 v 37.60028 h 1.93812 v -37.60028 z m 4.06929,0 v 37.60028 h 1.93812 v -37.60028 z m 29.8478,0 v 37.60028 h 1.93812 v -35.66216 h 22.09532 c 2.90718,0 5.23066,0.96906 7.36259,2.90718 2.13193,1.93812 3.10402,4.26386 3.10402,6.78342 0,2.71337 -0.97209,5.03835 -3.10402,6.97647 0.77525,0.77525 1.55276,1.93737 2.32801,3.10024 0.58144,1.35668 0.96906,2.51955 0.96906,3.87624 0,2.71337 -0.9683,5.03835 -3.10023,6.97647 -2.13194,1.93812 -4.45919,2.90718 -7.36637,2.90718 h -12.59778 v 1.93812 h 12.59778 c 2.32574,0 4.26235,-0.38611 6.20047,-1.35517 1.74431,-0.96906 3.29632,-2.13118 4.45919,-4.0693 1.16287,-1.93812 1.74506,-4.07156 1.74506,-6.3973 0,-2.51956 -0.77751,-4.65149 -2.32801,-6.78342 1.5505,-1.93812 2.32801,-4.45616 2.32801,-7.16953 0,-2.13193 -0.58219,-4.07005 -1.74506,-5.81436 -1.16287,-1.74431 -2.71413,-3.29707 -4.65225,-4.26613 -1.93812,-0.96906 -4.06854,-1.54823 -6.20047,-1.54823 z m -82.37008,0.19304 h 19.7673 c 2.51956,0 4.84833,0.77449 6.98026,2.13117 2.13193,1.35669 3.87473,3.29481 5.23141,5.81436 1.35668,2.32574 1.93812,5.03836 1.93812,7.94554 0,2.90718 -0.58144,5.42975 -1.93812,7.94931 -1.35668,2.51956 -3.09948,4.45768 -5.23141,5.81436 -2.32574,1.35668 -4.65376,2.13117 -7.17331,2.13117 h -19.57425 z m 56.39852,0 v 37.60027 h 21.12626 v -1.93812 h -19.18814 v -1.93812 h 19.18814 v -1.93812 h -19.18814 v -1.93811 h 19.18814 v -1.93812 h -19.18814 v -3.87624 h 18.02603 v -1.93812 h -18.02603 v -1.93812 h 18.02603 v -1.93812 h -18.02603 v -1.93812 h 18.02603 v -1.93812 h -18.02603 v -4.65225 h 19.18814 v -1.93812 h -19.18814 v -1.93811 h 19.18814 v -1.93812 h -19.18814 v -1.93812 h 19.18814 v -1.93812 z m -54.4604,1.552 v 28.2958 0.19303 h 17.63613 c 2.13193,0 4.06929,-0.77525 6.00741,-1.93812 1.93812,-1.35668 3.29632,-3.09948 4.45919,-5.23141 1.16287,-2.32574 1.74506,-4.65375 1.74506,-7.17331 0,-2.71337 -0.58219,-5.0376 -1.74506,-7.16953 -1.16287,-2.13193 -2.52107,-3.87548 -4.45919,-5.03836 -1.7443,-1.35668 -3.87548,-1.93812 -6.00741,-1.93812 h -17.63613 z m 1.93811,1.74129 h 15.69802 c 1.74431,0 3.48786,0.38913 5.03835,1.55201 1.5505,1.16287 2.71413,2.52106 3.68319,4.45918 0.96906,1.93812 1.35895,4.06854 1.35895,6.20047 0,3.48862 -0.96906,6.20199 -2.90718,8.72154 -1.93812,2.51956 -4.45994,3.68319 -7.17331,3.68319 h -15.69802 z m 82.56315,0.38989 v 33.91709 h 1.93812 v -31.97897 h 18.02602 c 1.74431,0 3.29254,0.58219 4.45541,1.74506 1.35668,1.16287 1.93812,2.5188 1.93812,4.0693 0,1.74431 -0.58144,3.09948 -1.93812,4.26235 -1.35668,1.16287 -2.7111,1.74506 -4.45541,1.74506 h -6.20425 -6.58658 v 1.93812 h 6.58658 6.20425 c 1.74431,0 3.29254,0.58144 4.45541,1.93812 1.35668,1.16287 1.93812,2.71186 1.93812,4.26235 0,1.74431 -0.58144,3.29632 -1.93812,4.45919 -1.16287,0.96906 -2.7111,1.55201 -4.45541,1.55201 h -12.59778 v 1.93812 h 12.59778 c 2.32575,0 4.26311,-0.77752 6.00742,-2.32801 1.74431,-1.5505 2.52107,-3.48862 2.52107,-5.81436 0,-1.35669 -0.39065,-2.71261 -1.1659,-4.0693 -0.77525,-1.35668 -1.93661,-2.32574 -3.29329,-2.90718 1.35668,-0.58143 2.51804,-1.55049 3.29329,-2.90718 0.77525,-1.16287 1.1659,-2.5188 1.1659,-4.06929 0,-2.13193 -0.77676,-3.87775 -2.52107,-5.42825 -1.74431,-1.55049 -3.68167,-2.32423 -6.00742,-2.32423 z m -80.62503,1.74508 v 20.73637 0.19304 h 13.7599 c 2.13193,0 4.07081,-1.16212 5.6213,-3.10024 1.5505,-2.13193 2.32423,-4.45918 2.32423,-7.36636 0,-2.90718 -0.77373,-5.42447 -2.32423,-7.36259 -1.55049,-2.13193 -3.48937,-3.10024 -5.6213,-3.10024 h -13.7599 z m 2.13118,1.74129 h 11.62872 c 1.74431,0 3.10326,0.97057 4.26613,2.52106 1.16287,1.74431 1.74128,3.68168 1.74128,6.00742 0,2.32574 -0.57841,4.26311 -1.74128,6.00741 -1.16287,1.74431 -2.52182,2.52107 -4.26613,2.52107 h -11.62872 z m 82.37009,0.19683 v 30.04086 h 1.93812 V 252.6606 h 13.95673 c 0.58143,0 1.15985,0.19532 1.74128,0.58294 0.58144,0.38763 0.776,0.97058 0.776,1.55201 0,0.77525 -0.19456,1.35442 -0.776,1.54823 -0.19381,0.58144 -0.77298,0.776 -1.54823,0.776 h -12.59778 v 1.93812 h 12.59778 c 1.16287,0 2.32499,-0.38687 3.10024,-1.16211 0.77525,-0.77525 1.35517,-1.74431 1.35517,-2.90718 0,-0.96906 -0.38611,-1.93812 -1.35517,-2.90718 -0.96906,-0.77525 -1.93737,-1.16212 -3.10024,-1.16212 z m 3.49012,13.7599 v 1.93812 h 12.59778 c 0.58144,0 1.16363,0.19456 1.74507,0.776 0.58143,0.58144 0.77222,0.96604 0.77222,1.74128 0,0.77525 -0.19071,1.35744 -0.77222,1.74507 -0.58144,0.38762 -0.96982,0.38989 -1.74507,0.38989 h -12.59778 v 1.93812 h 12.59778 c 1.16287,0 2.32499,-0.39065 3.10024,-1.1659 0.77525,-0.77524 1.35517,-1.74355 1.35517,-3.10023 0,-1.16287 -0.38611,-2.13193 -1.35517,-2.90718 -0.96906,-0.77525 -1.93737,-1.35517 -3.10024,-1.35517 z" id="path6196"/>
    <path style="fill:#1b75bc" d="m 345.9517,235.41435 c -3.3131,0.0362 -6.61792,0.69852 -9.6906,1.93812 -2.92518,1.18011 -5.64142,2.8842 -7.94553,5.03836 -2.28084,2.1324 -4.15634,4.70785 -5.42825,7.55942 -1.27388,2.85602 -1.93814,5.98042 -1.93812,9.10765 2e-5,3.12724 0.66431,6.2516 1.93812,9.10765 1.27184,2.85164 3.1472,5.42726 5.42825,7.55943 2.30431,2.15389 5.02083,3.85716 7.94553,5.03835 3.07237,1.24084 6.37727,1.90653 9.6906,1.93812 4.08093,0.0388 8.16978,-0.88868 11.82178,-2.71034 3.47935,-1.73553 6.5535,-4.27718 8.91459,-7.36637 l -1.54823,-1.16212 c -2.10695,2.9287 -4.92588,5.34224 -8.14237,6.97648 -3.34289,1.69847 -7.10321,2.55091 -10.85271,2.52107 -3.04527,-0.0242 -6.08293,-0.62439 -8.9146,-1.74507 -2.71658,-1.07513 -5.25205,-2.63596 -7.36636,-4.65224 -2.06296,-1.96731 -3.7147,-4.35964 -4.8453,-6.97647 -1.13349,-2.62354 -1.74129,-5.4775 -1.74129,-8.33543 0,-2.85793 0.6078,-5.70811 1.74129,-8.33165 1.1306,-2.61683 2.78234,-5.01294 4.8453,-6.98025 2.11431,-2.01629 4.64978,-3.57333 7.36636,-4.64847 2.83167,-1.12068 5.86933,-1.72083 8.9146,-1.74506 3.7495,-0.0299 7.50982,0.81882 10.85271,2.51729 3.21649,1.63424 6.03542,4.05156 8.14237,6.98025 l 1.74507,-0.96906 c -2.31472,-3.34913 -5.47913,-6.1106 -9.11143,-7.94931 -3.64225,-1.84373 -7.73971,-2.75512 -11.82178,-2.71035 z m 0,3.87624 c -3.64062,0.0196 -7.26845,0.97067 -10.4666,2.71035 -3.12599,1.70043 -5.85291,4.16416 -7.75248,7.17331 -1.85771,2.94286 -2.90712,6.40349 -2.90718,9.88365 -6e-5,3.48017 1.04926,6.94091 2.90718,9.88366 1.89975,3.00899 4.62689,5.4722 7.75248,7.17331 3.1979,1.74047 6.82581,2.6929 10.4666,2.71034 3.416,0.0155 6.8297,-0.7937 9.88366,-2.32423 2.9379,-1.47237 5.54166,-3.60667 7.55942,-6.20047 l -1.55201,-1.1659 c -1.75729,2.4393 -4.10406,4.4508 -6.78342,5.81436 -2.7478,1.39839 -5.83149,2.11441 -8.91459,2.13496 -2.51186,0.0174 -5.03033,-0.42604 -7.36259,-1.35895 -2.22618,-0.89049 -4.27241,-2.22533 -6.01119,-3.87624 -1.68754,-1.60227 -3.09324,-3.50889 -4.0693,-5.62131 -1.00716,-2.17974 -1.54825,-4.5753 -1.54823,-6.97647 2e-5,-2.40118 0.54113,-4.79671 1.54823,-6.97648 0.97602,-2.11245 2.38162,-4.01919 4.0693,-5.6213 1.7389,-1.65073 3.78532,-2.98505 6.01119,-3.87624 2.33208,-0.93371 4.85063,-1.37494 7.36259,-1.35517 3.08235,0.0242 6.16058,0.74668 8.91459,2.13118 2.64608,1.33024 4.98454,3.26858 6.78342,5.6213 l 1.74507,-0.96906 c -2.01518,-2.76756 -4.69642,-5.04737 -7.75248,-6.59036 -3.04985,-1.53986 -6.46718,-2.34362 -9.88366,-2.32424 z m 45.54582,2.32424 c -2.90718,0 -5.81512,0.38913 -8.52849,1.552 -2.71336,1.16288 -5.03835,2.51729 -6.97647,4.45541 -1.93812,1.74431 -3.48937,4.07081 -4.65225,6.59036 -1.16287,2.51956 -1.74506,5.23217 -1.74506,7.94554 0,2.71337 0.58219,5.42598 1.74506,7.94553 1.16288,2.71337 2.71413,4.84606 4.65225,6.59037 1.93812,1.93812 4.26311,3.29631 6.97647,4.45918 2.71337,0.96906 5.62131,1.54823 8.52849,1.54823 2.90718,0 5.81511,-0.38535 8.52848,-1.54823 2.71337,-1.16287 5.03835,-2.52106 6.97647,-4.45918 1.93812,-1.74431 3.48937,-4.07081 4.65225,-6.59037 1.16287,-2.51955 1.74506,-5.23216 1.74506,-7.94553 0,-2.71337 -0.58219,-5.42598 -1.74506,-7.94554 -1.16288,-2.51955 -2.71413,-4.65224 -4.65225,-6.59036 -1.93812,-1.93812 -4.2631,-3.48635 -6.97647,-4.45541 -2.71337,-0.96906 -5.6213,-1.552 -8.52848,-1.552 z m 0.19303,1.552 c 2.71337,0 5.23293,0.57917 7.75248,1.54823 2.51956,0.96906 4.653,2.32499 6.39731,4.0693 1.74431,1.7443 3.29329,3.68545 4.26235,6.01119 0.96906,2.32575 1.55201,4.84303 1.55201,7.36259 0,2.51955 -0.58295,5.04062 -1.55201,7.36637 -0.96906,2.32574 -2.51804,4.2631 -4.26235,6.00741 -1.74431,1.74431 -3.87775,3.10024 -6.39731,4.0693 -2.51955,0.96906 -5.03911,1.552 -7.75248,1.552 -2.71337,0 -5.23292,-0.58294 -7.75248,-1.552 -2.51955,-0.96906 -4.64922,-2.32499 -6.39352,-4.0693 -1.74431,-1.74431 -3.29708,-3.68167 -4.26613,-6.00741 -0.96906,-2.32575 -1.54823,-4.84682 -1.54823,-7.36637 0,-2.51956 0.57917,-5.03684 1.54823,-7.36259 0.96905,-2.32574 2.52182,-4.26689 4.26613,-6.01119 1.7443,-1.74431 3.87397,-3.10024 6.39352,-4.0693 2.51956,-0.96906 5.03911,-1.54823 7.75248,-1.54823 z m 26.55451,0.19304 v 37.60028 h 1.93812 v -34.30699 l 21.12248,34.30699 h 2.32801 l -23.06436,-37.60026 h -2.32423 z m 4.64846,0 23.25744,37.60028 h 2.32801 l -23.25744,-37.60028 z m 4.65225,0 23.25743,37.60028 h 2.32801 l -23.25743,-37.60028 z m 4.8453,0 23.06438,37.60028 h 2.32423 v -37.60028 h -1.93812 v 34.30321 l -21.12248,-34.30321 z m 15.50495,0 v 18.99131 l 1.93812,3.49012 v -22.48143 z m 4.0693,0 v 25.77472 l 1.93812,3.10402 v -28.87874 z m 11.2426,0 v 37.60028 h 1.93812 v -37.60028 z m 3.87624,0 v 37.60028 h 1.93812 v -37.60028 z m 4.0693,0 v 37.60028 h 1.93812 v -37.60028 z m 4.0693,0 v 37.60028 h 1.93812 0.19683 v -12.40472 h 15.69801 v -1.93812 h -15.69801 v -1.93812 h 15.69801 v -1.93812 h -15.69801 v -1.93812 h 15.69801 v -1.93812 h -15.69801 v -5.81436 h 17.05319 v -1.93812 h -17.05319 v -1.93812 h 17.05319 v -1.93812 h -17.05319 v -1.93812 h 17.05319 v -1.93812 z m -129.078,0.19304 c -2.96193,-0.0306 -5.92892,0.71123 -8.52848,2.13117 -2.51446,1.37347 -4.68479,3.38299 -6.20048,5.81436 -1.47911,2.37269 -2.32444,5.14957 -2.32423,7.94554 2.2e-4,2.79591 0.84586,5.57624 2.32423,7.94931 1.51507,2.43195 3.68449,4.44335 6.20048,5.81436 2.60047,1.41704 5.56705,2.15075 8.52848,2.13118 2.75122,-0.0174 5.49625,-0.6849 7.94553,-1.93812 2.3467,-1.20075 4.42023,-2.93655 6.0112,-5.03836 l -1.55201,-1.16586 c -1.45929,1.85385 -3.32628,3.38772 -5.42825,4.45919 -2.21211,1.1276 -4.6866,1.74367 -7.16953,1.74506 -2.62805,0.001 -5.24885,-0.68595 -7.55942,-1.93812 -2.19573,-1.1899 -4.12649,-2.90471 -5.42447,-5.03835 -1.30307,-2.14201 -1.93812,-4.66608 -1.93812,-7.17331 0,-2.50723 0.63505,-5.02752 1.93812,-7.16953 1.29798,-2.13364 3.22874,-3.84845 5.42447,-5.03836 2.31057,-1.25216 4.93137,-1.93959 7.55942,-1.93812 2.48293,0.001 4.95742,0.61369 7.16953,1.74129 2.10197,1.07147 3.96896,2.60533 5.42825,4.45918 l 1.74506,-0.96906 c -1.70984,-2.01362 -3.83674,-3.67347 -6.20425,-4.84529 -2.46416,-1.21966 -5.19619,-1.90963 -7.94553,-1.93812 z m 45.54581,1.552 c -2.32574,0 -4.65073,0.38612 -6.97647,1.35518 -2.32575,0.96906 -4.26387,2.13268 -5.81436,3.68318 -1.5505,1.5505 -2.90718,3.29254 -3.87624,5.42447 -0.96906,2.13193 -1.35517,4.26462 -1.35517,6.59036 0,2.32574 0.38611,4.45843 1.35517,6.59036 0.96906,2.13193 2.32574,3.87775 3.87624,5.42825 1.74431,1.5505 3.68242,2.71034 5.81436,3.6794 2.13193,0.96906 4.65073,1.35896 6.97647,1.35896 2.32575,0 4.65073,-0.3899 6.97648,-1.35896 2.32574,-0.96906 4.26386,-2.1289 5.81436,-3.6794 1.55049,-1.5505 2.90718,-3.29632 3.87624,-5.42825 0.96906,-2.13193 1.35895,-4.26462 1.35895,-6.59036 0,-2.32574 -0.38989,-4.45843 -1.35895,-6.59036 -0.96906,-2.13193 -2.32575,-3.87397 -3.87624,-5.42447 -1.74431,-1.5505 -3.68243,-2.71412 -5.81436,-3.68318 -2.13193,-0.96906 -4.65073,-1.35518 -6.97648,-1.35518 z m 0,1.93812 c 2.13193,0 4.26613,0.19304 6.20425,1.16212 1.93812,0.96906 3.68167,1.93661 5.03836,3.29329 1.55049,1.35669 2.7111,2.90718 3.48635,4.8453 0.96906,1.74431 1.35895,3.68243 1.35895,5.81436 0,1.93812 -0.58371,3.87624 -1.35895,5.81436 -0.96906,1.93812 -2.12967,3.48861 -3.48635,4.8453 -1.35669,1.35668 -3.10024,2.52182 -5.03836,3.29707 -1.93812,0.77525 -4.07232,1.16212 -6.20425,1.16212 -2.13193,0 -4.26235,-0.38687 -6.20047,-1.16212 -1.93812,-0.96906 -3.68167,-1.94039 -5.03836,-3.29707 -1.55049,-1.35669 -2.52106,-3.10099 -3.49012,-4.8453 -0.96906,-1.74431 -1.35517,-3.68243 -1.35517,-5.81436 0,-1.93812 0.57992,-3.87624 1.35517,-5.81436 0.77525,-1.93812 1.93963,-3.48861 3.49012,-4.8453 1.35669,-1.35668 3.10024,-2.51804 5.03836,-3.29329 1.93812,-0.77525 4.06854,-1.16212 6.20047,-1.16212 z m -45.73887,0.5565 c -1.72147,0.004 -3.44875,0.30829 -5.03835,0.96906 -1.5192,0.63149 -2.89765,1.58187 -4.0693,2.73683 -1.12992,1.11382 -2.07487,2.42411 -2.71412,3.87624 -0.64274,1.46009 -0.97294,3.05696 -0.96906,4.65225 0.004,1.59468 0.33719,3.18807 0.96906,4.65224 0.62933,1.4583 1.5553,2.79004 2.71412,3.87624 1.1713,1.09791 2.57241,1.93705 4.0693,2.51729 1.60335,0.62149 3.31889,0.94696 5.03835,0.96906 2.13548,0.0273 4.28218,-0.41649 6.20047,-1.35517 1.83036,-0.89565 3.44121,-2.23741 4.65225,-3.87624 l -1.54823,-1.16212 c -1.00189,1.38864 -2.34433,2.5282 -3.87624,3.29329 -1.61399,0.80608 -3.43134,1.19119 -5.23519,1.16212 -2.84704,-0.0459 -5.6771,-1.15074 -7.75248,-3.10024 -2.0158,-1.89354 -3.29329,-4.60069 -3.29329,-7.36636 0,-2.76568 1.27749,-5.46905 3.29329,-7.36259 2.07538,-1.9495 4.90544,-3.0543 7.75248,-3.10024 1.80385,-0.0291 3.6212,0.35603 5.23519,1.16212 1.53191,0.76509 2.87435,1.90465 3.87624,3.29329 l 1.54823,-0.96906 c -1.28329,-1.47785 -2.87976,-2.68269 -4.65225,-3.51284 -1.93199,-0.90485 -4.06706,-1.35905 -6.20047,-1.35517 z m 45.54582,1.38166 c -2.51956,0 -4.84455,0.57841 -6.97648,1.74129 -2.13193,1.16287 -3.87548,2.90718 -5.03835,4.8453 -1.35669,1.93812 -1.93812,4.26462 -1.93812,6.59036 0,2.32574 0.77524,4.65224 1.93812,6.59036 1.35668,1.93812 2.90642,3.68243 5.03835,4.8453 2.13193,1.16287 4.45692,1.74506 6.97648,1.74506 2.51955,0 4.84454,-0.58219 6.97647,-1.74506 2.13193,-1.16287 3.87548,-2.90718 5.03836,-4.8453 1.35668,-1.93812 1.93812,-4.26462 1.93812,-6.59036 0,-2.32574 -0.77525,-4.65224 -1.93812,-6.59036 -1.16288,-2.13194 -2.90643,-3.68243 -5.03836,-4.8453 -2.13193,-1.16288 -4.45692,-1.74129 -6.97647,-1.74129 z m 0.19303,1.93812 c 3.29481,0 6.20274,1.16136 8.52848,3.29329 2.32575,2.13194 3.49013,4.84455 3.49013,7.94554 0,3.10099 -1.16438,5.8136 -3.49013,7.94553 -2.32574,2.13194 -5.23367,3.29707 -8.52848,3.29707 -3.2948,0 -6.20274,-1.16513 -8.52848,-3.29707 -2.32574,-2.13193 -3.48635,-4.84454 -3.48635,-7.94553 0,-3.10099 1.16061,-5.8136 3.48635,-7.94554 2.32574,-2.32574 5.23368,-3.29329 8.52848,-3.29329 z m 30.43075,0.77223 v 29.26863 h 1.93812 v -25.77851 z m -30.43075,1.16589 c -2.90718,0 -5.23141,0.96604 -7.16953,2.71035 -1.93812,1.7443 -2.90718,4.0708 -2.90718,6.59036 0,2.51955 0.96906,4.84605 2.90718,6.59036 1.93812,1.93812 4.45616,2.71412 7.16953,2.71412 2.90718,0 5.23519,-0.96981 7.17331,-2.71412 1.93812,-1.74431 2.90718,-4.07081 2.90718,-6.59036 0,-2.51956 -0.96906,-4.84606 -2.90718,-6.59036 -2.13193,-1.74431 -4.45994,-2.71035 -7.17331,-2.71035 z m 0,1.93812 c 2.13193,0 4.07081,0.58068 5.62131,2.13118 1.55049,1.35668 2.32423,3.29329 2.32423,5.23141 0,1.93812 -0.77374,3.68469 -2.32423,5.23519 -1.5505,1.35668 -3.48938,2.13118 -5.62131,2.13118 -2.13193,0 -4.0708,-0.58068 -5.6213,-2.13118 -1.5505,-1.35668 -2.32423,-3.29707 -2.32423,-5.23519 0,-1.93812 0.77373,-3.68092 2.32423,-5.23141 1.5505,-1.5505 3.29556,-2.32499 5.6213,-2.13118 z m 34.50004,3.67941 v 22.48521 h 1.93812 v -18.99509 z" id="path6202"/>
    <path style="fill:#be1e2d" d="m 497.70799,237.54553 v 1.93812 h 20.15342 v -1.93812 z m 24.41955,0.19304 v 1.93812 h 16.86013 l 0.38989,-1.93812 z m 18.60519,0 -11.43566,43.22158 h 2.13118 l 11.43566,-43.22156 h -2.13118 z m 4.0693,0 -11.43566,43.22158 h 2.13495 l 11.43188,-43.22158 z m 4.26613,0 -11.43566,43.22158 h 2.13117 l 11.43566,-43.22158 z m 4.06929,0 -11.43566,43.22158 h 2.13118 l 11.43566,-43.22156 h -2.13118 z m -55.42946,3.68318 v 1.93812 h 20.15342 v -1.93812 z m 24.41955,0 v 1.93812 h 15.89107 l 0.38989,-1.93812 z m -24.41955,3.68318 v 1.74129 h 6.58658 v 33.91709 h 1.93812 v -33.91709 h 1.93812 v 33.91709 h 1.93812 v -33.91709 h 1.93812 v 33.91709 h 1.93812 v -33.91709 h 1.93812 v 33.91709 h 1.93812 v -35.65838 z m 24.41955,0.19304 v 1.93812 h 14.92201 l 0.38989,-1.93812 z" id="path6210"/>
    <path style="fill:#1b75bc" d="m 494.60397,289.29181 c -0.58143,0 -1.15985,0.19608 -1.74128,0.3899 -0.58144,0.19381 -0.97057,0.38762 -1.55201,0.96906 -0.58144,0.58143 -0.9683,1.15984 -1.16212,1.74128 -0.19381,0.77525 -0.38989,1.55201 -0.38989,2.52107 0,0.77525 0.19608,1.54898 0.38989,2.32423 0.19382,0.77525 0.58144,1.35744 0.96906,1.74506 0.38763,0.38763 0.9668,0.77525 1.54823,0.96906 0.58144,0.19381 1.35669,0.38989 1.93812,0.38989 0.58144,0 0.97057,-0.19683 1.55201,-0.19683 0.38762,0 0.77449,-0.19226 1.16212,-0.38611 l -0.57917,-1.55201 c -0.38763,0.19381 -0.58144,0.38989 -0.96906,0.38989 -0.19381,0.19381 -0.77827,0.19304 -1.1659,0.19304 -0.58143,0 -1.1606,7.5e-4 -1.54823,-0.19304 -0.38762,-0.19381 -0.77449,-0.38838 -1.16211,-0.776 -0.38763,-0.38763 -0.58219,-0.77374 -0.77601,-1.35518 -0.19381,-0.58143 -0.19303,-1.16287 -0.19303,-1.93811 0,-0.77525 0.19226,-1.35669 0.38611,-1.93812 0.19381,-0.58144 0.38838,-0.97133 0.776,-1.35896 0.38763,-0.38762 0.7745,-0.58219 1.16212,-0.776 0.58143,-0.19381 0.96755,-0.19304 1.35517,-0.19304 0.96906,0 1.55352,0.19608 2.13496,0.3899 l 0.38609,-1.16592 c -0.19381,0 -0.58144,-0.19304 -0.96906,-0.19304 h -1.55201 z m -75.77972,0.3899 c -1.35669,0 -2.51805,0.38611 -3.29329,1.35517 -0.77525,0.96906 -1.16212,2.32499 -1.16212,4.06929 0,0.77525 -7.6e-4,1.54974 0.19304,2.13118 0.19381,0.77525 0.38838,1.35744 0.776,1.74506 0.38762,0.58144 0.77374,0.96831 1.35517,1.16212 0.58144,0.19381 1.16287,0.38989 1.93812,0.38989 1.35669,0 2.51805,-0.38989 3.29329,-1.35895 0.77525,-0.96906 1.1659,-2.32499 1.1659,-4.0693 0,-0.77524 -0.004,-1.54974 -0.19684,-2.13117 -0.19381,-0.77525 -0.3846,-1.35744 -0.77222,-1.74507 -0.38762,-0.58143 -0.97133,-0.9683 -1.35895,-1.16211 -0.38763,-0.19381 -1.16287,-0.38611 -1.93812,-0.38611 z m -16.47402,0.19303 v 10.4666 h 1.16212 v -6.98025 l -0.19304,-1.54823 0.58295,1.35517 3.10021,4.65227 h 0.58295 l 2.90718,-4.65225 0.57917,-1.35517 -0.19304,1.54823 v 6.98025 h 1.35517 v -10.4666 h -0.96906 l -3.29329,5.23141 -0.58295,1.16212 -0.57916,-1.16212 -3.49013,-5.23141 h -0.96906 z m 23.45049,0 v 10.4666 h 1.1659 v -6.78341 l -0.19684,-1.55201 0.77601,1.55201 5.23519,6.97647 h 0.77222 v -10.4666 h -1.16211 v 6.78342 l 0.19303,1.35517 -0.77222,-1.35517 -5.23519,-6.97648 h -0.77601 z m 9.30449,0 v 1.16212 h 3.49013 v 9.30448 h 1.35517 v -9.30448 h 3.29329 v -1.16212 z m 11.2426,0 c -0.58143,0 -0.97132,0.19304 -1.35895,0.19304 h -0.19303 v 10.4666 h 1.35517 v -4.65224 l 1.55201,0.19304 3.10023,4.45918 h 1.55201 l -2.71414,-4.06924 -0.77601,-0.58294 c 0.58144,-0.19381 1.35744,-0.38763 1.74507,-0.96906 0.58143,-0.38763 0.776,-1.16287 0.776,-1.93812 0,-0.58144 -0.19608,-0.96755 -0.38989,-1.35517 -0.19381,-0.38763 -0.3846,-0.77525 -0.77223,-0.96906 -0.38762,-0.38763 -0.77827,-0.38914 -1.16589,-0.58295 -0.38763,-0.19381 -0.77374,-0.19304 -1.35517,-0.19304 h -1.35518 z m 8.1386,0 v 10.65966 h 6.20047 v -1.16211 h -4.8453 v -3.68319 h 4.26613 v -1.16211 h -4.26613 v -3.49013 h 4.65224 v -1.16212 z m 11.43566,0 -4.26613,10.4666 h 1.35895 l 1.16211,-2.90717 h 4.0693 l 1.16212,2.90717 h 1.35895 l -4.26613,-10.4666 z m 6.20047,0 v 10.4666 h 6.59036 v -1.16589 h -5.23141 v -9.30071 z m 29.46169,0 -4.26613,10.4666 h 1.35895 l 1.16211,-2.90717 h 4.0693 l 1.16211,2.90717 h 1.35896 l -4.26614,-10.4666 z m 6.58658,0 v 10.4666 h 1.16589 v -6.78341 l -0.19683,-1.55201 0.776,1.55201 5.23519,6.97647 h 0.77223 v -10.4666 h -1.16212 v 6.78342 l 0.19304,1.35517 -0.77223,-1.35517 -5.23519,-6.97648 h -0.776 z m 13.56684,0 -4.26235,10.4666 h 1.16211 l 1.16212,-2.90717 h 4.07307 l 1.35517,2.90717 h 1.35518 l -4.26235,-10.4666 z m 6.20425,0 v 10.65966 h 0.57917 0.776 0.776 0.58295 c 0.96906,0 1.93585,-0.002 2.51729,-0.38989 0.58144,-0.19381 1.16438,-0.58068 1.55201,-1.16212 0.38762,-0.58143 0.77524,-1.16362 0.96906,-1.74506 0.19381,-0.58144 0.38611,-1.16287 0.38611,-1.93812 0,-0.77525 -0.19226,-1.54974 -0.38611,-2.13118 -0.19382,-0.77524 -0.58144,-1.35744 -0.96906,-1.74506 -0.38763,-0.58144 -0.97057,-0.9683 -1.55201,-1.16212 -0.58144,-0.19381 -1.35517,-0.38611 -2.32423,-0.38611 h -0.77601 -0.776 -0.776 z m 12.79083,0 -4.26235,10.4666 h 1.35517 l 1.16212,-2.90717 h 4.06929 l 1.1659,2.90717 h 1.35517 l -4.26235,-10.4666 z m -121.90848,0.96906 c 0.58143,0 0.97132,0.19226 1.35895,0.38611 0.38762,0.19382 0.77525,0.58144 0.96906,0.96906 0.19381,0.38763 0.38535,0.77752 0.57917,1.35896 0.19381,0.38762 0.19303,0.96679 0.19303,1.54822 0,1.5505 -0.19071,2.52183 -0.77222,3.29708 -0.58144,0.58143 -1.35895,0.96906 -2.32801,0.96906 -0.58144,0 -0.96755,-0.19608 -1.35517,-0.3899 -0.38763,-0.19381 -0.77525,-0.58143 -0.96906,-0.96906 -0.19382,-0.38762 -0.38914,-0.96754 -0.58295,-1.35517 -0.19381,-0.38762 -0.19304,-0.97057 -0.19304,-1.55201 0,-1.55049 0.38838,-2.51804 0.77601,-3.29329 0.58143,-0.58143 1.35517,-0.96906 2.32423,-0.96906 z m 27.52356,0 h 0.38612 0.38611 0.38989 0.38611 c 0.77525,0 1.3582,0.19226 1.55201,0.38611 0.38762,0.38763 0.57917,0.77752 0.57917,1.35896 0,0.77524 -0.3846,1.1606 -0.77223,1.54822 -0.38762,0.38763 -0.96981,0.58295 -1.74506,0.58295 h -1.16212 z m 82.94926,0 h 0.38989 0.38611 0.38612 0.38989 c 0.77525,0 1.35668,0.19304 1.93812,0.19304 0.58143,0.19381 0.9683,0.58144 1.16211,0.96906 0.19382,0.38762 0.38914,0.77374 0.58295,1.35517 0.19381,0.58144 0.19304,1.16438 0.19304,1.55201 0,0.58143 7.5e-4,0.97057 -0.19304,1.55201 0,0.58143 -0.19532,0.96754 -0.58295,1.35517 -0.19381,0.38762 -0.58068,0.77525 -1.16211,0.96906 -0.58144,0.19381 -1.16287,0.38611 -1.93812,0.38611 h -0.38989 -0.38612 -0.38611 -0.38989 v -8.33165 z m -62.98889,0.77601 0.38989,1.54822 1.16212,3.10024 h -3.29707 l 1.35895,-3.10024 z m 35.85521,0 0.3899,1.54822 1.16211,3.10024 h -3.29707 l 1.35895,-3.10024 z m 19.77109,0 0.38612,1.54822 1.16211,3.10024 h -3.29329 l 1.35517,-3.10024 z m 19.18436,0 0.3899,1.54822 1.16211,3.10024 h -3.29329 l 1.35517,-3.10024 z m -57.17453,3.29329 c -0.19381,0 -0.38535,-7.6e-4 -0.57916,0.19303 -0.19382,0.19382 -0.19304,0.38914 -0.19304,0.58295 0,0.38763 0.19304,0.57917 0.19304,0.57917 0,0.19381 0.38535,0.19684 0.57916,0.19684 0.38763,0 0.5822,-0.004 0.77601,-0.19684 0.19381,-0.19381 0.19303,-0.38536 0.19303,-0.57917 0,-0.19381 7.6e-4,-0.38913 -0.19303,-0.58295 -0.19381,-0.19381 -0.58219,-0.19303 -0.77601,-0.19303 z" id="path6216"/>
    <path style="color:#000000;font-style:normal;font-variant:normal;font-weight:normal;font-stretch:normal;font-size:medium;line-height:normal;font-family:sans-serif;text-indent:0;text-align:start;text-decoration:none;text-decoration-line:none;text-decoration-style:solid;text-decoration-color:#000000;letter-spacing:normal;word-spacing:normal;text-transform:none;writing-mode:lr-tb;direction:ltr;baseline-shift:baseline;text-anchor:start;white-space:normal;clip-rule:nonzero;display:inline;overflow:visible;visibility:visible;opacity:1;isolation:auto;mix-blend-mode:normal;color-interpolation:sRGB;color-interpolation-filters:linearRGB;solid-color:#000000;solid-opacity:1;fill:#be1e2d;fill-opacity:1;fill-rule:nonzero;stroke:none;stroke-width:0.80000001;stroke-linecap:square;stroke-linejoin:miter;stroke-miterlimit:10;stroke-dasharray:none;stroke-dashoffset:0;stroke-opacity:1;color-rendering:auto;image-rendering:auto;shape-rendering:auto;text-rendering:auto;enable-background:accumulate" d="m 455.22834,86.587955 -0.21577,1.536871 0.76844,0.106015 c 5.71435,0.809204 11.21032,3.167702 15.73587,6.749347 4.52554,3.581645 8.0823,8.388062 10.1827,13.763672 2.12288,5.43317 2.73531,11.53207 1.16968,17.09482 -1.0323,3.66781 -3.0051,7.0764 -5.69323,9.7701 -2.68776,2.69333 -6.0986,4.67366 -9.77388,5.64022 -4.1124,1.08151 -8.56346,0.88182 -12.5637,-0.56024 -4.00024,-1.44205 -7.55487,-4.1292 -10.03129,-7.58591 l -0.45425,-0.63216 -1.25674,0.9047 0.45046,0.62837 c 2.66325,3.71755 6.46357,6.59531 10.76566,8.14617 4.30206,1.55087 9.06086,1.76119 13.48355,0.59809 3.95041,-1.03893 7.59596,-3.15728 10.47796,-6.04527 2.88164,-2.88759 4.98676,-6.52538 6.0907,-10.44767 1.67387,-5.94739 1.00987,-12.37105 -1.21891,-18.07525 -2.20211,-5.63594 -5.92252,-10.659659 -10.66723,-14.414766 -4.74471,-3.755087 -10.49048,-6.218903 -16.48158,-7.067315 l -0.76844,-0.109697 z m -2.67248,2.979103 c -0.85461,-0.02927 -1.70891,-0.02151 -2.56271,0.02268 -2.27679,0.117838 -4.54356,0.501062 -6.73799,1.162116 -5.58869,1.683509 -10.62619,5.105279 -14.252,9.679236 l -0.48074,0.60567 1.21511,0.96526 0.48075,-0.60944 c 3.42483,-4.320421 8.20842,-7.566655 13.48733,-9.156863 8.27936,-2.49405 17.70039,-0.761138 24.75646,4.26993 7.63338,5.442683 12.4575,14.689203 12.55613,24.063713 l 0.008,0.776 1.55201,-0.0155 -0.008,-0.77601 c -0.10408,-9.89353 -5.155,-19.56888 -13.211,-25.312904 -4.88819,-3.48532 -10.82105,-5.469742 -16.80335,-5.674291 z m -0.38233,2.767112 c -5.76077,-0.123071 -11.55148,1.729694 -16.10304,5.28062 -3.10987,2.42616 -5.58628,5.56659 -7.4913,8.97138 -3.23517,5.78211 -4.88321,12.39974 -4.93614,19.01022 -0.0965,12.03735 5.26031,23.97966 14.31255,31.91464 l 0.58295,0.51103 1.02207,-1.1659 -0.58295,-0.51102 c -8.69931,-7.62562 -13.87531,-19.16937 -13.78261,-30.73739 0.051,-6.36062 1.64073,-12.72653 4.7393,-18.26451 1.82416,-3.26029 4.17446,-6.23412 7.08625,-8.505768 4.25404,-3.318816 9.7138,-5.07047 15.11885,-4.955074 5.9278,0.126559 11.80086,2.502364 16.15227,6.529792 l 0.57159,0.52618 1.05234,-1.139416 -0.56781,-0.526161 c -4.638,-4.292683 -10.85611,-6.803788 -17.17432,-6.938623 z m 25.7028,2.627063 -1.04098,1.150758 0.57537,0.518603 c 7.11449,6.435916 10.74689,16.580906 9.33478,26.069976 -0.88311,5.93433 -3.6488,11.58796 -7.79033,15.92892 l -0.53752,0.56024 1.12424,1.07127 0.53374,-0.56023 c 4.36728,-4.57759 7.27171,-10.51527 8.20296,-16.77307 1.49235,-10.02834 -2.31189,-20.64619 -9.83067,-27.447865 z m -44.39883,9.690597 -0.40505,0.65867 c -3.75026,6.0537 -5.82715,13.12018 -5.94305,20.24046 -0.15505,9.53247 3.25695,19.06151 9.4294,26.32741 6.17243,7.26592 15.02523,12.17511 24.4574,13.56306 l 0.76465,0.11357 0.22713,-1.53687 -0.76843,-0.10969 c -9.04867,-1.33151 -17.57828,-6.06264 -23.4997,-13.03311 -5.9215,-6.97045 -9.20725,-16.15287 -9.05844,-25.29776 0.11125,-6.83557 2.10807,-13.64147 5.70836,-19.45312 l 0.40883,-0.65867 -1.3211,-0.81385 z m 25.05927,5.94685 c -2.28871,-0.0913 -4.59118,0.44689 -6.60172,1.54445 -1.90708,1.04104 -3.53368,2.57198 -4.68632,4.41376 -1.15262,1.84179 -1.82032,3.97715 -1.92296,6.14746 -0.10272,2.17033 0.35882,4.35654 1.33245,6.29889 0.97362,1.94236 2.45072,3.62132 4.251,4.83774 l 0.63973,0.43532 0.87063,-1.28705 -0.64352,-0.43152 c -1.57639,-1.06513 -2.87607,-2.5502 -3.72861,-4.25099 -0.85254,-1.70082 -1.2634,-3.6301 -1.17346,-5.53047 0.0899,-1.90038 0.67899,-3.78142 1.68828,-5.39417 1.00928,-1.61273 2.4448,-2.96844 4.11473,-3.88002 1.75994,-0.96075 3.79185,-1.43514 5.79542,-1.35517 2.00351,0.08 3.99282,0.71511 5.67051,1.81321 l 0.64731,0.42774 0.85171,-1.29839 -0.65109,-0.42396 c -1.91655,-1.25443 -4.16533,-1.97539 -6.45409,-2.06683 z m -35.30632,0.64351 -0.23091,0.73816 c -1.84009,5.81224 -2.53369,11.98068 -2.02898,18.05631 0.4823,5.80556 2.05394,11.51763 4.61439,16.75036 l 0.34068,0.6965 1.39303,-0.68136 -0.34068,-0.69653 c -2.47494,-5.05795 -3.9968,-10.58597 -4.46297,-16.19768 -0.48785,-5.87252 0.18218,-11.84028 1.96081,-17.45821 l 0.23471,-0.73815 z m 25.18419,0.0227 -0.57159,0.52239 c -2.35578,2.16117 -4.02008,5.04411 -4.71282,8.16508 -0.69271,3.12097 -0.40257,6.44045 0.81765,9.39534 1.83592,4.44584 5.6833,7.84516 10.1032,9.59974 3.253,1.29137 6.82835,1.742 10.30004,1.29841 3.47174,-0.44358 6.81761,-1.77817 9.64139,-3.84597 l 0.6246,-0.45804 -0.91607,-1.25295 -0.62458,0.45803 c -2.60884,1.91041 -5.7147,3.14844 -8.92217,3.55826 -3.20745,0.40983 -6.52621,-0.008 -9.53162,-1.19997 -4.06665,-1.61436 -7.59471,-4.75432 -9.24392,-8.74803 -1.09629,-2.65476 -1.35674,-5.66395 -0.73435,-8.46792 0.62233,-2.80397 2.13069,-5.41712 4.2472,-7.35878 l 0.57159,-0.52619 z m 9.06223,2.02518 c -0.35844,0.0155 -0.71577,0.0558 -1.07128,0.11726 -2.84398,0.49193 -5.3539,2.42176 -6.56385,5.04213 l -0.32555,0.70031 1.40816,0.65109 0.32555,-0.70408 c 0.98561,-2.13453 3.104,-3.75943 5.42067,-4.16016 2.31671,-0.40074 4.85416,0.41769 6.49952,2.09711 1.35595,1.38403 2.13944,3.3548 2.10089,5.29197 -0.0386,1.93717 -0.89918,3.87211 -2.30908,5.20114 l -0.56403,0.52994 1.0637,1.12804 0.56403,-0.52994 c 1.72365,-1.6248 2.74651,-3.9306 2.7936,-6.29889 0.0471,-2.36832 -0.88229,-4.71284 -2.54,-6.40488 -1.76735,-1.80398 -4.29336,-2.77608 -6.80233,-2.66113 z m -10.10321,42.09355 -0.72679,1.36653 0.68514,0.36339 c 5.73395,3.03969 11.96056,5.14625 18.36293,6.20805 3.10872,0.51556 6.25561,0.78661 9.4067,0.81006 l 0.77601,0.004 0.0116,-1.54823 -0.776,-0.008 c -3.06984,-0.0229 -6.13587,-0.2851 -9.16444,-0.78737 -6.23621,-1.03423 -12.30461,-3.08823 -17.88975,-6.04904 l -0.68515,-0.35962 z" id="path5952"/>
  </g>
</svg>
