<?xml version="1.0" encoding="UTF-8"?>
<svg xmlns="http://www.w3.org/2000/svg" id="svg140" width="110" height="50" version="1.1" viewBox="0 0 29.104 13.229">
 <g id="layer1" transform="matrix(.34354 0 0 .34354 -4.6419 -13.547)">
  <g id="g4022" transform="matrix(.86054 0 0 .86054 -13.772 7.8248)">
   <path id="path4969" d="m102.26 70.817c-1.0047 0.46981-1.5686 0.95295-1.5686 0.95295l-0.84936 0.54071c-1.52 1.6963 1.6659 1.5633 1.8189 1.595 0 0 0.081-0.03915 0.0961-0.03089-0.31438 0.2274-0.64178 0.46464-0.99432 0.70592-1.0739 0.74259-2.1015 1.7237-3.046 2.9648-0.66543 0.87454-1.2133 1.7775-1.661 2.6313-0.61332 1.1636-1.015 2.2139-1.263 3.1558-0.2145 0.80174-0.28273 1.4571-0.27708 1.9193 0.0018 0.23134 0.02162 0.41257 0.05466 0.54876 0.01517 0.06819 0.0348 0.1249 0.0648 0.17782 0.01305 0.02701 0.02697 0.05583 0.06486 0.08139 0.03364 0.02595 0.08873 0.05264 0.14725 0.04803 0.06894-0.0044 0.11828-0.0416 0.14263-0.0689 0.02456-0.02963 0.03647-0.05094 0.04532-0.07631 0.01989-0.04848 0.03218-0.09662 0.04751-0.155 0.02757-0.11994 0.05852-0.28093 0.10109-0.4873 0.08589-0.4121 0.22156-0.99816 0.47768-1.7098 0.31539-0.86302 0.74135-1.8029 1.3636-2.896 0.45664-0.79822 0.99164-1.6455 1.6112-2.4629 0.8833-1.1645 1.7965-2.0812 2.7489-2.8042 0.78926-0.60075 1.7284-1.4293 2.1963-1.8331 0.34807-0.3002 0.55621-0.47627 0.80914-0.66765 0.12155-0.09093 0.2231-0.15887 0.31473-0.21979 1.404-0.53978 2.9315-1.1112 3.7306-1.3538 0.41453-0.12585 0.96484-0.26488 1.2224-0.3087l0.46892-0.07994-0.10484-0.12505c-0.0769-0.09014-0.16147-0.12734-0.30293-0.1374-0.6195-0.03867-0.75753-0.06461-0.84531-0.16124-0.0909-0.09623-0.0832-0.1032 0.05-0.22984 0.077-0.07275 0.28976-0.2255 0.4772-0.34326l0.34597-0.21489-0.26348-0.05574c-0.38229-0.08097-1.498-0.1237-2.2473-0.08622-0.64413 0.0322-0.90895 0.27253-1.8805 0.36039-1.2564 0.1143-2.3036 0.47065-3.0846 0.83562zm5.9104-0.98645c0.27447-0.1537 0.71913-0.07465 0.76242 0.17586 0.0276 0.14904-0.11288 0.19624-0.25114 0.08245-0.10636-0.08222-0.14346-0.09006-0.2799-0.03914-0.0871 0.02654-0.18278 0.08831-0.20659 0.12868-0.0576 0.08777-0.23643 0.05314-0.25399-0.04988-9e-3 -0.04217 0.0476-0.1405 0.12278-0.21713 0.0299-0.03001 0.062-0.05551 0.10574-0.07996zm-15.675 5.8684c-0.43682-0.48075-0.95036-1.0525-0.84464-1.6955 0.02456-0.15835 0.11314-0.30787 0.24361-0.40378 0.12324-0.09064 0.27742-0.13402 0.42826-0.14915 0.36109-0.02474 0.71862 0.07763 1.0681 0.17313 0.36063 0.0982 0.71554 0.21561 1.0653 0.34618 0.06674 0.02551 0.13616 0.0485 0.20328 0.07227 0.02581 0.0097 0.06245 0.01203 0.0796 0.03373l-0.01261 0.0061c-0.01441 7e-3 -0.02071 0.01-0.04121 0.0044-0.05558 0.0091 0.08517 0.24527 0.02894 0.253-1.3077-0.01104-1.5694 0.81148-2.2262 1.353zm1.0998-2.2348c-0.21359-0.19889-0.43259-0.3382-0.57836-0.59073-0.08073-0.13492-0.14133-0.29255-0.12126-0.4464 0.01485-0.1049 0.08388-0.19833 0.17452-0.25346 0.09396-0.06205 0.20909-0.08213 0.31979-0.08563 0.40996-0.01048 0.7995 0.16894 1.1788 0.32541 0.26069 0.11639 0.22761 0.14126 0.43408 0.19577-0.49803 0.2406-0.96188 0.53354-1.4084 0.85454z" fill="#f95" opacity=".99"/>
   <path id="path3779" d="m95.73 51.204c0.1174-0.1676 0.1782-0.3663-0.058-0.5966-0.1319-0.129 0.1593-0.4085 0.058-0.5655-0.1087-0.1571-0.2565-0.2303-0.4507-0.2198l-0.8704 0.084-0.878 0.084c-0.7071 0.073-1.2898 0.1262-1.7482 0.1363-0.023-3.6747-0.03-6.5958-0.03-8.763 0.3494-0.022 0.7536-0.052 1.2119-0.1044l1.22-0.1261c1.0023-0.1044 1.8182-0.157 2.4321-0.1675 0.1864 0 0.334-0.084 0.4506-0.2618 0.1015-0.157-0.03-0.3559-0.03-0.5862 0-0.2198 0.132-0.4188 0.03-0.576-0.116-0.1779-0.2642-0.2615-0.4506-0.2511-0.6449 0-1.6006 0.072-2.8672 0.2094l-0.7226 0.074-0.7149 0.062c-0.5283 0.052-1.0101 0.072-1.4373 0.072-0.311 0.015-0.5052 0.2095-0.5752 0.6074-0.078 0.3872 0.2062 0.6428 0.4158 0.8626l-0.1982 5.6701 0.031 5.6221c0.023 4.9728 0.039 8.7104 0.039 11.234 0 0.2615 0.062 0.4604 0.1943 0.6175 0.116 0.1362 0.2998-0.2332 0.4629-0.2332 0.1711 0 0.2753 0.3693 0.3919 0.2332 0.1319-0.1571 0.1941-0.356 0.1941-0.6175 0-1.7276 0-3.7167-0.014-5.9468l-0.03-5.9463c0.4584-0.022 1.0411-0.064 1.7482-0.1363l0.8703-0.094 0.8702-0.084c0.1944-0.014 0.342-0.1145 0.4508-0.2931zm-8.9434-1.9578 0.093 4.7006c0.039 1.8533-0.045 1.6473-0.022 2.9347l-4.3213-16.168-0.2253-0.9421c-0.055-0.2094-0.1476-0.3664-0.2876-0.4712-0.1247-0.094-0.6372 0.1044-0.7848 0.1261-0.1476 0.022 0.1015-0.1362 0 0-0.1088 0.1468-0.1631 0.3351-0.1553 0.5653 0.039 3.1931 0.054 7.1716 0.039 11.935l-0.023 5.957c-0.014 2.3974-0.016 4.3866-0.016 5.9676 0 0.2616 0.062 0.4605 0.1941 0.6071 0.116 0.1363 0.2645-0.1747 0.4276-0.1747 0.1708 0 0.3107 0.3108 0.4272 0.1747 0.132-0.1466 0.1943-0.3455 0.1943-0.6071l0.016-4.6275 0.016-4.617c0.016-3.8632 0.059-5.6447 0.051-7.9479l4.3857 16.648 0.2331 0.9318c0.054 0.2198 0.1476 0.3768 0.2797 0.4816 0.1319 0.094 0.637-0.094 0.7846-0.1261 0.1476-0.022-0.1015 0.1363 0 0 0.1015-0.157 0.1555-0.3455 0.1555-0.5758 0-2.6905-0.055-6.7213-0.1555-12.092l-0.062-3.0256-0.046-3.0256c-0.039-2.2403-0.054-4.2609-0.054-6.0512 0-0.2511-0.062-0.4503-0.1943-0.607-0.116-0.1363-0.2642 0.1363-0.4273 0.1363-0.1711 0-0.3187-0.273-0.4352-0.1363-0.132 0.1567-0.1942 0.3559-0.1942 0.607 0.014 2.4813 0.039 5.6222 0.1088 9.4223zm-13.302 6.5748-0.014-1.4448-0.016-1.4448 0.1088-6.1875v-0.5442l-0.014-0.5653c0.014-0.4502 0.032-0.8167 0.07-1.1099 0.1319-0.9106 0.4349-1.696 0.909-2.3346 0.536-0.7327 1.1188-0.9841 1.7482-0.7536 0.7536 0.272 1.2277 1.0782 1.422 2.4078 0.07 0.4711 0.1087 1.0468 0.116 1.7274 0.014 0.2199 0.014 0.5025 0 0.8269v0.3877c-0.014 0.1466-0.014 0.272-0.014 0.3664 0 0.9422 0 2.2928 0.014 4.062l0.014 2.0309v2.031c0 0.3455 0.014 0.848 0.023 1.4971l0.016 0.7644 0.014 0.7642c0.014 1.2146-0.062 2.2197-0.1941 3.0046-0.1406 0.8062-0.5129 1.3612-1.1268 1.6647-0.536 0.2723-1.1267 0.3036-1.756 0.084-0.5671-0.1988-0.9401-0.7957-1.1189-1.8007-0.062-0.3559-0.1087-0.7958-0.1319-1.3192-0.014-0.1675-0.014-0.3768-0.016-0.6386l-0.014-0.2931-0.015-0.2827c-0.023-0.7223-0.039-1.6855-0.039-2.8999zm4.6929 7.7158c0.3887-0.555 0.6451-1.2773 0.7771-2.1566 0.116-0.8062 0.171-1.8217 0.171-3.0361l-0.016-0.7748-0.014-0.7749c-0.016-0.6592-0.023-1.1617-0.023-1.518v-2.031l-0.014-2.0309c-0.015-1.8009-0.015-3.1514 0-4.062v-0.8271l-0.015-0.8376c-0.016-0.6282-0.054-1.183-0.1087-1.6542-0.1477-1.2248-0.4818-2.1985-1.0024-2.9417-0.474-0.6596-1.049-1.0575-1.7249-1.1725-0.6762-0.1261-1.3055 0.042-1.8884 0.5025-0.4893 0.3873-0.9245 1.005-1.3052 1.853-0.3653 0.8164-0.5829 1.6225-0.6526 2.4183-0.032 0.3036-0.046 0.6804-0.055 1.1308v1.1199l-0.1087 6.1875 0.016 1.3821 0.014 1.3922c0 1.1935 0.014 2.115 0.03 2.7746l0.015 0.3243v0.3245c0.014 0.2619 0.016 0.4816 0.023 0.6596 0.023 0.5234 0.055 0.9737 0.1015 1.361 0.1247 1.0366 0.3808 1.8426 0.7615 2.4186 0.7537 1.1411 1.9036 1.5179 3.45 1.1098 0.6372-0.1676 1.1577-0.5447 1.5617-1.1413zm-7.9798-2.3555c-0.046-0.1883 0.1476 0.1145 0 0-0.1476-0.116-0.5827-0.6073-0.7459-0.5759-0.171 0.032-0.3107 0.157-0.4118 0.3768l-0.1943 0.398-0.1942 0.3977c-0.1476 0.2931-0.9479 0.9424-1.0878 1.1411-0.1553 0.2198 0.2796-0.052 0 0-0.1015 0.022-0.2253 0.032-0.3729 0.032h-0.1865l-0.1787-0.014c-0.4818-0.015-0.8781-0.1043-1.1888-0.2722-0.412-0.2198-0.6917-0.5862-0.8469-1.0887-0.132-0.4294-0.21-0.9424-0.241-1.5494-0.016-0.2201-0.023-0.4921-0.023-0.7958v-0.3977l0.014-0.398v-2.6384l-0.014-2.6275c-0.014-1.3926 0-3.8528 0.016-6.1664l-0.016-0.6388c-0.014-0.5338 0-0.9631 0.014-1.2877 0.03-1.005 0.1708-1.811 0.4117-2.4288 0.2177-0.5548 0.623-0.6437 1.0658-0.853 0.4197-0.199 0.7835-0.487 1.2342-0.2986 0.4273 0.1779 0.8157 0.6072 1.1654 1.2982 0.3342 0.6595 0.5128 1.2983 0.5362 1.9158 0.014 0.2514 0.086 0.4502 0.2176 0.6073 0.116 0.1363 0.193-0.1377 0.3637-0.1377 0.1634 0 0.3744 0.2734 0.491 0.1377 0.1246-0.1465 0.1786-0.3455 0.1709-0.6073-0.023-0.848-0.202-1.6438-0.5362-2.3974-0.3186-0.7328-0.7304-1.3297-1.2354-1.8007-0.5206-0.4712-1.0801-0.7433-1.6628-0.8063-0.6293-0.062-1.2277 0.1262-1.7948 0.5761-0.5594 0.4394-0.9714 1.0991-1.2356 1.9787-0.2096 0.6804-0.3418 1.5388-0.4039 2.5857-0.054 0.9946-0.086 2.209-0.078 3.6643l0.016 1.8426c0.014 0.7748 0.016 1.3818 0.016 1.8321l0.014 3.3084v3.3185c0 0.9109 0.03 1.6332 0.1015 2.1776 0.1015 0.8061 0.3031 1.4763 0.5906 2.0101 0.5829 1.0994 1.6472 1.6333 3.2091 1.6229 0.6916-0.014 1.2509-0.2198 1.6626-0.6388 0.2332-0.2407 0.4663-0.5756 0.6994-1.005 0.086-0.1466 0.1787-0.3351 0.2952-0.5757l0.2722-0.5759c0.1087-0.2198 0.1406-0.4291 0.085-0.6489zm-10.529-14.105c-0.074 0.789-1.6606 2.4996-1.9881 2.9914-0.3355 0.4815 0.5892-0.2356 0 0-0.4499 0.1741-0.9218-0.3239-1.5681-0.283-0.065-3.6367-0.1745-5.9969-0.1745-8.2814 0.9817 0.103 1.7426 0.3074 2.2745 0.6147 0.7445 0.4405 1.2108 1.3933 1.3991 2.8685 0.099 0.7683 0.1145 1.4649 0.057 2.0898zm-0.1635 13.912c-0.7446 0.7888-1.8408 1.2599-3.3053 1.393-0.015-2.3151 0-5.3854-0.077-9.8417l0.3471-0.2182 0.3928 0.091c0.319 0.072 0.5808 0.1435 0.8017 0.2052 0.5972 0.1741 1.3417 0.5315 1.759 0.7775 0.9574 0.5531 1.2602 1.4862 1.3664 3.1049 0.1305 1.926-0.2944 3.4216-1.2845 4.4872zm-4.7535-9.0152c0.09 4.7228-0.022 8.9443-0.022 11.3 0 0.2356-0.094 0.4185 0.2381 0.305 0.2172 0.2065 0.1102 0.032 0.2172 0.2065 0.1232 0.1945 0.2863 0.2869 0.5072 0.2763 1.972-0.091 3.5183-0.6863 4.6228-1.803 1.2682-1.2599 1.8654-3.1038 1.8-5.5215-0.058-2.1104-0.6627-3.647-1.8328-4.6201-0.409-0.3381-0.9162-0.6251-1.5136-0.8507 0.4338-0.2661 0.8183-0.6041 1.1373-1.0038 0.9-1.127 1.2438-2.8888 1.0228-5.2964-0.1718-1.8952-0.761-3.2474-1.7592-4.0567-0.5071-0.42-1.17-0.707-1.98-0.8811-0.3026-0.061-0.6546-0.1131-1.0717-0.1537l-0.5237 0.044h-0.5019c-0.311-0.03-0.521-0.016-0.6107 0.3432-0.09 0.3381-0.049 0.8299 0.1392 1.0859-0.015 0.061 0-0.071 0 0 0 2.3666 0.041 5.9008 0.1305 10.624zm-9.1719 10.859c0 0.1741 0.033 0.3278 0.1058 0.4507 0.015 0.2152 0.065 0.3994 0.172 0.543 0.1145 0.1536 0.2699 0.2354 0.4662 0.2354 0.3845 0 0.8266-0.02 1.3336-0.051l1.3338-0.091c1.1126-0.072 2.0045-0.093 2.6673-0.062 0.2045 0.014 0.3599-0.061 0.4745-0.2252 0.1058-0.1536-0.046-0.3001-0.046-0.5151s0.1527-0.448 0.046-0.6017c-0.1146-0.1741-0.27-0.2663-0.4745-0.2766-0.6301-0.03-1.4238-0.015-2.3809 0.051l-1.1946 0.071s-0.4936-0.029-0.8208-0.019c0-4.2923-0.3902-7.5309-0.423-9.887h3.2482c0.1966 0 0.352-0.083 0.4747-0.2564 0.1058-0.1536 0-0.3379 0-0.5531 0-0.2254 0.1029-0.4098 0-0.5635-0.1232-0.1638-0.2781-0.2458-0.4747-0.2458h-3.2727c-0.056-3.2884 0.2945-5.9287 0.1392-8.6947l4.4429-0.3819c0.2037-0.017 0.36-0.081 0.4745-0.256 0.1058-0.1537-0.028-0.319-0.028-0.5341 0-0.2255 0.1334-0.4289 0.028-0.5826-0.1145-0.1639-0.27-0.2459-0.4745-0.2459h-5.5965c-0.2044 0-0.3683 0.093-0.4908 0.2664-0.1232 0.1435-0.18 0.3381-0.1719 0.584 0.2944 4.8659 0.4419 12.14 0.4419 21.841zm-5.3264-1.803c-0.81 0.7684-1.7756 1.219-2.9046 1.3521 0.041-1.5263 0.081-3.2475 0.1059-5.1733l0.056-5.1736c0.049-4.5383 0.1059-7.9905 0.1717-10.347 0.014-0.051 0.014-0.1029 0-0.1536 0.9409-0.081 1.743 0.061 2.4219 0.42 0.8264 0.4406 0.8264 1.4631 0.9246 2.4568 0.1058 1.0245 0.6546 3.7206 0.6872 5.0934 0.014 0.5019-0.015-0.7071 0 0l0.017 1.803 0.017 1.598 0.014 1.5982c0 1.209-0.5591 3.3432-0.5998 4.2653-0.065 1.342-0.014 1.3897-0.9056 2.2605zm1.099-20.392c-0.9408-0.543-2.5798-0.8344-3.8318-0.7217-0.2128 0.015-0.4827 0.051-0.8017 0.1232-0.2618 0.051-0.2688 0.4516-0.318 0.7487-0.041 0.2868-0.1893 0.665-0.026 0.9006-0.04 0.093 0.015-0.1334 0 0-0.04 1.5674-0.081 3.3397-0.1145 5.3065l-0.056 5.3068c-0.057 4.7021-0.1146 8.2365-0.18 10.603 0 0.093 0.015 0.1845 0.025 0.2664-0.014 0.2355 0.1363 0.2965 0.2428 0.4605 0.1146 0.1946 0.1827 0.4205 0.3873 0.4306 1.4972 0.041 2.8308-0.43 4.0008-1.4136 1.26-1.0553 2.0129-2.4689 2.2581-4.2411 0.049-0.3586 0.081-0.7787 0.099-1.2807l0.014-0.6454v-0.6453c0.017-1.1883 0.017-2.5713 0.014-4.1592l-0.014-0.9937-0.014-1.004c-0.014-0.7684-0.017-1.4343-0.033-1.9975-0.041-1.5063-0.1232-2.8379-0.2454-3.9853-0.1555-1.4239-0.2672-2.3925-1.4046-3.0584z" fill="#008000"/>
   <path id="path3782" d="m105 39.54c-0.03-0.341-0.304-0.4495-0.683-0.6493-0.428-0.2-0.891-0.3752-1.352-0.1755-1.103 0.4585-2.107 0.7758-3.029 0.9758-0.3784 0.083-0.4866 0.3578-0.6347 0.5928-0.1481 0.2234-0.088 0.4058 0 0.6527 0.099 0.2469 0.032 0.3532 0.3115 0.4824 0.2962 0.1406 0.6422 0.1647 1.0202 0.083 0.593-0.129 1.202-0.2821 1.811-0.4819 0.08 2.8564 0.114 6.8297 0.06 11.896l-0.03 2.974-0.02 2.974c-0.02 2.2454 0 4.2202 0.03 5.9481 0 0.2939 0.132 0.5173 0.412 0.6936 0.247 0.1528 0.598 0.087 0.96 0.087 0.345 0 0.62 0.065 0.867-0.087 0.28-0.1763 0.411-0.3997 0.395-0.6936-0.03-1.7985-0.05-3.8674-0.03-6.2302l0.03-3.1151 0.03-3.1149c0.05-5.2312 0-9.3924-0.116-12.461 0-0.129 0.04-0.245-0.04-0.3507z" fill="#cd0000"/>
   <path id="path4875" d="m93.058 71.94-0.10571 0.05107c-0.14224 0.08649-0.24777 0.22965-0.27448 0.40448-0.03481 0.23438 0.05928 0.43259 0.14689 0.58406 0.06498 0.10232 0.13084 0.19956 0.20469 0.29037-0.23136-0.05315-0.47503-0.0918-0.73379-0.07385-0.0967 0.0067-0.19374 0.02585-0.28881 0.05734-0.09523 0.03046-0.18825 0.0754-0.2689 0.14546-0.18757 0.13726-0.30822 0.34337-0.34426 0.56879-0.06319 0.39746 0.06657 0.76468 0.25453 1.0779 0.01087 0.02251 0.03479 0.03983 0.04523 0.06144-0.25534 0.27306-0.4864 0.54605-0.69061 0.81552-1.1607 1.5305-1.3134 2.6791-1.2523 2.701 0.09705 0.03308 0.48168-1.0305 1.6632-2.3652 0.1957-0.22181 0.41185-0.44474 0.64438-0.66891 0.08576 0.09706 0.1685 0.19247 0.2486 0.28126 0.14311-0.08468 0.29225-0.15896 0.37663-0.34132-0.21718-0.24036-0.44416-0.49342-0.5964-0.74694-0.15495-0.25177-0.22325-0.4943-0.18884-0.73571 0.01469-0.09372 0.07001-0.1852 0.14325-0.23957 0.07635-0.05576 0.18441-0.08909 0.29601-0.09969 0.30164-0.02023 0.63167 0.06821 0.98289 0.16397 0.35189 0.09621 0.69923 0.21127 1.0433 0.33958 0.06003 0.02542 0.12463 0.04419 0.18328 0.06605 0.06941 0.02644 0.14255 0.05507 0.17606 0.07109 0 0 0.03702 0.0077 0.11707-0.03101 0.02701-0.01305 0.05312-0.02567 0.09048-0.06926 0.03682-0.04333 0.08517-0.17475 0.03501-0.27857l-0.02566-0.05312c-0.15054-0.09552-0.23885-0.13005-0.39076-0.18426-0.0245-7e-3 -0.04674-0.01629-0.07031-0.026 1.2323-0.79688 2.6402-1.5131 4.2789-2.1527 0.31458-0.1231 0.62897-0.23944 0.94087-0.35014 2.3139-0.81946 4.3535-1.2666 6.1637-1.4897 1.0116-0.12434 1.797-0.16071 2.5123-0.13979 1.1735 0.04057 1.8124 0.27576 1.8464 0.20358 0.0374-0.08358-0.57054-0.47524-1.8117-0.63748-0.72836-0.09847-1.5705-0.12433-2.6066-0.05292-1.8617 0.12807-4.0018 0.53252-6.3708 1.3575-0.32041 0.11148-0.6436 0.22985-0.96761 0.3564-0.63686 0.2477-1.2404 0.51262-1.8141 0.79312-0.53224 0.25713-1.035 0.53224-1.5147 0.81727-0.15678-0.05786-0.31395-0.12687-0.47824-0.19476-0.37364-0.15411-0.78992-0.35348-1.2653-0.34148-0.10291 0.0031-0.21397 0.02008-0.32145 0.06312zm0.16608 0.39665c0.04592-0.02219 0.10536-0.03202 0.16977-0.03204 0.34432-0.0086 0.70703 0.15042 1.0922 0.30907 0.06003 0.02542 0.1223 0.05086 0.18384 0.07733-0.34646 0.21846-0.67716 0.44475-0.99545 0.67648-0.17942-0.18519-0.36839-0.41497-0.47444-0.59907-0.07255-0.11799-0.11075-0.22925-0.09434-0.30792 0.0045-0.03438 0.0346-0.0778 0.07491-0.10172l0.04412-0.02132zm3.3442 0.84668c-0.35054 0.16935-0.58246 0.49984-0.5558 0.77182 0.02988 0.30852 0.38403 0.43884 0.79005 0.29122 0.40508-0.14794 0.70999-0.51702 0.67975-0.8256-0.03128-0.30796-0.3848-0.43858-0.79032-0.2911l-0.12138 0.05864zm0.40626 0.13957c0.02701-0.01305 0.05223-0.02523 0.08353-0.0248 0.02701-0.01305 0.05782-0.0091 0.09481 8.43e-4 0.03879 9e-3 0.07771 0.04131 0.09724 0.08174 0.03915 0.08104 0.0039 0.14148-0.02606 0.18928-0.03017 0.04789-0.07047 0.09068-0.1201 0.1291-0.04974 0.03958-0.10097 0.06433-0.1564 0.07556-0.02701 0.01305-0.05782 0.0091-0.09391-0.0013-0.03879-9e-3 -0.07951-0.04044-0.09904-0.08087-0.03915-0.08104-0.0039-0.14148 0.02467-0.18894 0.03107-0.04833 0.07003-0.09158 0.11985-0.13009 0.02791-0.01348 0.04704-0.03827 0.07315-0.05089zm10.982-3.3072c-0.0708 0.10861-0.12603 0.17361 6.6e-4 0.23124 0.0822 0.0092 0.12558 0.0071 0.17077-0.06029 0.14307-0.18662 0.26167-0.1986 0.37098-0.17922 0.10584 0.01217 0.087 0.01907 0.27505 0.13255 0.0911 0.11967 0.24016 0.03046 0.16007-0.12842-0.13284-0.11407-0.15481-0.15954-0.28538-0.20452-0.24484-0.09761-0.46341-0.03511-0.69354 0.21267zm1.7322-0.04897c-0.4009 0.20923-0.76896 0.54851-0.78152 0.55469l1.1872-0.69426c-0.13489 0.01963-0.2711 0.071-0.40576 0.13939zm-0.76126 0.56445 1.2961 0.49674c-0.0894-0.59884-0.90639-0.31987-1.2961-0.49674zm-2.7702 1.852c-0.55376 0.26753-1.1366 0.60353-1.7431 1.0033-1.269 0.8377-2.5261 1.9412-3.6707 3.3336-0.12134 0.14746-0.23988 0.29702-0.35535 0.44698-1.1887 1.5439-2.0748 3.1822-2.7325 4.5777-1.3681 2.9026-1.946 4.9613-1.8679 4.9951 0.19033 0.08064 1.0066-1.8875 2.4837-4.6881 0.70563-1.3373 1.6108-2.9198 2.7542-4.3914 0.11206-0.14298 0.2255-0.28563 0.34184-0.42735 1.0966-1.3337 2.2726-2.4053 3.4571-3.2476 2.953-2.1036 5.519-2.7162 5.4768-2.8701-0.0122-0.02521-1.7545 0.0832-4.1441 1.2679z"/>
   <path id="path1105" d="m114.96 44.802c-0.03 0.1464 1.443-0.3809 3.285 1.493 0.733 0.7429 1.43 1.9005 1.586 3.3715 0.116 1.1532-0.101 2.4877-0.851 3.6864-0.645 1.0284-1.67 1.9296-2.975 2.4072-1.283 0.4645-2.786 0.4996-4.207 0-1.3-0.4572-2.494-1.3362-3.359-2.5377-0.808-1.1224-1.319-2.4879-1.455-3.9384-0.121-1.3728 0.07-2.794 0.575-4.1362 0.771-2.0556 2.276-3.9296 4.333-5.0679 1.676-0.9231 3.686-1.3129 5.65-1.0053 0.338 0.059 0.673 0.132 1.002 0.2198 2.711 0.7971 4.8 2.8659 5.941 5.2043 1.218 2.4924 1.494 5.241 1.288 7.7157-0.425 5.1882-2.814 9.4489-5.405 12.294-3.749 4.1178-7.328 5.3554-9.23 5.815-0.377 0.091-0.772 0.1319-1.119 0.1363-0.49 0-0.88-0.059-0.97-0.1562-0.03-0.083 0.365 0 0.869 0 0.358 0.014 0.769-0.016 1.114-0.1545 1.827-0.73 5.292-2.4066 8.601-6.2931 2.379-2.7911 4.548-6.8863 4.87-11.74 0.151-2.312-0.116-4.8352-1.227-7.0211-1.028-2.0293-2.85-3.8491-5.113-4.4805-0.273-0.074-0.551-0.1464-0.834-0.1846-1.643-0.2579-3.362 0.073-4.78 0.844-1.75 0.9493-3.069 2.5728-3.754 4.3412-0.445 1.1591-0.635 2.3825-0.539 3.5516 0.106 1.2308 0.515 2.4001 1.176 3.3465 0.704 1.011 1.687 1.7743 2.753 2.1714 1.16 0.4352 2.417 0.4454 3.477 0.087 1.08-0.3575 1.973-1.0859 2.543-1.9284 0.665-0.9801 0.915-2.1215 0.858-3.1193-0.07-1.2762-0.622-2.3428-1.228-3.0593-1.405-1.66-2.891-1.7712-2.875-1.8695z" fill="#cd0000"/>
  </g>
 </g>
</svg>
