<?xml version="1.0" encoding="UTF-8"?>
<svg xmlns="http://www.w3.org/2000/svg" xmlns:xlink="http://www.w3.org/1999/xlink" id="svg8" width="376.1" height="257.91" version="1.1" viewBox="0 0 99.511 68.238">
  <defs id="defs2">
    <clipPath id="clipPath3657">
      <path id="path3659" d="m66.67 63.686c-17.477 6e-3 -34.497 3.5-48.637 10.01a1.169 1.169 0 0 0-0.57338 1.5495 1.169 1.169 0 0 0 1.5495 0.57336c13.781-6.3446 30.496-9.7876 47.661-9.7935h0.0441c17.181 8e-6 33.912 3.4433 47.705 9.7935a1.169 1.169 0 0 0 1.5495-0.57336 1.169 1.169 0 0 0-0.57339-1.5495c-14.153-6.5158-31.189-10.01-48.682-10.01z" color="#000000" color-rendering="auto" dominant-baseline="auto" fill="#a80030" fill-rule="evenodd" image-rendering="auto" shape-rendering="auto" stop-color="#000000"/>
    </clipPath>
  </defs>
  <g id="layer1" transform="translate(-13.745 -5.7498)">
    <g id="g1156" transform="matrix(1.0181 0 0 1.0181 -4.4213 -17.891)" clip-path="url(#clipPath3657)" fill="#a80030">
      <path id="path878" d="m17.844 72.876a120.16 116.79 0 0 1 17.221-5.9723l31.651 112.67z"/>
      <path id="path878-6" d="m26.338 69.571a120.16 116.79 0 0 1 17.639-4.6814l22.74 114.68z"/>
      <path id="path878-6-7" d="m35.065 66.903a120.16 116.79 0 0 1 17.954-3.3634l13.697 116.03z"/>
      <path id="path878-6-7-6" d="m43.977 64.889a120.16 116.79 0 0 1 18.166-2.0259l4.5745 116.71z"/>
      <path id="path878-6-7-6-2" d="m53.02 63.54a120.16 116.79 0 0 1 18.272-0.6766l-4.5745 116.71z"/>
      <path id="path878-6-7-6-2-93" d="m80.412 63.537a120.16 116.79 0 0 0-18.272-0.6766l4.5745 116.71z"/>
      <path id="path878-6-7-6-0" d="m89.455 64.886a120.16 116.79 0 0 0-18.166-2.0259l-4.5745 116.71z"/>
      <path id="path878-6-7-7" d="m98.367 66.901a120.16 116.79 0 0 0-17.954-3.3634l-13.697 116.03z"/>
      <path id="path878-6-2" d="m107.09 69.568a120.16 116.79 0 0 0-17.639-4.6814l-22.74 114.68z"/>
      <path id="path878-1" d="m115.59 72.873a120.16 116.79 0 0 0-17.221-5.9723l-31.651 112.67z"/>
      <path id="path878-1-0" d="m115.59 72.873a120.16 116.79 0 0 0-8.4936-3.305l-40.379 110z"/>
    </g>
    <g id="path238">
      <path id="path2331" d="m112.58 58.169c-14.231-6.552-31.428-10.085-49.085-10.085h-0.04496c-17.642 6e-3 -34.821 3.5389-49.04 10.085" color="#000000" color-rendering="auto" dominant-baseline="auto" fill-opacity="0" image-rendering="auto" shape-rendering="auto"/>
    </g>
    <g id="g888" transform="translate(6.0596 -1.5875)" fill="#a80030">
      <path id="path2698" d="m36.751 57.478q0.99483 0 1.7039 0.49742 0.71966 0.48683 1.0901 1.3335 0.381 0.83608 0.381 1.8732t-0.381 1.8838q-0.37042 0.83608-1.0901 1.3335-0.70908 0.48683-1.7039 0.48683h-2.5294q-0.27517 0-0.46566-0.17992-0.17992-0.1905-0.17992-0.46566v-6.1171q0-0.27517 0.17992-0.45508 0.1905-0.1905 0.46566-0.1905zm-0.10583 6.1912q0.9525 0 1.4287-0.6985 0.47625-0.70908 0.47625-1.7886 0-1.0795-0.48683-1.778-0.47625-0.70908-1.4182-0.70908h-1.7462v4.9742z"/>
      <path id="path2700" d="m45.334 63.669q0.27517 0 0.45508 0.1905 0.1905 0.17992 0.1905 0.42333 0 0.26458-0.1905 0.43392-0.17992 0.16933-0.45508 0.16933h-3.5454q-0.27516 0-0.46566-0.17992-0.17992-0.1905-0.17992-0.46566v-6.1171q0-0.27517 0.17992-0.45508 0.1905-0.1905 0.46566-0.1905h3.5454q0.27517 0 0.45508 0.17992 0.1905 0.16933 0.1905 0.4445 0 0.26458-0.17992 0.43392-0.17992 0.15875-0.46566 0.15875h-2.8681v1.7992h2.3918q0.27517 0 0.45508 0.17992 0.1905 0.16933 0.1905 0.4445 0 0.26458-0.17992 0.43392-0.17992 0.15875-0.46566 0.15875h-2.3918v1.9579z"/>
      <path id="path2702" d="m51.641 60.78q0.56092 0.22225 0.91016 0.67733 0.35983 0.45508 0.35983 1.1747 0 1.2594-0.71966 1.7568-0.71966 0.49742-1.7145 0.49742h-2.6352q-0.27517 0-0.46566-0.17992-0.17992-0.1905-0.17992-0.46566v-6.1171q0-0.27517 0.17992-0.45508 0.1905-0.1905 0.46566-0.1905h2.667q2.0108 0 2.0108 1.8838 0 0.47625-0.23283 0.84666-0.22225 0.35983-0.64558 0.5715zm-0.49742-1.1853q0-0.43392-0.22225-0.64558-0.21167-0.22225-0.60325-0.22225h-1.7462v1.651h1.778q0.3175 0 0.55033-0.21167 0.24342-0.21167 0.24342-0.5715zm-0.66675 4.0746q0.49742 0 0.77258-0.26458 0.28575-0.26458 0.28575-0.77258 0-0.62442-0.32808-0.81491-0.32808-0.1905-0.80433-0.1905h-1.8309v2.0426z"/>
      <path id="path2704" d="m59.314 57.838q0.32808 0.16933 0.32808 0.53975 0 0.22225-0.15875 0.43392-0.16933 0.22225-0.43392 0.22225-0.17992 0-0.35983-0.09525-0.51858-0.24342-1.1218-0.24342-0.74083 0-1.2912 0.3175-0.55033 0.30692-0.84666 0.87841-0.29633 0.56091-0.29633 1.2912 0 1.2488 0.66675 1.8944 0.67733 0.64558 1.7674 0.64558 0.64558 0 1.1218-0.24342 0.1905-0.08467 0.33866-0.08467 0.27517 0 0.46567 0.23283 0.15875 0.20108 0.15875 0.43392 0 0.16933-0.08467 0.30692t-0.24342 0.21167q-0.8255 0.41275-1.7568 0.41275-1.0372 0-1.905-0.43392-0.86783-0.4445-1.3864-1.3017t-0.51858-2.0743q0-1.0795 0.48683-1.9367 0.49742-0.85725 1.3652-1.3335 0.86783-0.48683 1.9579-0.48683 0.94191 0 1.7462 0.41275z"/>
      <path id="path2706" d="m67.58 61.182q0 1.0477-0.46566 1.9262-0.46566 0.86783-1.2912 1.3758-0.81491 0.508-1.8415 0.508t-1.8521-0.508q-0.81491-0.508-1.2806-1.3758-0.45508-0.87841-0.45508-1.9262t0.45508-1.9156q0.46567-0.87841 1.2806-1.3864 0.8255-0.508 1.8521-0.508t1.8415 0.508q0.8255 0.508 1.2912 1.3864 0.46566 0.86783 0.46566 1.9156zm-1.3758 0q0-0.70908-0.28575-1.2806-0.28575-0.58208-0.79375-0.92075-0.508-0.33867-1.143-0.33867-0.64558 0-1.1536 0.33867-0.49742 0.32808-0.78316 0.91016-0.27516 0.58208-0.27516 1.2912t0.27516 1.2912q0.28575 0.58208 0.78316 0.92075 0.508 0.32808 1.1536 0.32808 0.635 0 1.143-0.33867 0.508-0.33866 0.79375-0.91016 0.28575-0.58208 0.28575-1.2912z"/>
      <path id="path2708" d="m74.417 57.478q0.254 0 0.41275 0.16933 0.15875 0.16933 0.15875 0.42333v6.1701q0 0.27516-0.1905 0.46566-0.17992 0.17992-0.45508 0.17992-0.14817 0-0.29633-0.04233-0.13758-0.05292-0.20108-0.13758l-3.8841-4.9318v4.5191q0 0.254-0.16933 0.42333-0.15875 0.16933-0.42333 0.16933-0.254 0-0.41275-0.16933-0.15875-0.16933-0.15875-0.42333v-6.1701q0-0.27517 0.17992-0.45508 0.1905-0.1905 0.46566-0.1905 0.15875 0 0.30692 0.0635 0.15875 0.0635 0.23283 0.16933l3.8523 4.9107v-4.5508q0-0.254 0.15875-0.42333 0.16933-0.16933 0.42333-0.16933z"/>
      <path id="path2710" d="m77.899 58.695v1.8627h2.286q0.27516 0 0.45508 0.17992 0.1905 0.16933 0.1905 0.4445 0 0.23283-0.1905 0.41275-0.17992 0.17992-0.45508 0.17992h-2.286v2.4659q0 0.27516-0.20108 0.46566-0.1905 0.17992-0.45508 0.17992-0.29633 0-0.48683-0.17992-0.17992-0.17992-0.17992-0.46566v-6.1171q0-0.27517 0.17992-0.45508 0.1905-0.1905 0.46567-0.1905h3.4396q0.27517 0 0.45508 0.17992 0.1905 0.16933 0.1905 0.4445 0 0.23283-0.1905 0.41275-0.17992 0.17992-0.45508 0.17992z"/>
    </g>
    <g id="g879" transform="translate(2.7613 -4.2333)" fill="#a80030">
      <path id="path2716" d="m49.098 74.411q0 1.0477-0.46567 1.9262-0.46566 0.86783-1.2912 1.3758-0.81491 0.508-1.8415 0.508t-1.8521-0.508q-0.81491-0.508-1.2806-1.3758-0.45508-0.87841-0.45508-1.9262 0-1.0477 0.45508-1.9156 0.46566-0.87841 1.2806-1.3864 0.8255-0.508 1.8521-0.508t1.8415 0.508q0.8255 0.508 1.2912 1.3864 0.46567 0.86783 0.46567 1.9156zm-1.3758 0q0-0.70908-0.28575-1.2806-0.28575-0.58208-0.79375-0.92075-0.508-0.33866-1.143-0.33866-0.64558 0-1.1536 0.33866-0.49742 0.32808-0.78316 0.91016-0.27517 0.58208-0.27517 1.2912t0.27517 1.2912q0.28575 0.58208 0.78316 0.92075 0.508 0.32808 1.1536 0.32808 0.635 0 1.143-0.33867t0.79375-0.91016q0.28575-0.58208 0.28575-1.2912z"/>
      <path id="path2718" d="m55.935 70.707q0.254 0 0.41275 0.16933 0.15875 0.16933 0.15875 0.42333v6.1701q0 0.27517-0.1905 0.46566-0.17992 0.17992-0.45508 0.17992-0.14817 0-0.29633-0.04233-0.13758-0.05292-0.20108-0.13758l-3.8841-4.9318v4.5191q0 0.254-0.16933 0.42333-0.15875 0.16933-0.42333 0.16933-0.254 0-0.41275-0.16933-0.15875-0.16933-0.15875-0.42333v-6.1701q0-0.27517 0.17992-0.45508 0.1905-0.1905 0.46566-0.1905 0.15875 0 0.30692 0.0635 0.15875 0.0635 0.23283 0.16933l3.8523 4.9107v-4.5508q0-0.254 0.15875-0.42333 0.16933-0.16933 0.42333-0.16933z"/>
      <path id="path2720" d="m62.179 76.877q0.27516 0 0.45508 0.17992 0.1905 0.16933 0.1905 0.4445 0 0.26458-0.1905 0.4445-0.17992 0.16933-0.45508 0.16933h-3.4396q-0.27517 0-0.46566-0.17992-0.17992-0.1905-0.17992-0.46566v-6.1171q0-0.27517 0.1905-0.45508 0.1905-0.1905 0.48683-0.1905 0.26458 0 0.45508 0.1905 0.1905 0.17992 0.1905 0.45508v5.5245z"/>
      <path id="path2722" d="m65.364 77.47q0 0.27517-0.20108 0.46566-0.20108 0.17992-0.46566 0.17992-0.28575 0-0.47625-0.17992-0.17992-0.1905-0.17992-0.46566v-6.1171q0-0.27517 0.1905-0.45508 0.1905-0.1905 0.48683-0.1905 0.26458 0 0.45508 0.1905 0.1905 0.17992 0.1905 0.45508z"/>
      <path id="path2724" d="m72.571 70.707q0.254 0 0.41275 0.16933 0.15875 0.16933 0.15875 0.42333v6.1701q0 0.27517-0.1905 0.46566-0.17992 0.17992-0.45508 0.17992-0.14817 0-0.29633-0.04233-0.13758-0.05292-0.20108-0.13758l-3.8841-4.9318v4.5191q0 0.254-0.16933 0.42333-0.15875 0.16933-0.42333 0.16933-0.254 0-0.41275-0.16933-0.15875-0.16933-0.15875-0.42333v-6.1701q0-0.27517 0.17992-0.45508 0.1905-0.1905 0.46566-0.1905 0.15875 0 0.30692 0.0635 0.15875 0.0635 0.23283 0.16933l3.8523 4.9107v-4.5508q0-0.254 0.15875-0.42333 0.16933-0.16933 0.42333-0.16933z"/>
      <path id="path2726" d="m78.921 76.899q0.27517 0 0.45508 0.1905 0.1905 0.17992 0.1905 0.42333 0 0.26458-0.1905 0.43392-0.17992 0.16933-0.45508 0.16933h-3.5454q-0.27516 0-0.46566-0.17992-0.17992-0.1905-0.17992-0.46566v-6.1171q0-0.27517 0.17992-0.45508 0.1905-0.1905 0.46566-0.1905h3.5454q0.27517 0 0.45508 0.17992 0.1905 0.16933 0.1905 0.4445 0 0.26458-0.17992 0.43392-0.17992 0.15875-0.46566 0.15875h-2.8681v1.7992h2.3918q0.27517 0 0.45508 0.17992 0.1905 0.16933 0.1905 0.4445 0 0.26458-0.17992 0.43392-0.17992 0.15875-0.46567 0.15875h-2.3918v1.9579z"/>
    </g>
    <path id="path1067" d="m97.044 6.8337c-0.56001-0.018722-0.89188 0.22858-1.2528 0.62061-0.12071 0.13554-0.3193 0.34915-0.59194 0.6224-0.5453 0.54652-1.3876 1.3278-2.5109 2.2017-2.2467 1.7478-5.6177 3.8638-10.009 5.2426-0.64808 0.20369-1.0084 0.89412-0.80488 1.5422 0.20369 0.64808 0.89411 1.0084 1.5422 0.80488 4.7336-1.4863 8.3537-3.758 10.782-5.6469 0.31883-0.24804 0.44234-0.40022 0.71997-0.63255l-6.8415 33.333c-3.3452-0.57633-6.7416-1.0299-10.174-1.3531-0.03158-0.0027-0.06324-0.0043-0.09494-0.0048-0.64243-0.01037-1.1847 0.47538-1.2447 1.1151-0.06338 0.67656 0.43374 1.2764 1.1103 1.3397 7.2568 0.68334 14.349 1.9504 21.105 3.7627 0.65575 0.17601 1.3301-0.21248 1.5068-0.86804 0.17635-0.65592-0.2122-1.3306-0.86802-1.5073-2.9176-0.78261-5.8956-1.4642-8.9197-2.0442l7.5976-37.059c0.19897-0.96284-0.3919-1.4485-1.0515-1.4691z" color="#000000" color-rendering="auto" dominant-baseline="auto" fill="#a80030" image-rendering="auto" shape-rendering="auto"/>
    <path id="path848" d="m59.479 5.752c-3.9099-0.089302-7.2082 2.6184-9.3105 4.377-0.45783 0.29944-0.58804 0.87733-0.31055 1.4219 0.25404 0.49852 0.96938 0.78142 1.4453 0.57031 2.0194-1.5287 4.8179-4.2705 8.0586-4.1934 3.0726 0.073128 5.5013 1.3869 7.6387 3.748 3.4729 3.8331 3.6106 8.5559 3.1465 11.758-0.71721 4.9483-3.4422 7.0159-6.9648 10.623-4.0065 4.1025-8.8516 8.0846-11.656 9.4766-0.64051 0.3228-1.2357 0.67299-1.1289 1.4414 0.17651 0.95311 0.81923 0.95078 1.4648 0.92383 6.1246-0.48336 7.5704-0.58763 12.531-0.58203 2.918 0.0067 5.821 0.11105 8.6973 0.31055 1.0201 0.09083 1.6943-0.29056 1.75-1.1152 0.05567-0.82467-0.66098-1.2099-1.5293-1.2363-4.305-0.25656-8.3609-0.39307-12.168-0.30859-2.4747 0.14882-3.2504 0.14077-4.6504 0.26953 2.5781-2.0192 5.8811-4.5376 8.5371-7.3379 3.6814-3.8813 6.7945-6.5358 7.5957-11.914 0.71908-4.8271 0.12604-9.4538-3.5781-13.814-2.4962-2.8055-5.6585-4.3287-9.5684-4.418z" color="#000000" color-rendering="auto" fill="#a80030" fill-rule="evenodd" image-rendering="auto" shape-rendering="auto" style="isolation:auto;mix-blend-mode:normal;paint-order:markers stroke fill;text-decoration-color:#000000;text-decoration-line:none;text-decoration-style:solid;text-indent:0;text-transform:none;white-space:normal"/>
    <path id="path1498-1-2" d="m47.511 43.897c-4.7612-0.67618-10.154-1.6246-14.878-4.4754-4.3137-2.6031-8.9704-6.1482-10.383-10.984-1.2784-4.3774-0.72388-9.5199 2.57-13.437 2.0498-2.4377 4.9044-4.2223 7.9901-4.8834 3.0801-0.65983 6.4277-0.17573 9.1246 1.3957 2.825 1.6461 4.9554 4.5584 5.5229 7.7424 0.28465 1.5973 0.19299 3.2656-0.27492 4.8091-0.46764 1.5427-1.3185 2.9777-2.4566 4.1056-0.88557 0.8776-1.9509 1.5725-3.0959 1.9897-1.1422 0.41731-2.3847 0.55466-3.5591 0.37205-1.6841-0.26188-3.2859-1.242-4.2374-2.6261-0.94735-1.3782-1.2745-3.2246-0.818-4.8082 0.34974-1.2133 1.1639-2.3202 2.2133-3.0223 1.0494-0.70221 2.3779-1.032 3.6329-0.89257 1.6604 0.27441 1.947-2.2779 0.26708-2.3785-1.8326-0.2037-3.7053 0.25442-5.2378 1.2798-1.5325 1.0254-2.6664 2.5793-3.1771 4.3511-0.67027 2.3252-0.21075 4.8615 1.1463 6.8356 1.3529 1.9682 3.5102 3.2707 5.8457 3.6339 1.6075 0.24999 3.2449 0.05503 4.7475-0.49267 1.5-0.54694 2.8424-1.4368 3.9566-2.5409 1.4318-1.4189 2.4875-3.1917 3.0695-5.1116 0.58175-1.919 0.68843-3.9617 0.33827-5.9264-0.7022-3.9399-3.2414-7.3949-6.6687-9.3919-2.6433-1.5402-5.7369-2.1925-8.7635-1.9633-0.69845 0.052886-1.3931 0.15276-2.0782 0.29952-3.6481 0.7815-6.9393 2.8532-9.3217 5.6864-3.8284 4.5529-4.4708 10.366-3.0931 15.426 1.5182 5.5764 6.6048 9.9645 11.556 12.946 5.2049 3.1341 12.389 4.2019 16.135 4.2536 0.72694 0.02115 1.2487-0.23684 1.2851-0.95042 0.03638-0.71358-0.60924-1.2073-1.3576-1.2413z" color="#000000" color-rendering="auto" fill="#a80030" fill-rule="evenodd" image-rendering="auto" shape-rendering="auto" style="isolation:auto;mix-blend-mode:normal;paint-order:markers stroke fill;text-decoration-color:#000000;text-decoration-line:none;text-decoration-style:solid;text-indent:0;text-transform:none;white-space:normal"/>
  </g>
</svg>
